<svg width="955" height="648" viewBox="0 0 955 648" fill="none" xmlns="http://www.w3.org/2000/svg">
<path fill-rule="evenodd" clip-rule="evenodd" d="M426.941 1.08108C426.941 1.6752 426.33 2.32154 425.584 2.51619C424.832 2.71287 424.226 3.44128 424.226 4.14867C424.226 4.97338 423.746 5.42575 422.869 5.42575C421.892 5.42575 421.511 5.87812 421.511 7.03652C421.511 10.003 420.671 12.8862 419.807 12.8862C419.312 12.8862 418.757 14.1761 418.492 15.9381C418.209 17.8229 417.684 18.9901 417.118 18.9901C416.577 18.9901 416.013 20.1031 415.742 21.703C415.46 23.3707 414.914 24.4159 414.325 24.4159C413.721 24.4159 413.366 25.1388 413.366 26.3657C413.366 29.6327 412.565 32.5545 411.669 32.5545C410.811 32.5545 409.972 35.4471 409.972 38.4041C409.972 39.3251 409.569 40.0149 409.032 40.0149C408.436 40.0149 407.922 41.1373 407.632 43.0669C407.349 44.9516 406.824 46.1189 406.257 46.1189C405.716 46.1189 405.152 47.2318 404.882 48.8317C404.6 50.4995 404.054 51.5446 403.464 51.5446C402.861 51.5446 402.506 52.2676 402.506 53.4945C402.506 56.7615 401.705 59.6832 400.809 59.6832C399.922 59.6832 399.112 62.5982 399.112 65.7926C399.112 67.0934 398.698 67.7717 397.755 68.0185C396.942 68.2308 396.397 68.9436 396.397 69.7928C396.397 70.5741 395.977 71.2129 395.464 71.2129C394.494 71.2129 393.682 74.0337 393.682 77.4017C393.682 78.6096 393.325 79.3516 392.743 79.3516C391.674 79.3516 390.99 81.3862 390.976 84.6078C390.97 86.0497 390.636 86.812 390.009 86.812C389.423 86.812 388.876 87.8422 388.603 89.4584C388.296 91.2712 387.743 92.2126 386.846 92.4466C385.754 92.7321 385.537 93.4049 385.537 96.5037C385.537 99.6479 385.329 100.273 384.179 100.573C383.101 100.854 382.822 101.498 382.822 103.704C382.822 105.616 382.529 106.48 381.883 106.48C380.822 106.48 380.13 108.51 380.116 111.657C380.109 113.208 379.74 113.878 378.749 114.137C377.671 114.419 377.392 115.062 377.392 117.268C377.392 119.592 377.17 120.045 376.034 120.045C374.827 120.045 374.677 120.497 374.677 124.114C374.677 127.731 374.526 128.183 373.319 128.183C372.112 128.183 371.962 128.636 371.962 132.253C371.962 135.87 371.811 136.322 370.604 136.322C369.473 136.322 369.247 136.774 369.247 139.035C369.247 141.295 369.021 141.748 367.889 141.748C366.682 141.748 366.532 142.2 366.532 145.817C366.532 149.434 366.381 149.886 365.174 149.886C363.967 149.886 363.817 150.339 363.817 153.956C363.817 157.573 363.666 158.025 362.459 158.025C361.327 158.025 361.101 158.477 361.101 160.738C361.101 162.998 360.875 163.451 359.744 163.451C358.608 163.451 358.386 163.903 358.386 166.227C358.386 168.433 358.107 169.077 357.029 169.358C355.883 169.658 355.671 170.283 355.671 173.364C355.671 176.563 355.503 177.015 354.314 177.015C353.157 177.015 352.956 177.467 352.956 180.067C352.956 182.667 352.755 183.119 351.599 183.119C350.467 183.119 350.241 183.571 350.241 185.832C350.241 188.092 350.015 188.545 348.884 188.545C347.677 188.545 347.526 188.997 347.526 192.614C347.526 196.231 347.376 196.683 346.169 196.683C345.126 196.683 344.811 197.136 344.811 198.633C344.811 201.931 344.007 204.822 343.089 204.822C342.599 204.822 342.014 206.012 341.757 207.535C341.475 209.203 340.929 210.248 340.339 210.248C339.674 210.248 339.381 211.077 339.381 212.961C339.381 215.221 339.155 215.673 338.024 215.673C336.817 215.673 336.666 216.126 336.666 219.743C336.666 223.325 336.508 223.812 335.342 223.812C334.228 223.812 333.946 224.456 333.557 227.881C333.261 230.501 332.787 231.951 332.226 231.951C331.739 231.951 331.153 233.146 330.897 234.664C330.615 236.331 330.068 237.376 329.479 237.376C328.876 237.376 328.521 238.099 328.521 239.326C328.521 242.656 327.713 245.515 326.773 245.515C326.177 245.515 325.718 246.889 325.412 249.584C325.099 252.355 324.655 253.654 324.021 253.654C323.51 253.654 323.091 254.293 323.091 255.074C323.091 255.923 322.546 256.636 321.733 256.848C320.79 257.095 320.376 257.773 320.376 259.074C320.376 262.268 319.566 265.183 318.679 265.183C317.783 265.183 316.982 268.105 316.982 271.372C316.982 272.575 316.624 273.322 316.049 273.322C315.128 273.322 314.267 276.11 314.267 279.092C314.267 280.054 313.761 280.757 312.909 280.979C311.88 281.248 311.552 281.904 311.552 283.692C311.552 285.48 311.223 286.136 310.194 286.405C309.024 286.711 308.837 287.33 308.837 290.892C308.837 294.573 308.688 295.025 307.479 295.025C306.272 295.025 306.122 295.477 306.122 299.094C306.122 302.711 305.971 303.164 304.764 303.164C303.859 303.164 303.407 303.616 303.407 304.52C303.407 305.266 302.987 305.877 302.473 305.877C301.503 305.877 300.692 308.697 300.692 312.065C300.692 313.268 300.334 314.015 299.758 314.015C298.753 314.015 297.977 316.86 297.977 320.543C297.977 322.04 297.651 322.832 297.038 322.832C295.977 322.832 295.285 324.862 295.271 328.009C295.264 329.559 294.894 330.23 293.904 330.489C293.092 330.701 292.546 331.414 292.546 332.263C292.546 333.231 292.114 333.684 291.189 333.684C289.982 333.684 289.831 334.136 289.831 337.753C289.831 341.37 289.681 341.822 288.474 341.822C287.267 341.822 287.116 342.275 287.116 345.891C287.116 349.508 286.966 349.961 285.759 349.961C284.627 349.961 284.401 350.413 284.401 352.674C284.401 354.934 284.175 355.387 283.044 355.387C281.851 355.387 281.686 355.839 281.686 359.117C281.686 362.395 281.522 362.847 280.329 362.847C279.239 362.847 278.971 363.299 278.971 365.136C278.971 368.819 278.195 371.664 277.189 371.664C276.553 371.664 276.256 372.527 276.256 374.377C276.256 376.637 276.03 377.09 274.899 377.09C273.692 377.09 273.541 377.542 273.541 381.159C273.541 384.776 273.39 385.228 272.184 385.228C271.279 385.228 270.826 385.681 270.826 386.585C270.826 387.71 270.373 387.941 268.171 387.941C265.602 387.941 265.501 387.853 265.057 385.228C264.791 383.659 264.219 382.515 263.699 382.515C263.179 382.515 262.607 381.371 262.342 379.802C262.06 378.135 261.513 377.09 260.924 377.09C260.397 377.09 259.966 376.479 259.966 375.733C259.966 374.859 259.513 374.377 258.693 374.377C257.363 374.377 256.572 372.07 256.572 368.188C256.572 366.961 256.217 366.238 255.614 366.238C255.025 366.238 254.478 365.193 254.196 363.525C253.931 361.956 253.359 360.812 252.839 360.812C252.319 360.812 251.747 359.668 251.481 358.099C251.216 356.531 250.644 355.387 250.124 355.387C249.604 355.387 249.032 354.242 248.766 352.674C248.495 351.074 247.931 349.961 247.39 349.961C246.824 349.961 246.299 348.794 246.016 346.909C245.735 345.036 245.206 343.857 244.648 343.857C244.145 343.857 243.538 342.795 243.291 341.483C243.046 340.177 242.448 339.109 241.963 339.109C241.466 339.109 240.885 337.954 240.633 336.463C240.326 334.65 239.773 333.709 238.876 333.475C237.899 333.219 237.567 332.533 237.567 330.774C237.567 328.986 237.238 328.33 236.209 328.061C235.18 327.793 234.852 327.136 234.852 325.348C234.852 323.56 234.523 322.905 233.494 322.635C232.682 322.423 232.137 321.71 232.137 320.861C232.137 320.08 231.706 319.441 231.178 319.441C230.589 319.441 230.043 318.396 229.761 316.728C229.481 315.073 228.932 314.015 228.352 314.015C227.768 314.015 227.234 312.969 226.967 311.302C226.722 309.771 226.153 308.589 225.661 308.589C225.173 308.589 224.587 307.395 224.331 305.877C224.065 304.308 223.493 303.164 222.973 303.164C222.453 303.164 221.881 302.02 221.616 300.451C221.359 298.928 220.773 297.738 220.283 297.738C219.366 297.738 218.561 294.847 218.561 291.549C218.561 290.052 218.246 289.599 217.204 289.599C216.327 289.599 215.846 289.147 215.846 288.322C215.846 287.615 215.24 286.886 214.489 286.69C213.41 286.408 213.131 285.765 213.131 283.559C213.131 281.647 212.839 280.782 212.193 280.782C211.123 280.782 210.439 278.748 210.426 275.526C210.418 273.777 210.136 273.322 209.059 273.322C208.154 273.322 207.701 272.87 207.701 271.966C207.701 271.062 207.248 270.609 206.344 270.609C205.439 270.609 204.986 270.157 204.986 269.253C204.986 268.349 204.533 267.896 203.629 267.896C202.744 267.896 202.271 267.444 202.271 266.6C202.271 265.013 198.256 264.147 194.126 264.844C192.065 265.192 191.411 265.615 191.411 266.6C191.411 267.444 190.938 267.896 190.053 267.896C189.149 267.896 188.696 268.349 188.696 269.253C188.696 270.157 188.243 270.609 187.338 270.609C186.233 270.609 185.981 271.062 185.981 273.047C185.981 274.913 185.663 275.567 184.623 275.838C183.872 276.035 183.266 276.763 183.266 277.471C183.266 278.276 182.787 278.748 181.968 278.748C180.982 278.748 180.56 279.402 180.211 281.461C179.951 283 179.371 284.174 178.869 284.174C178.384 284.174 177.786 285.242 177.541 286.547C177.274 287.968 176.699 288.921 176.108 288.921C175.508 288.921 175.121 289.585 175.121 290.617C175.121 291.834 174.755 292.312 173.823 292.312C172.837 292.312 172.414 292.966 172.066 295.025C171.785 296.693 171.238 297.738 170.649 297.738C170.122 297.738 169.691 298.348 169.691 299.094C169.691 299.998 169.238 300.451 168.333 300.451C167.202 300.451 166.975 300.903 166.975 303.164C166.975 305.362 166.735 305.877 165.705 305.877C164.747 305.877 164.327 306.545 164 308.589C163.719 310.345 163.209 311.302 162.555 311.302C161.983 311.302 161.545 311.917 161.545 312.722C161.545 313.572 161 314.284 160.188 314.497C159.159 314.766 158.83 315.422 158.83 317.21C158.83 318.959 158.496 319.655 157.537 319.906C156.713 320.121 156.085 321.083 155.809 322.555C155.567 323.846 154.965 324.867 154.448 324.867C153.898 324.867 153.337 325.946 153.072 327.513C152.766 329.326 152.212 330.267 151.316 330.501C150.549 330.702 150.006 331.432 150.006 332.263C150.006 333.045 149.575 333.684 149.048 333.684C148.459 333.684 147.912 334.729 147.631 336.396C147.371 337.929 146.79 339.109 146.293 339.109C145.809 339.109 145.254 339.72 145.058 340.466C144.863 341.212 144.244 341.822 143.682 341.822C143.018 341.822 142.499 342.774 142.201 344.535C141.941 346.068 141.36 347.248 140.863 347.248C140.379 347.248 139.824 347.858 139.628 348.604C139.433 349.35 138.822 349.961 138.271 349.961C137.719 349.961 137.109 350.571 136.913 351.317C136.562 352.661 135.987 352.674 72.352 352.674C17.508 352.674 8.14515 352.813 8.14515 353.631C8.14515 354.22 7.09917 354.766 5.4301 355.047C3.36938 355.395 2.71505 355.818 2.71505 356.803C2.71505 357.647 2.24195 358.099 1.35752 358.099C0.168333 358.099 0 358.552 0 361.75C0 364.831 0.211774 365.457 1.35752 365.756C2.17 365.969 2.71505 366.682 2.71505 367.531C2.71505 368.499 3.14742 368.951 4.07257 368.951C4.97736 368.951 5.4301 369.403 5.4301 370.307C5.4301 371.655 5.88283 371.664 76.3607 371.664C146.839 371.664 147.291 371.655 147.291 370.307C147.291 369.403 147.744 368.951 148.649 368.951C149.554 368.951 150.006 368.499 150.006 367.594C150.006 366.721 150.459 366.238 151.277 366.238C152.235 366.238 152.655 365.57 152.982 363.525C153.263 361.77 153.773 360.812 154.427 360.812C154.999 360.812 155.437 360.197 155.437 359.392C155.437 358.566 155.977 357.831 156.732 357.634C157.444 357.448 158.179 356.714 158.365 356.002C158.551 355.29 159.156 354.708 159.709 354.708C160.322 354.708 160.89 353.78 161.161 352.335C161.406 351.029 162.012 349.961 162.508 349.961C163.029 349.961 163.586 348.852 163.829 347.328C164.127 345.472 164.653 344.591 165.613 344.34C166.43 344.126 166.975 343.415 166.975 342.564C166.975 341.783 167.4 341.144 167.918 341.144C168.458 341.144 169.051 340.13 169.306 338.77C169.573 337.349 170.149 336.396 170.739 336.396C171.289 336.396 171.727 335.767 171.727 334.976C171.727 334.15 172.268 333.415 173.021 333.218C173.834 333.006 174.47 332.049 174.734 330.644C175.005 329.204 175.632 328.282 176.495 328.057C177.291 327.849 177.836 327.131 177.836 326.287C177.836 325.506 178.267 324.867 178.794 324.867C179.383 324.867 179.93 323.822 180.211 322.154C180.56 320.095 180.982 319.441 181.968 319.441C183.03 319.441 183.266 318.947 183.266 316.728C183.266 314.468 183.492 314.015 184.623 314.015C185.528 314.015 185.981 313.563 185.981 312.659C185.981 311.755 186.434 311.302 187.338 311.302C188.47 311.302 188.696 310.85 188.696 308.589C188.696 306.329 188.922 305.877 190.053 305.877C190.958 305.877 191.411 305.424 191.411 304.52C191.411 303.616 191.864 303.164 192.768 303.164C193.673 303.164 194.126 302.711 194.126 301.807C194.126 300.677 194.579 300.451 196.841 300.451C199.103 300.451 199.556 300.677 199.556 301.807C199.556 302.711 200.009 303.164 200.914 303.164C201.818 303.164 202.271 303.616 202.271 304.52C202.271 305.424 202.724 305.877 203.629 305.877C204.835 305.877 204.986 306.329 204.986 309.946C204.986 313.5 205.15 314.015 206.284 314.015C207.27 314.015 207.692 314.669 208.041 316.728C208.322 318.396 208.869 319.441 209.458 319.441C209.985 319.441 210.416 320.051 210.416 320.797C210.416 321.701 210.869 322.154 211.774 322.154C212.91 322.154 213.131 322.606 213.131 324.93C213.131 327.136 213.41 327.78 214.489 328.061C215.341 328.284 215.846 328.986 215.846 329.948C215.846 333.195 216.695 335.604 217.955 335.934C218.7 336.128 219.24 336.866 219.24 337.689C219.24 338.5 219.677 339.109 220.258 339.109C220.974 339.109 221.276 339.832 221.276 341.547C221.276 343.413 221.594 344.067 222.634 344.338C223.624 344.597 223.994 345.268 224.001 346.819C224.015 350.126 224.68 351.839 226.09 352.208C226.844 352.405 227.385 353.14 227.385 353.966C227.385 354.777 227.822 355.387 228.403 355.387C229.12 355.387 229.422 356.109 229.422 357.824C229.422 359.661 229.744 360.345 230.731 360.603C231.628 360.837 232.181 361.779 232.488 363.592C232.737 365.065 233.322 366.238 233.808 366.238C234.679 366.238 235.53 369.093 235.53 372.008C235.53 372.97 236.036 373.673 236.888 373.895C237.7 374.107 238.246 374.82 238.246 375.669C238.246 376.451 238.677 377.09 239.204 377.09C239.793 377.09 240.339 378.135 240.621 379.802C240.887 381.371 241.459 382.515 241.979 382.515C242.499 382.515 243.071 383.659 243.336 385.228C243.602 386.797 244.174 387.941 244.694 387.941C245.214 387.941 245.786 389.085 246.051 390.654C246.317 392.223 246.889 393.367 247.409 393.367C247.929 393.367 248.501 394.511 248.766 396.08C249.024 397.602 249.609 398.793 250.099 398.793C251.016 398.793 251.821 401.683 251.821 404.981C251.821 406.479 252.136 406.931 253.178 406.931C254.31 406.931 254.536 407.383 254.536 409.644C254.536 411.905 254.762 412.357 255.893 412.357C256.889 412.357 257.251 412.809 257.251 414.052C257.251 415.102 257.636 415.748 258.261 415.748C258.914 415.748 259.424 416.706 259.705 418.461C259.965 420.084 260.51 421.174 261.063 421.174C261.615 421.174 262.16 422.264 262.42 423.887C262.747 425.931 263.168 426.599 264.125 426.599C264.824 426.599 265.396 427.057 265.396 427.617C265.396 428.436 266.452 428.634 270.826 428.634H276.256V426.34C276.256 424.615 276.594 423.956 277.614 423.69C278.426 423.478 278.971 422.765 278.971 421.916C278.971 420.948 279.404 420.495 280.329 420.495C281.46 420.495 281.686 420.043 281.686 417.783C281.686 415.522 281.912 415.07 283.044 415.07C284.251 415.07 284.401 414.617 284.401 411C284.401 407.383 284.552 406.931 285.759 406.931C286.966 406.931 287.116 406.479 287.116 402.862C287.116 399.245 287.267 398.793 288.474 398.793C289.681 398.793 289.831 398.34 289.831 394.723C289.831 391.106 289.982 390.654 291.189 390.654C292.32 390.654 292.546 390.202 292.546 387.941C292.546 385.681 292.773 385.228 293.904 385.228C295.111 385.228 295.262 384.776 295.262 381.159C295.262 377.542 295.412 377.09 296.619 377.09C297.751 377.09 297.977 376.637 297.977 374.377C297.977 372.116 298.203 371.664 299.334 371.664C300.541 371.664 300.692 371.211 300.692 367.594C300.692 363.978 300.842 363.525 302.049 363.525C303.164 363.525 303.408 363.07 303.416 360.982C303.429 357.44 304.077 355.387 305.183 355.387C305.879 355.387 306.122 354.32 306.122 351.253C306.122 347.691 306.309 347.072 307.479 346.766C308.508 346.497 308.837 345.841 308.837 344.053C308.837 342.266 309.165 341.609 310.194 341.341C311.328 341.044 311.553 340.411 311.561 337.504C311.573 333.152 312.137 330.971 313.251 330.971C313.752 330.971 314.304 329.694 314.571 327.919C314.854 326.034 315.379 324.867 315.945 324.867C316.486 324.867 317.05 323.754 317.321 322.154C317.603 320.486 318.149 319.441 318.739 319.441C319.366 319.441 319.7 318.679 319.706 317.237C319.72 314.015 320.404 311.981 321.473 311.981C322.134 311.981 322.412 311.075 322.412 308.929C322.412 306.329 322.613 305.877 323.77 305.877C324.812 305.877 325.127 305.424 325.127 303.927C325.127 300.629 325.931 297.738 326.849 297.738C327.339 297.738 327.924 296.548 328.181 295.025C328.463 293.357 329.01 292.312 329.599 292.312C330.202 292.312 330.557 291.589 330.557 290.362C330.557 287.064 331.361 284.174 332.279 284.174C332.769 284.174 333.354 282.983 333.612 281.461C333.882 279.861 334.446 278.748 334.987 278.748C335.554 278.748 336.079 277.581 336.362 275.696C336.652 273.766 337.166 272.644 337.762 272.644C338.299 272.644 338.702 271.954 338.702 271.033C338.702 268.076 339.541 265.183 340.399 265.183C341.286 265.183 342.096 262.268 342.096 259.074C342.096 257.773 342.51 257.095 343.454 256.848C344.494 256.577 344.811 255.923 344.811 254.057C344.811 252.388 345.119 251.619 345.788 251.619C346.425 251.619 346.923 250.558 347.222 248.567C347.487 246.805 348.042 245.515 348.537 245.515C349.439 245.515 350.241 242.603 350.241 239.326C350.241 238.124 350.599 237.376 351.175 237.376C352.145 237.376 352.956 234.556 352.956 231.188C352.956 229.69 353.271 229.238 354.314 229.238C355.445 229.238 355.671 228.785 355.671 226.525C355.671 224.641 355.964 223.812 356.63 223.812C357.219 223.812 357.765 222.767 358.047 221.099C358.304 219.577 358.889 218.386 359.379 218.386C360.297 218.386 361.101 215.496 361.101 212.198C361.101 210.995 361.459 210.248 362.035 210.248C363.005 210.248 363.817 207.427 363.817 204.059C363.817 202.561 364.131 202.109 365.174 202.109C366.306 202.109 366.532 201.657 366.532 199.396C366.532 197.136 366.758 196.683 367.889 196.683C369.107 196.683 369.247 196.231 369.247 192.275C369.247 188.319 369.386 187.867 370.604 187.867C371.797 187.867 371.962 187.414 371.962 184.136C371.962 180.859 372.126 180.406 373.319 180.406C374.451 180.406 374.677 179.954 374.677 177.693C374.677 175.433 374.903 174.98 376.034 174.98C377.241 174.98 377.392 174.528 377.392 170.911C377.392 167.294 377.542 166.842 378.749 166.842C379.906 166.842 380.107 166.389 380.107 163.79C380.107 161.19 380.308 160.738 381.464 160.738C382.596 160.738 382.822 160.285 382.822 158.025C382.822 155.764 383.048 155.312 384.179 155.312C385.386 155.312 385.537 154.86 385.537 151.243C385.537 147.626 385.688 147.173 386.894 147.173C387.937 147.173 388.252 146.721 388.252 145.224C388.252 141.925 389.056 139.035 389.974 139.035C390.464 139.035 391.049 137.845 391.306 136.322C391.572 134.753 392.144 133.609 392.664 133.609C393.184 133.609 393.756 132.465 394.021 130.896C394.303 129.228 394.85 128.183 395.439 128.183C396.042 128.183 396.397 127.46 396.397 126.233C396.397 122.865 397.209 120.045 398.179 120.045C398.819 120.045 399.112 119.172 399.112 117.268C399.112 115.062 399.391 114.419 400.47 114.137C401.322 113.915 401.827 113.212 401.827 112.251C401.827 109.367 402.676 106.48 403.522 106.48C403.988 106.48 404.564 105.26 404.803 103.767C405.084 102.012 405.594 101.055 406.247 101.055C406.977 101.055 407.257 100.284 407.257 98.2779C407.257 96.1307 407.546 95.426 408.533 95.1683C409.53 94.9079 409.91 93.9529 410.264 90.8236C410.587 87.9792 411.005 86.812 411.703 86.812C412.381 86.812 412.687 86.0517 412.687 84.3745C412.687 82.508 413.005 81.8542 414.045 81.5829C414.988 81.336 415.402 80.6578 415.402 79.357C415.402 76.0622 416.223 73.2476 417.184 73.2476C417.76 73.2476 418.117 72.5002 418.117 71.2977C418.117 67.9995 418.922 65.109 419.839 65.109C420.33 65.109 420.915 63.9187 421.172 62.3961C421.454 60.7284 422 59.6832 422.589 59.6832C423.255 59.6832 423.548 58.8544 423.548 56.9704C423.548 54.7655 423.787 54.2575 424.826 54.2575C425.547 54.2575 426.264 53.6471 426.471 52.857C426.774 51.6972 427.283 51.4931 429.434 51.6701C431.901 51.8729 432.043 52.0119 432.243 54.427C432.371 55.9693 432.805 56.9704 433.346 56.9704C434.403 56.9704 435.087 59.9328 435.087 64.5155C435.087 66.869 435.355 67.8219 436.02 67.8219C437.14 67.8219 437.802 70.749 437.802 75.7061C437.802 78.358 438.057 79.3516 438.74 79.3516C440.037 79.3516 440.496 81.5097 440.507 87.6597C440.516 92.4609 440.634 92.9159 441.874 92.9159C443.081 92.9159 443.232 93.3683 443.232 96.9853C443.232 99.9979 443.475 101.055 444.17 101.055C445.389 101.055 445.926 103.169 445.937 108.006C445.945 111.451 446.105 111.906 447.304 111.906C448.586 111.906 448.662 112.358 448.662 120.045C448.662 127.731 448.737 128.183 450.019 128.183C451.226 128.183 451.377 128.636 451.377 132.253C451.377 135.87 451.528 136.322 452.734 136.322C453.985 136.322 454.092 136.774 454.092 142.087C454.092 147.399 454.198 147.852 455.449 147.852C456.712 147.852 456.807 148.304 456.807 154.295C456.807 160.285 456.902 160.738 458.164 160.738C459.432 160.738 459.522 161.19 459.522 167.52C459.522 173.85 459.612 174.302 460.879 174.302C462.016 174.302 462.237 174.755 462.237 177.079C462.237 179.284 462.516 179.928 463.595 180.209C464.791 180.522 464.953 181.139 464.962 185.403C464.972 191.146 465.453 193.292 466.728 193.292C467.454 193.292 467.667 194.601 467.667 199.057C467.667 204.37 467.774 204.822 469.025 204.822C470.196 204.822 470.382 205.274 470.382 208.128C470.382 212.765 471.069 215.673 472.164 215.673C472.74 215.673 473.097 216.421 473.097 217.623C473.097 220.887 473.898 223.812 474.791 223.812C475.356 223.812 475.794 225.612 476.111 229.238C476.463 233.273 476.833 234.664 477.556 234.664C478.261 234.664 478.529 235.546 478.535 237.885C478.546 242.825 479.267 246.193 480.313 246.193C480.958 246.193 481.242 247.101 481.242 249.161C481.242 253.363 481.948 256.367 482.937 256.367C483.501 256.367 483.939 258.167 484.256 261.792C484.592 265.643 484.994 267.218 485.64 267.218C486.292 267.218 486.687 268.852 487.032 272.983C487.357 276.894 487.785 278.748 488.362 278.748C488.897 278.748 489.383 280.254 489.673 282.817C490 285.708 490.419 286.886 491.118 286.886C491.808 286.886 492.103 287.668 492.103 289.5C492.103 294.88 492.972 300.451 493.811 300.451C494.818 300.451 495.496 303.491 495.496 307.996C495.496 310.328 495.768 311.302 496.418 311.302C497.349 311.302 498.211 316.569 498.211 322.253C498.211 324.018 498.514 324.867 499.145 324.867C500.115 324.867 500.926 327.687 500.926 331.055C500.926 332.288 501.281 333.005 501.89 333.005C502.626 333.005 502.968 334.607 503.335 339.787C503.669 344.493 504.075 346.57 504.662 346.57C505.702 346.57 506.357 349.619 506.357 354.454C506.357 357.095 506.614 358.099 507.29 358.099C508.26 358.099 509.072 360.92 509.072 364.288C509.072 365.496 509.429 366.238 510.01 366.238C511.229 366.238 511.766 368.352 511.777 373.19C511.784 376.042 512.037 377.09 512.72 377.09C513.906 377.09 514.502 380.066 514.502 385.991C514.502 390.202 514.633 390.654 515.859 390.654C517.063 390.654 517.217 391.106 517.217 394.644C517.217 398.064 517.411 398.685 518.574 398.989C519.744 399.295 519.932 399.914 519.932 403.476C519.932 406.543 520.174 407.609 520.871 407.609C522.15 407.609 522.626 409.758 522.637 415.578C522.646 420.04 522.772 420.495 524.004 420.495C525.27 420.495 525.362 420.948 525.362 427.198C525.362 433.331 525.477 433.932 526.719 434.257C527.869 434.556 528.077 435.182 528.077 438.326C528.077 441.47 528.285 442.095 529.434 442.395C530.651 442.713 530.792 443.32 530.792 448.239C530.792 453.276 530.904 453.728 532.15 453.728C533.417 453.728 533.507 454.181 533.507 460.51C533.507 466.84 533.597 467.293 534.865 467.293C536.109 467.293 536.222 467.745 536.222 472.718C536.222 477.692 536.335 478.144 537.58 478.144C538.786 478.144 538.937 478.596 538.937 482.213C538.937 485.83 539.088 486.283 540.295 486.283C541.562 486.283 541.652 486.735 541.652 493.065C541.652 499.395 541.742 499.847 543.01 499.847C544.228 499.847 544.367 500.299 544.367 504.255C544.367 508.212 544.506 508.664 545.725 508.664C546.918 508.664 547.082 509.116 547.082 512.394C547.082 515.672 547.247 516.124 548.44 516.124C549.68 516.124 549.798 516.579 549.807 521.381C549.818 527.531 550.277 529.689 551.574 529.689C552.288 529.689 552.512 530.884 552.512 534.691C552.512 540.94 553.089 543.931 554.294 543.931C554.87 543.931 555.227 544.679 555.227 545.881C555.227 549.249 556.039 552.07 557.009 552.07C557.674 552.07 557.942 553.023 557.942 555.376C557.942 560.013 558.629 562.921 559.724 562.921C560.384 562.921 560.66 563.865 560.665 566.143C560.676 570.922 561.401 574.451 562.373 574.451C562.953 574.451 563.387 576.207 563.712 579.877C564.063 583.838 564.448 585.303 565.14 585.303C565.754 585.303 566.091 586.077 566.097 587.507C566.111 590.728 566.794 592.763 567.864 592.763C568.52 592.763 568.803 593.654 568.803 595.715C568.803 601.497 569.648 607.006 570.537 607.006C571.159 607.006 571.534 609.273 571.885 615.144C572.239 621.064 572.609 623.283 573.242 623.283C573.73 623.283 574.316 624.478 574.572 625.996C574.854 627.663 575.4 628.709 575.989 628.709C576.684 628.709 576.948 629.619 576.948 632.015C576.948 636.572 577.63 639.56 578.67 639.56C579.16 639.56 579.745 640.75 580.002 642.273C580.284 643.941 580.83 644.986 581.42 644.986C581.947 644.986 582.378 645.558 582.378 646.258C582.378 647.31 583.022 647.584 586.095 647.838C591.526 648.289 593.917 647.808 593.917 646.266C593.917 645.562 594.348 644.986 594.875 644.986C595.464 644.986 596.011 643.941 596.293 642.273C596.641 640.214 597.064 639.56 598.049 639.56C598.894 639.56 599.347 639.087 599.347 638.204C599.347 637.458 599.773 636.847 600.295 636.847C600.986 636.847 601.372 635.383 601.723 631.421C602.064 627.564 602.467 625.996 603.117 625.996C603.73 625.996 604.182 624.657 604.492 621.926C604.78 619.377 605.269 617.857 605.798 617.857C606.726 617.857 607.492 614.904 607.492 611.329C607.492 609.839 607.818 609.04 608.425 609.04C609.346 609.04 610.207 606.252 610.207 603.27C610.207 602.308 610.713 601.606 611.565 601.383C612.735 601.077 612.922 600.458 612.922 596.896C612.922 593.829 613.165 592.763 613.861 592.763C615.079 592.763 615.616 590.649 615.628 585.811C615.635 582.815 615.871 581.912 616.647 581.912C617.301 581.912 617.811 580.954 618.092 579.199C618.419 577.154 618.839 576.486 619.797 576.486C620.897 576.486 621.067 575.941 621.067 572.416C621.067 568.8 621.218 568.347 622.425 568.347C623.632 568.347 623.782 567.895 623.782 564.278C623.782 560.661 623.933 560.209 625.14 560.209C626.347 560.209 626.497 559.756 626.497 556.139C626.497 552.522 626.648 552.07 627.855 552.07C629.062 552.07 629.213 551.618 629.213 548.001C629.213 544.384 629.363 543.931 630.57 543.931C631.777 543.931 631.928 543.479 631.928 539.862C631.928 536.245 632.078 535.793 633.285 535.793C634.4 535.793 634.644 535.338 634.652 533.249C634.665 529.708 635.313 527.654 636.419 527.654C637.065 527.654 637.358 526.789 637.358 524.877C637.358 522.672 637.637 522.028 638.715 521.747C639.879 521.442 640.073 520.822 640.073 517.401C640.073 513.864 640.227 513.411 641.43 513.411C642.614 513.411 642.789 512.956 642.797 509.851C642.809 505.339 643.37 503.238 644.564 503.238C645.224 503.238 645.503 502.333 645.503 500.186C645.503 497.587 645.704 497.134 646.86 497.134C648.067 497.134 648.218 496.682 648.218 493.065C648.218 489.448 648.369 488.996 649.575 488.996C650.782 488.996 650.933 488.543 650.933 484.926C650.933 481.309 651.084 480.857 652.29 480.857C653.497 480.857 653.648 480.405 653.648 476.788C653.648 473.171 653.799 472.718 655.005 472.718C656.048 472.718 656.363 472.266 656.363 470.768C656.363 467.4 657.175 464.58 658.145 464.58C658.809 464.58 659.078 463.627 659.078 461.273C659.078 456.636 659.765 453.728 660.86 453.728C661.5 453.728 661.793 452.855 661.793 450.952C661.793 448.804 662.082 448.1 663.069 447.842C664.066 447.582 664.446 446.627 664.8 443.497C665.122 440.653 665.541 439.486 666.239 439.486C666.87 439.486 667.223 438.787 667.223 437.536C667.223 434.272 668.024 431.347 668.917 431.347C669.447 431.347 669.935 429.827 670.223 427.278C670.551 424.386 670.969 423.208 671.669 423.208C672.253 423.208 672.653 422.553 672.653 421.598C672.653 418.631 673.494 415.748 674.358 415.748C674.852 415.748 675.408 414.458 675.672 412.696C675.959 410.787 676.478 409.644 677.061 409.644C677.73 409.644 678.122 408.13 678.464 404.218C678.781 400.592 679.218 398.793 679.783 398.793C680.676 398.793 681.477 395.867 681.477 392.604C681.477 391.106 681.792 390.654 682.835 390.654C683.74 390.654 684.192 390.202 684.192 389.297C684.192 388.551 684.618 387.941 685.14 387.941C685.831 387.941 686.217 386.477 686.568 382.515C686.894 378.831 687.325 377.09 687.911 377.09C688.819 377.09 689.622 374.185 689.622 370.901C689.622 369.702 689.981 368.951 690.552 368.951C691.565 368.951 692.318 365.612 692.33 361.061C692.336 358.831 692.615 358.185 693.695 357.903C694.773 357.621 695.052 356.978 695.052 354.772C695.052 352.86 695.345 351.995 695.991 351.995C697.097 351.995 697.745 349.942 697.758 346.4C697.765 344.691 698.076 343.857 698.706 343.857C699.925 343.857 700.461 341.743 700.473 336.905C700.48 334.042 700.732 333.005 701.421 333.005C702.491 333.005 703.174 330.971 703.188 327.749C703.196 326 703.478 325.545 704.555 325.545C705.712 325.545 705.913 325.093 705.913 322.493C705.913 319.893 706.114 319.441 707.27 319.441C708.514 319.441 708.628 318.989 708.628 314.015C708.628 309.042 708.741 308.589 709.985 308.589C711.192 308.589 711.343 308.137 711.343 304.52C711.343 300.903 711.493 300.451 712.7 300.451C713.832 300.451 714.058 299.998 714.058 297.738C714.058 295.477 714.284 295.025 715.415 295.025C716.624 295.025 716.773 294.573 716.773 290.892C716.773 287.33 716.96 286.711 718.13 286.405C719.22 286.12 719.488 285.48 719.488 283.162C719.488 278.919 720.209 276.035 721.27 276.035C721.906 276.035 722.203 275.172 722.203 273.322C722.203 271.062 722.429 270.609 723.56 270.609C724.76 270.609 724.919 270.154 724.927 266.709C724.939 261.872 725.476 259.758 726.694 259.758C727.325 259.758 727.636 258.923 727.643 257.214C727.655 253.673 728.304 251.619 729.409 251.619C730.055 251.619 730.348 250.754 730.348 248.842C730.348 246.637 730.627 245.993 731.706 245.712C732.452 245.516 733.063 244.953 733.063 244.458C733.063 243.129 734.035 242.759 736.325 243.217C737.992 243.55 738.449 244.05 738.801 245.927C739.042 247.21 739.644 248.228 740.161 248.228C740.715 248.228 741.274 249.323 741.548 250.941C741.813 252.51 742.385 253.654 742.905 253.654C743.425 253.654 743.997 254.798 744.263 256.367C744.528 257.935 745.1 259.079 745.62 259.079C746.14 259.079 746.712 260.224 746.978 261.792C747.249 263.392 747.813 264.505 748.354 264.505C748.92 264.505 749.445 265.672 749.728 267.557C750.016 269.473 750.534 270.609 751.12 270.609C751.683 270.609 752.225 271.683 752.487 273.322C752.74 274.906 753.296 276.035 753.821 276.035C754.317 276.035 754.917 277.075 755.156 278.346C755.432 279.819 756.06 280.78 756.884 280.995C757.89 281.259 758.177 281.95 758.177 284.11C758.177 286.434 758.399 286.886 759.535 286.886C760.666 286.886 760.892 287.339 760.892 289.599C760.892 291.86 761.118 292.312 762.25 292.312C763.155 292.312 763.607 292.765 763.607 293.669C763.607 294.415 764.038 295.025 764.566 295.025C765.155 295.025 765.701 296.07 765.983 297.738C766.248 299.307 766.821 300.451 767.341 300.451C767.861 300.451 768.433 301.595 768.698 303.164C769.046 305.223 769.469 305.877 770.455 305.877C771.516 305.877 771.753 306.37 771.753 308.589C771.753 310.85 771.979 311.302 773.11 311.302C774.242 311.302 774.468 311.755 774.468 314.015C774.468 316.276 774.694 316.728 775.825 316.728C776.957 316.728 777.183 317.18 777.183 319.441C777.183 321.701 777.409 322.154 778.54 322.154C779.536 322.154 779.898 322.606 779.898 323.849C779.898 324.881 780.285 325.545 780.885 325.545C781.471 325.545 782.049 326.485 782.307 327.856C782.583 329.329 783.21 330.29 784.034 330.505C784.992 330.756 785.328 331.453 785.328 333.186C785.328 335.506 785.363 335.534 788.891 335.957C790.852 336.192 795.128 336.388 798.394 336.39C803.218 336.395 804.333 336.588 804.333 337.414C804.333 338.305 808.745 338.431 839.968 338.431C871.191 338.431 875.603 338.305 875.603 337.414C875.603 336.523 880.038 336.396 911.408 336.389C931.101 336.385 948.358 336.192 949.758 335.961C951.641 335.65 952.303 335.211 952.303 334.273C952.303 333.576 952.726 333.005 953.242 333.005C954.295 333.005 955 330.967 955 327.919C955 324.913 954.3 322.832 953.29 322.832C952.799 322.832 952.3 322.145 952.181 321.306C952.007 320.08 951.463 319.739 949.419 319.57C947.894 319.444 946.873 319.006 946.873 318.48C946.873 317.772 938.423 317.535 903.602 317.266C845.669 316.818 812.478 317.274 812.478 318.517C812.478 319.22 811.177 319.441 807.048 319.441C802.674 319.441 801.618 319.243 801.618 318.424C801.618 317.859 801.015 317.406 800.261 317.406C799.356 317.406 798.903 316.954 798.903 316.05C798.903 315.146 798.45 314.693 797.546 314.693C796.55 314.693 796.188 314.241 796.188 312.998C796.188 311.755 795.826 311.302 794.83 311.302C793.699 311.302 793.473 310.85 793.473 308.589C793.473 306.329 793.247 305.877 792.115 305.877C790.984 305.877 790.758 305.424 790.758 303.164C790.758 300.903 790.532 300.451 789.4 300.451C788.269 300.451 788.043 299.998 788.043 297.738C788.043 295.477 787.817 295.025 786.685 295.025C785.554 295.025 785.328 294.573 785.328 292.312C785.328 290.052 785.102 289.599 783.97 289.599C782.839 289.599 782.613 289.147 782.613 286.886C782.613 284.626 782.387 284.174 781.255 284.174C780.119 284.174 779.898 283.721 779.898 281.397C779.898 279.237 779.611 278.546 778.604 278.283C777.78 278.068 777.153 277.106 776.876 275.633C776.634 274.343 776.033 273.322 775.515 273.322C774.961 273.322 774.402 272.227 774.128 270.609C773.847 268.941 773.3 267.896 772.711 267.896C772.108 267.896 771.753 267.173 771.753 265.946C771.753 262.296 770.958 259.886 769.644 259.542C768.899 259.347 768.359 258.609 768.359 257.787C768.359 257.005 767.934 256.367 767.416 256.367C766.876 256.367 766.283 255.353 766.028 253.993C765.783 252.687 765.177 251.619 764.681 251.619C764.156 251.619 763.6 250.491 763.347 248.906C763.085 247.267 762.543 246.193 761.98 246.193C761.394 246.193 760.876 245.057 760.588 243.141C760.226 240.731 759.854 240.089 758.815 240.089C757.951 240.089 757.499 239.623 757.499 238.733C757.499 237.987 757.078 237.376 756.565 237.376C755.644 237.376 754.783 234.588 754.783 231.606C754.783 230.644 754.278 229.942 753.426 229.719C752.347 229.438 752.068 228.794 752.068 226.589C752.068 224.264 751.847 223.812 750.711 223.812C749.806 223.812 749.353 223.36 749.353 222.456C749.353 221.71 748.922 221.099 748.395 221.099C747.806 221.099 747.259 220.054 746.978 218.386C746.72 216.864 746.135 215.673 745.645 215.673C744.728 215.673 743.923 212.783 743.923 209.485C743.923 207.987 743.608 207.535 742.566 207.535C741.661 207.535 741.208 207.083 741.208 206.178C741.208 205.274 740.756 204.822 739.851 204.822C738.946 204.822 738.493 204.37 738.493 203.466C738.493 202.712 738.04 202.109 737.475 202.109C736.915 202.109 736.457 201.533 736.457 200.829C736.457 199.287 734.066 198.806 728.635 199.257C725.562 199.511 724.918 199.785 724.918 200.837C724.918 201.537 724.498 202.109 723.985 202.109C723.015 202.109 722.203 204.93 722.203 208.298C722.203 209.795 721.888 210.248 720.845 210.248C719.639 210.248 719.488 210.7 719.488 214.317C719.488 217.934 719.337 218.386 718.13 218.386C716.924 218.386 716.773 218.839 716.773 222.456C716.773 226.073 716.622 226.525 715.415 226.525C714.259 226.525 714.058 226.977 714.058 229.577C714.058 232.177 713.857 232.629 712.7 232.629C711.456 232.629 711.343 233.081 711.343 238.055C711.343 243.028 711.229 243.48 709.985 243.48C708.792 243.48 708.628 243.933 708.628 247.211C708.628 250.488 708.463 250.941 707.27 250.941C706.114 250.941 705.913 251.393 705.913 253.993C705.913 256.592 705.712 257.045 704.555 257.045C703.317 257.045 703.198 257.497 703.198 262.195C703.198 266.775 703.047 267.384 701.84 267.7C700.635 268.014 700.483 268.625 700.483 273.125C700.483 277.626 700.33 278.236 699.125 278.551C698.061 278.829 697.767 279.476 697.767 281.54C697.767 283.721 697.535 284.174 696.41 284.174C695.166 284.174 695.052 284.626 695.052 289.599C695.052 294.573 694.939 295.025 693.695 295.025C692.488 295.025 692.337 295.477 692.337 299.094C692.337 302.711 692.187 303.164 690.98 303.164C689.773 303.164 689.622 303.616 689.622 307.233C689.622 310.85 689.472 311.302 688.265 311.302C687.222 311.302 686.907 311.755 686.907 313.252C686.907 316.62 686.095 319.441 685.126 319.441C684.55 319.441 684.192 320.188 684.192 321.391C684.192 324.759 683.38 327.58 682.41 327.58C681.835 327.58 681.477 328.327 681.477 329.529C681.477 332.897 680.665 335.718 679.695 335.718C679.055 335.718 678.762 336.591 678.762 338.495C678.762 340.7 678.483 341.344 677.405 341.625C676.271 341.922 676.046 342.555 676.038 345.462C676.026 349.862 675.46 351.995 674.305 351.995C673.702 351.995 673.245 353.355 672.938 356.065C672.647 358.637 672.164 360.134 671.624 360.134C671.134 360.134 670.577 361.43 670.313 363.186C670.014 365.177 669.515 366.238 668.879 366.238C668.256 366.238 667.902 366.944 667.902 368.188C667.902 371.473 667.099 374.377 666.191 374.377C665.605 374.377 665.174 376.118 664.848 379.802C664.521 383.486 664.09 385.228 663.504 385.228C662.596 385.228 661.793 388.132 661.793 391.417C661.793 392.644 661.438 393.367 660.835 393.367C660.246 393.367 659.699 394.412 659.417 396.08C659.161 397.597 658.575 398.793 658.088 398.793C657.491 398.793 657.068 400.502 656.743 404.218C656.415 407.976 655.999 409.644 655.387 409.644C654.508 409.644 653.67 413.009 653.655 416.596C653.651 417.747 653.281 418.461 652.69 418.461C652.1 418.461 651.554 419.506 651.272 421.174C651.007 422.745 650.435 423.887 649.913 423.887C649.287 423.887 648.867 425.438 648.536 428.973C648.22 432.34 647.771 434.06 647.208 434.06C646.361 434.06 645.525 437.483 645.51 441.012C645.505 442.144 645.134 442.877 644.564 442.877C643.503 442.877 642.811 444.907 642.797 448.054C642.79 449.604 642.421 450.275 641.43 450.534C640.352 450.815 640.073 451.459 640.073 453.664C640.073 455.989 639.851 456.441 638.715 456.441C637.508 456.441 637.358 456.893 637.358 460.51C637.358 463.511 637.113 464.58 636.424 464.58C635.454 464.58 634.643 467.4 634.643 470.768C634.643 471.971 634.285 472.718 633.709 472.718C632.739 472.718 631.928 475.539 631.928 478.907C631.928 480.405 631.613 480.857 630.57 480.857C629.363 480.857 629.213 481.309 629.213 484.926C629.213 488.543 629.062 488.996 627.855 488.996C626.611 488.996 626.497 489.448 626.497 494.421C626.497 499.395 626.384 499.847 625.14 499.847C623.983 499.847 623.782 500.299 623.782 502.899C623.782 505.499 623.581 505.951 622.425 505.951C621.293 505.951 621.067 506.403 621.067 508.664C621.067 510.924 620.841 511.377 619.71 511.377C618.466 511.377 618.352 511.829 618.352 516.803C618.352 521.776 618.239 522.228 616.995 522.228C615.811 522.228 615.636 522.683 615.628 525.789C615.616 530.3 615.055 532.402 613.861 532.402C613.312 532.402 612.922 533.106 612.922 534.097C612.922 535.34 612.56 535.793 611.565 535.793C610.321 535.793 610.207 536.245 610.207 541.218C610.207 546.192 610.094 546.644 608.85 546.644C607.643 546.644 607.492 547.097 607.492 550.713C607.492 554.33 607.341 554.783 606.135 554.783C604.928 554.783 604.777 555.235 604.777 558.852C604.777 562.469 604.626 562.921 603.42 562.921C602.305 562.921 602.061 563.376 602.052 565.465C602.04 569.006 601.391 571.06 600.286 571.06C599.704 571.06 599.347 571.802 599.347 573.01C599.347 576.273 598.546 579.199 597.653 579.199C597.088 579.199 596.65 580.999 596.333 584.624C595.981 588.659 595.611 590.05 594.888 590.05C594.354 590.05 593.917 590.661 593.917 591.407C593.917 592.562 593.464 592.763 590.862 592.763C588.261 592.763 587.808 592.562 587.808 591.407C587.808 590.661 587.393 590.05 586.884 590.05C585.917 590.05 585.11 585.53 585.099 580.046C585.095 578.062 584.804 577.164 584.164 577.164C583.234 577.164 582.4 573.902 582.385 570.212C582.381 569.072 582.01 568.347 581.43 568.347C580.739 568.347 580.353 566.883 580.002 562.921C579.676 559.237 579.245 557.496 578.659 557.496C577.604 557.496 576.948 554.471 576.948 549.611C576.948 546.96 576.692 545.966 576.009 545.966C574.73 545.966 574.253 543.817 574.242 537.997C574.235 534.282 574.005 533.08 573.299 533.08C572.33 533.08 571.518 530.259 571.518 526.891C571.518 525.689 571.16 524.941 570.584 524.941C569.464 524.941 568.803 522.014 568.803 517.057C568.803 514.405 568.547 513.411 567.864 513.411C566.567 513.411 566.108 511.253 566.097 505.103C566.088 500.302 565.97 499.847 564.73 499.847C563.486 499.847 563.373 499.395 563.373 494.421C563.373 489.448 563.259 488.996 562.015 488.996C560.808 488.996 560.658 488.543 560.658 484.926C560.658 481.926 560.412 480.857 559.724 480.857C558.538 480.857 557.942 477.88 557.942 471.955C557.942 467.745 557.811 467.293 556.585 467.293C555.318 467.293 555.227 466.84 555.227 460.51C555.227 454.181 555.137 453.728 553.87 453.728C552.663 453.728 552.512 453.276 552.512 449.659C552.512 446.042 552.362 445.59 551.155 445.59C549.936 445.59 549.797 445.137 549.797 441.181C549.797 437.88 549.562 436.773 548.859 436.773C547.579 436.773 547.103 434.624 547.092 428.804C547.083 424.342 546.957 423.887 545.725 423.887C544.506 423.887 544.367 423.434 544.367 419.478C544.367 415.522 544.228 415.07 543.01 415.07C541.773 415.07 541.652 414.617 541.652 409.983C541.652 405.349 541.531 404.896 540.295 404.896C539.05 404.896 538.937 404.444 538.937 399.471C538.937 394.497 538.824 394.045 537.58 394.045C536.329 394.045 536.222 393.593 536.222 388.28C536.222 382.968 536.116 382.515 534.865 382.515C533.693 382.515 533.507 382.063 533.507 379.209C533.507 374.572 532.82 371.664 531.725 371.664C531.061 371.664 530.792 370.711 530.792 368.357C530.792 363.72 530.105 360.812 529.01 360.812C528.309 360.812 528.077 359.654 528.077 356.15C528.077 350.225 527.481 347.248 526.295 347.248C525.631 347.248 525.362 346.295 525.362 343.942C525.362 339.305 524.675 336.396 523.58 336.396C522.92 336.396 522.645 335.452 522.639 333.175C522.628 328.235 521.907 324.867 520.861 324.867C520.202 324.867 519.932 323.907 519.932 321.56C519.932 316.923 519.245 314.015 518.15 314.015C517.486 314.015 517.217 313.062 517.217 310.709C517.217 306.072 516.53 303.164 515.435 303.164C514.859 303.164 514.502 302.416 514.502 301.214C514.502 297.929 513.699 295.025 512.791 295.025C512.205 295.025 511.774 293.283 511.447 289.599C511.125 285.959 510.687 284.174 510.116 284.174C509.24 284.174 508.393 278.624 508.393 272.883C508.393 270.83 508.108 269.931 507.46 269.931C506.529 269.931 505.678 267.137 505.678 264.081C505.678 263.17 505.274 262.471 504.749 262.471C503.703 262.471 502.982 259.103 502.97 254.162C502.965 251.885 502.689 250.941 502.029 250.941C500.935 250.941 500.248 248.033 500.248 243.396C500.248 241.042 499.979 240.089 499.314 240.089C498.22 240.089 497.533 237.181 497.533 232.544C497.533 230.191 497.264 229.238 496.599 229.238C495.629 229.238 494.818 226.417 494.818 223.049C494.818 221.859 494.459 221.099 493.896 221.099C492.89 221.099 492.103 215.733 492.103 208.871C492.103 205.55 491.904 204.928 490.745 204.625C489.538 204.31 489.388 203.7 489.388 199.121C489.388 195.203 489.164 193.971 488.454 193.971C487.449 193.971 486.672 191.126 486.672 187.443C486.672 185.964 486.345 185.154 485.749 185.154C484.787 185.154 483.974 180.639 483.963 175.229C483.959 172.999 483.68 172.353 482.6 172.071C481.384 171.753 481.242 171.146 481.242 166.227C481.242 162.005 481.026 160.738 480.304 160.738C479.198 160.738 478.55 158.684 478.537 155.142C478.531 153.441 478.218 152.599 477.594 152.599C476.499 152.599 475.812 149.691 475.812 145.054C475.812 142.701 475.543 141.748 474.879 141.748C473.693 141.748 473.097 138.771 473.097 132.846C473.097 128.636 472.966 128.183 471.74 128.183C470.533 128.183 470.382 127.731 470.382 124.114C470.382 120.497 470.231 120.045 469.025 120.045C467.78 120.045 467.667 119.592 467.667 114.619C467.667 109.646 467.554 109.193 466.31 109.193C465.059 109.193 464.952 108.741 464.952 103.428C464.952 98.9724 464.739 97.6635 464.013 97.6635C462.734 97.6635 462.257 95.5149 462.247 89.6944C462.238 85.2324 462.111 84.7773 460.879 84.7773C459.635 84.7773 459.522 84.3249 459.522 79.3516C459.522 74.3782 459.409 73.9258 458.164 73.9258C456.92 73.9258 456.807 73.4734 456.807 68.5001C456.807 63.5267 456.694 63.0743 455.449 63.0743C454.178 63.0743 454.092 62.622 454.092 55.953C454.092 49.2841 454.006 48.8317 452.734 48.8317C451.49 48.8317 451.377 48.3794 451.377 43.406C451.377 38.4326 451.263 37.9802 450.019 37.9802C448.848 37.9802 448.662 37.5279 448.662 34.6739C448.662 30.0369 447.975 27.1287 446.88 27.1287C446.197 27.1287 445.944 26.0816 445.937 23.229C445.926 18.3913 445.389 16.2772 444.17 16.2772C443.474 16.2772 443.232 15.2111 443.232 12.1442C443.232 8.58218 443.044 7.96297 441.874 7.65709C440.863 7.39259 440.517 6.732 440.517 5.06698C440.517 2.98824 440.327 2.80036 437.802 2.37376C436.133 2.0923 435.087 1.54633 435.087 0.957636C435.087 0.239403 434.069 0 431.014 0C427.74 0 426.941 0.212278 426.941 1.08108ZM714.058 105.124C714.058 106.254 713.605 106.48 711.343 106.48H708.628V114.619C708.628 122.305 708.552 122.758 707.27 122.758C706.063 122.758 705.913 123.21 705.913 126.827C705.913 130.444 706.063 130.896 707.27 130.896C708.552 130.896 708.628 131.349 708.628 139.035C708.628 146.721 708.703 147.173 709.985 147.173C710.89 147.173 711.343 147.626 711.343 148.53C711.343 149.772 711.795 149.886 716.693 149.886C721.474 149.886 722.083 149.742 722.4 148.53C722.595 147.784 723.211 147.173 723.768 147.173C725.162 147.173 725.313 144.347 725.017 123.781L724.768 106.48H722.128C719.941 106.48 719.488 106.248 719.488 105.124C719.488 103.993 719.035 103.767 716.773 103.767C714.511 103.767 714.058 103.993 714.058 105.124ZM634.643 143.104C634.643 144.008 634.19 144.461 633.285 144.461C632.38 144.461 631.928 144.913 631.928 145.817C631.928 146.721 631.475 147.173 630.57 147.173C629.439 147.173 629.213 147.626 629.213 149.886C629.213 152.147 628.986 152.599 627.855 152.599C626.611 152.599 626.497 153.052 626.497 158.025C626.497 162.998 626.384 163.451 625.14 163.451C623.983 163.451 623.782 163.903 623.782 166.503C623.782 169.102 623.581 169.555 622.425 169.555C621.232 169.555 621.067 170.007 621.067 173.285C621.067 176.563 620.903 177.015 619.71 177.015C618.491 177.015 618.352 177.467 618.352 181.423C618.352 185.38 618.213 185.832 616.995 185.832C615.811 185.832 615.636 186.287 615.628 189.393C615.616 193.904 615.055 196.005 613.861 196.005C613.312 196.005 612.922 196.709 612.922 197.701C612.922 198.944 612.56 199.396 611.565 199.396C610.393 199.396 610.207 199.849 610.207 202.703C610.207 207.34 609.52 210.248 608.425 210.248C607.85 210.248 607.492 210.995 607.492 212.198C607.492 215.566 606.68 218.386 605.71 218.386C605.135 218.386 604.777 219.134 604.777 220.336C604.777 223.704 603.965 226.525 602.995 226.525C602.355 226.525 602.062 227.398 602.062 229.302C602.062 231.507 601.783 232.151 600.704 232.432C599.555 232.733 599.347 233.357 599.347 236.502C599.347 239.586 599.127 240.274 598.052 240.555C597.34 240.74 596.605 241.475 596.419 242.186C595.921 244.088 591.22 244.037 590.72 242.124C590.524 241.378 589.961 240.768 589.468 240.768C588.924 240.768 588.389 239.563 588.112 237.716C587.847 235.954 587.292 234.664 586.797 234.664C585.895 234.664 585.093 231.751 585.093 228.475C585.093 227.272 584.735 226.525 584.16 226.525C583.19 226.525 582.378 223.704 582.378 220.336C582.378 219.109 582.023 218.386 581.42 218.386C580.83 218.386 580.284 217.341 580.002 215.673C579.745 214.151 579.16 212.961 578.67 212.961C577.752 212.961 576.948 210.07 576.948 206.772C576.948 205.545 576.593 204.822 575.989 204.822C575.4 204.822 574.854 203.777 574.572 202.109C574.29 200.441 573.744 199.396 573.155 199.396C572.627 199.396 572.196 198.786 572.196 198.04C572.196 197.115 571.744 196.683 570.775 196.683C569.925 196.683 569.212 196.139 569 195.327C568.695 194.164 568.074 193.971 564.651 193.971C561.11 193.971 560.658 194.124 560.658 195.327C560.658 196.231 560.205 196.683 559.3 196.683C558.169 196.683 557.942 197.136 557.942 199.396C557.942 201.356 557.659 202.109 556.924 202.109C556.364 202.109 555.906 202.567 555.906 203.126C555.906 203.686 556.364 204.144 556.924 204.144C557.628 204.144 557.942 204.85 557.942 206.433C557.942 210.029 558.711 212.961 559.654 212.961C560.239 212.961 560.67 214.702 560.997 218.386C561.323 222.064 561.755 223.812 562.338 223.812C562.817 223.812 563.392 225.014 563.633 226.525C563.893 228.148 564.438 229.238 564.991 229.238C565.543 229.238 566.088 230.328 566.348 231.951C566.629 233.706 567.139 234.664 567.793 234.664C568.44 234.664 568.805 235.333 568.81 236.529C568.824 240.089 569.663 243.48 570.531 243.48C571.12 243.48 571.556 245.126 571.879 248.567C572.204 252.032 572.636 253.654 573.235 253.654C573.731 253.654 574.313 254.835 574.572 256.367C574.854 258.034 575.4 259.079 575.989 259.079C576.593 259.079 576.948 259.802 576.948 261.029C576.948 264.291 577.749 267.218 578.641 267.218C579.484 267.218 580.32 270.649 580.334 274.17C580.339 275.366 580.704 276.035 581.352 276.035C582.005 276.035 582.515 276.993 582.796 278.748C583.058 280.384 583.6 281.461 584.162 281.461C584.674 281.461 585.093 281.947 585.093 282.542C585.093 283.136 585.704 283.782 586.45 283.977C587.202 284.174 587.808 284.902 587.808 285.609C587.808 286.755 588.374 286.886 593.302 286.886C598.224 286.886 598.832 286.745 599.15 285.53C599.346 284.784 599.901 284.174 600.385 284.174C600.882 284.174 601.463 282.993 601.723 281.461C601.98 279.938 602.565 278.748 603.055 278.748C603.973 278.748 604.777 275.857 604.777 272.559C604.777 271.357 605.135 270.609 605.71 270.609C606.68 270.609 607.492 267.788 607.492 264.42C607.492 263.218 607.85 262.471 608.425 262.471C609.387 262.471 610.207 259.656 610.207 256.361C610.207 255.06 610.621 254.382 611.565 254.135C612.643 253.854 612.922 253.21 612.922 251.005C612.922 249.093 613.215 248.228 613.861 248.228C614.967 248.228 615.615 246.174 615.628 242.633C615.636 240.544 615.88 240.089 616.995 240.089C618.126 240.089 618.352 239.637 618.352 237.376C618.352 235.116 618.578 234.664 619.71 234.664C620.917 234.664 621.067 234.211 621.067 230.594C621.067 226.977 621.218 226.525 622.425 226.525C623.632 226.525 623.782 226.073 623.782 222.456C623.782 218.839 623.933 218.386 625.14 218.386C626.347 218.386 626.497 217.934 626.497 214.317C626.497 210.7 626.648 210.248 627.855 210.248C629.062 210.248 629.213 209.795 629.213 206.178C629.213 202.561 629.363 202.109 630.57 202.109C631.777 202.109 631.928 201.657 631.928 198.04C631.928 194.423 632.078 193.971 633.285 193.971C634.442 193.971 634.643 193.518 634.643 190.919C634.643 188.319 634.844 187.867 636 187.867C636.905 187.867 637.358 187.414 637.358 186.51C637.358 185.606 637.81 185.154 638.715 185.154C639.469 185.154 640.073 184.701 640.073 184.136C640.073 183.571 640.676 183.119 641.43 183.119C642.184 183.119 642.788 183.571 642.788 184.136C642.788 184.701 643.391 185.154 644.145 185.154C645.235 185.154 645.503 185.606 645.503 187.443C645.503 191.018 646.269 193.971 647.197 193.971C647.726 193.971 648.214 195.49 648.503 198.04C648.815 200.797 649.262 202.109 649.889 202.109C650.439 202.109 650.999 203.209 651.272 204.822C651.538 206.391 652.11 207.535 652.63 207.535C653.15 207.535 653.722 208.679 653.987 210.248C654.253 211.816 654.825 212.961 655.345 212.961C655.865 212.961 656.437 214.105 656.702 215.673C657.133 218.219 657.304 218.386 659.477 218.386C661.34 218.386 661.793 218.652 661.793 219.743C661.793 220.738 662.246 221.099 663.49 221.099C664.734 221.099 665.187 220.738 665.187 219.743C665.187 218.645 665.64 218.386 667.563 218.386C669.485 218.386 669.938 218.128 669.938 217.03C669.938 216.126 670.391 215.673 671.296 215.673C672.54 215.673 672.653 215.221 672.653 210.248C672.653 206.096 672.434 204.822 671.72 204.822C670.75 204.822 669.938 202.001 669.938 198.633C669.938 197.431 669.581 196.683 669.005 196.683C668.035 196.683 667.223 193.863 667.223 190.495C667.223 189.268 666.868 188.545 666.265 188.545C665.676 188.545 665.129 187.5 664.848 185.832C664.59 184.309 664.005 183.119 663.515 183.119C662.597 183.119 661.793 180.228 661.793 176.93C661.793 175.728 661.435 174.98 660.86 174.98C659.899 174.98 659.078 172.166 659.078 168.871C659.078 167.57 658.664 166.892 657.721 166.645C656.908 166.433 656.363 165.72 656.363 164.871C656.363 164.09 655.943 163.451 655.43 163.451C654.46 163.451 653.648 160.63 653.648 157.262C653.648 155.988 653.298 155.312 652.638 155.312C651.984 155.312 651.475 154.354 651.194 152.599C650.866 150.554 650.446 149.886 649.488 149.886C648.459 149.886 648.218 149.372 648.218 147.173C648.218 144.913 647.992 144.461 646.86 144.461C646.114 144.461 645.503 144.038 645.503 143.523C645.503 142.305 643.387 141.769 638.545 141.757C635.092 141.749 634.643 141.904 634.643 143.104ZM437.802 381.159C437.802 382.043 437.349 382.515 436.504 382.515C435.518 382.515 435.095 383.169 434.747 385.228C434.465 386.896 433.919 387.941 433.33 387.941C432.522 387.941 432.371 391.829 432.371 412.696C432.371 433.248 432.53 437.451 433.305 437.451C434.226 437.451 435.087 440.239 435.087 443.221C435.087 444.183 435.592 444.886 436.444 445.108C437.191 445.303 437.802 445.922 437.802 446.483C437.802 447.784 442.237 448.589 445.947 447.963C448.007 447.615 448.662 447.193 448.662 446.208C448.662 445.364 449.135 444.911 450.019 444.911C451.356 444.911 451.377 444.459 451.377 415.07C451.377 385.681 451.356 385.228 450.019 385.228C449.115 385.228 448.662 384.776 448.662 383.872C448.662 382.968 448.209 382.515 447.304 382.515C446.399 382.515 445.947 382.063 445.947 381.159C445.947 379.953 445.494 379.802 441.874 379.802C438.254 379.802 437.802 379.953 437.802 381.159ZM727.633 416.706C727.633 417.294 726.587 417.84 724.918 418.122C722.857 418.47 722.203 418.892 722.203 419.877C722.203 420.59 721.745 421.174 721.185 421.174C720.45 421.174 720.167 421.927 720.167 423.887C720.167 425.846 720.45 426.599 721.185 426.599C721.959 426.599 722.205 427.451 722.212 430.16C722.224 434.672 722.785 436.773 723.979 436.773C724.528 436.773 724.918 437.477 724.918 438.468C724.918 439.711 725.28 440.164 726.275 440.164C727.318 440.164 727.633 440.616 727.633 442.114C727.633 445.377 728.434 448.302 729.327 448.302C729.857 448.302 730.345 449.822 730.633 452.372C730.945 455.129 731.393 456.441 732.019 456.441C732.569 456.441 733.13 457.54 733.402 459.154C733.668 460.723 734.24 461.867 734.76 461.867C735.28 461.867 735.852 463.011 736.118 464.58C736.375 466.102 736.96 467.293 737.45 467.293C738.368 467.293 739.172 470.183 739.172 473.481C739.172 474.708 739.527 475.431 740.13 475.431C740.72 475.431 741.266 476.476 741.548 478.144C741.813 479.713 742.385 480.857 742.905 480.857C743.425 480.857 743.997 482.001 744.263 483.57C744.528 485.139 745.1 486.283 745.62 486.283C746.14 486.283 746.712 487.427 746.978 488.996C747.243 490.564 747.815 491.708 748.335 491.708C748.855 491.708 749.427 492.853 749.693 494.421C749.958 495.99 750.53 497.134 751.05 497.134C751.565 497.134 752.139 498.257 752.394 499.764C752.824 502.308 752.941 502.405 755.995 502.749C760.678 503.277 763.607 502.647 763.607 501.115C763.607 500.417 764.032 499.847 764.55 499.847C765.084 499.847 765.68 498.851 765.924 497.548C766.205 496.052 766.824 495.127 767.697 494.899C768.493 494.691 769.038 493.972 769.038 493.129C769.038 492.324 769.475 491.708 770.048 491.708C770.701 491.708 771.211 490.751 771.492 488.996C771.819 486.951 772.239 486.283 773.197 486.283C774.227 486.283 774.468 485.769 774.468 483.57C774.468 481.309 774.694 480.857 775.825 480.857C776.73 480.857 777.183 480.405 777.183 479.501C777.183 478.754 777.614 478.144 778.141 478.144C778.73 478.144 779.277 477.099 779.558 475.431C779.907 473.372 780.329 472.718 781.315 472.718C782.377 472.718 782.613 472.225 782.613 470.005C782.613 467.745 782.839 467.293 783.97 467.293C785.102 467.293 785.328 466.84 785.328 464.58C785.328 462.319 785.554 461.867 786.685 461.867C787.681 461.867 788.043 461.414 788.043 460.171C788.043 459.14 788.43 458.476 789.03 458.476C789.621 458.476 790.197 457.523 790.463 456.102L790.909 453.728H794.906H798.903V456.102C798.903 458.023 799.162 458.476 800.261 458.476C801.256 458.476 801.618 458.928 801.618 460.171C801.618 461.414 801.98 461.867 802.976 461.867C804.107 461.867 804.333 462.319 804.333 464.58C804.333 466.799 804.569 467.293 805.631 467.293C806.616 467.293 807.039 467.946 807.388 470.005C807.669 471.673 808.216 472.718 808.805 472.718C809.332 472.718 809.763 473.329 809.763 474.075C809.763 474.979 810.216 475.431 811.121 475.431C812.046 475.431 812.478 475.884 812.478 476.851C812.478 477.677 813.019 478.413 813.772 478.609C814.585 478.822 815.222 479.779 815.486 481.184C815.756 482.624 816.383 483.545 817.247 483.771C817.984 483.963 818.587 484.572 818.587 485.123C818.587 485.674 819.198 486.284 819.945 486.479C820.691 486.674 821.302 487.32 821.302 487.914C821.302 488.808 822.187 488.996 826.393 488.996C831.031 488.996 831.484 488.875 831.484 487.639C831.484 486.735 831.936 486.283 832.841 486.283C833.746 486.283 834.199 485.83 834.199 484.926C834.199 484.043 834.651 483.57 835.496 483.57C836.482 483.57 836.905 482.916 837.253 480.857C837.518 479.288 838.091 478.144 838.611 478.144C839.131 478.144 839.703 477 839.968 475.431C840.234 473.862 840.806 472.718 841.326 472.718C841.846 472.718 842.418 471.574 842.683 470.005C843.031 467.946 843.454 467.293 844.44 467.293C845.285 467.293 845.738 466.82 845.738 465.936C845.738 465.19 846.169 464.58 846.696 464.58C847.285 464.58 847.832 463.535 848.113 461.867C848.379 460.298 848.951 459.154 849.471 459.154C849.991 459.154 850.563 458.01 850.828 456.441C851.094 454.872 851.666 453.728 852.186 453.728C852.706 453.728 853.278 452.584 853.543 451.015C853.892 448.956 854.314 448.302 855.3 448.302C856.355 448.302 856.598 447.81 856.598 445.669C856.598 443.605 856.892 442.958 857.955 442.68C858.768 442.468 859.313 441.755 859.313 440.906C859.313 440.115 859.751 439.486 860.3 439.486C860.886 439.486 861.464 438.546 861.722 437.174C861.998 435.702 862.625 434.74 863.449 434.525C864.456 434.262 864.743 433.571 864.743 431.411C864.743 429.491 865.034 428.634 865.688 428.634C866.207 428.634 866.817 427.901 867.041 427.005C867.618 424.711 866.789 421.174 865.676 421.174C865.163 421.174 864.743 420.535 864.743 419.754C864.743 418.904 864.198 418.192 863.385 417.979C862.639 417.784 862.028 417.202 862.028 416.686C862.028 415.994 860.982 415.748 858.035 415.748C854.612 415.748 853.991 415.942 853.686 417.104C853.491 417.85 852.844 418.461 852.25 418.461C851.654 418.461 851.168 418.947 851.168 419.542C851.168 420.136 850.585 420.775 849.874 420.961C849.05 421.176 848.423 422.137 848.147 423.61C847.908 424.881 847.307 425.921 846.811 425.921C846.286 425.921 845.73 427.05 845.477 428.634C845.217 430.257 844.672 431.347 844.119 431.347C843.567 431.347 843.022 432.437 842.762 434.06C842.5 435.699 841.958 436.773 841.395 436.773C840.809 436.773 840.291 437.909 840.003 439.825C839.705 441.815 839.206 442.877 838.569 442.877C838.032 442.877 837.592 443.487 837.592 444.233C837.592 445.137 837.14 445.59 836.235 445.59C835.129 445.59 834.877 446.042 834.877 448.027C834.877 449.864 834.555 450.548 833.568 450.806C832.671 451.04 832.118 451.982 831.811 453.795L831.364 456.441H827.351C823.791 456.441 823.338 456.288 823.338 455.085C823.338 454.181 822.886 453.728 821.981 453.728C821.104 453.728 820.623 453.276 820.623 452.451C820.623 451.744 820.017 451.015 819.266 450.819C818.226 450.547 817.908 449.894 817.908 448.027C817.908 446.042 817.657 445.59 816.551 445.59C815.555 445.59 815.193 445.137 815.193 443.894C815.193 442.862 814.806 442.198 814.206 442.198C813.615 442.198 813.04 441.246 812.773 439.825C812.45 438.107 811.973 437.451 811.045 437.451C810.13 437.451 809.763 436.965 809.763 435.755C809.763 434.764 809.374 434.06 808.824 434.06C808.308 434.06 807.726 433.449 807.53 432.703C807.335 431.957 806.724 431.347 806.173 431.347C805.621 431.347 805.011 430.737 804.815 429.991C804.62 429.245 803.988 428.634 803.409 428.634C802.75 428.634 802.196 427.768 801.922 426.309C801.534 424.241 801.191 423.934 798.837 423.536C797.219 423.263 796.188 422.716 796.188 422.131C796.188 421.466 795.359 421.174 793.473 421.174C791.587 421.174 790.758 421.466 790.758 422.131C790.758 422.72 789.712 423.266 788.043 423.547C785.479 423.98 785.328 424.138 785.328 426.384C785.328 428.191 785.002 428.846 783.97 429.116C783.219 429.312 782.613 430.041 782.613 430.748C782.613 431.573 782.132 432.025 781.255 432.025C780.124 432.025 779.898 432.478 779.898 434.738C779.898 436.999 779.672 437.451 778.54 437.451C777.409 437.451 777.183 437.903 777.183 440.164C777.183 442.424 776.957 442.877 775.825 442.877C774.694 442.877 774.468 443.329 774.468 445.59C774.468 447.85 774.242 448.302 773.11 448.302C772.004 448.302 771.753 448.755 771.753 450.74C771.753 452.577 771.43 453.261 770.443 453.519C769.547 453.753 768.993 454.695 768.687 456.508C768.43 458.027 767.856 459.154 767.341 459.154C766.821 459.154 766.248 460.298 765.983 461.867C765.701 463.535 765.155 464.58 764.566 464.58C764.038 464.58 763.607 465.19 763.607 465.936C763.607 467.139 763.155 467.293 759.62 467.293C755.696 467.293 755.625 467.258 755.208 465.173C754.974 464.007 754.783 462.176 754.783 461.104C754.783 459.901 754.426 459.154 753.85 459.154C752.889 459.154 752.068 456.339 752.068 453.045C752.068 451.744 751.654 451.065 750.711 450.819C749.898 450.606 749.353 449.894 749.353 449.044C749.353 448.263 748.93 447.624 748.415 447.624C747.345 447.624 746.661 445.59 746.648 442.368C746.64 440.619 746.358 440.164 745.281 440.164C744.124 440.164 743.923 439.711 743.923 437.112C743.923 434.862 743.658 434.06 742.913 434.06C742.26 434.06 741.75 433.102 741.469 431.347C741.216 429.763 740.66 428.634 740.134 428.634C739.639 428.634 739.033 427.566 738.788 426.26C738.465 424.542 737.988 423.887 737.06 423.887C736.023 423.887 735.778 423.383 735.778 421.249C735.778 418.772 735.634 418.585 733.402 418.167C731.98 417.9 731.027 417.325 731.027 416.735C731.027 416.135 730.362 415.748 729.33 415.748C728.321 415.748 727.633 416.137 727.633 416.706ZM342.096 438.532C342.096 439.126 341.485 439.772 340.739 439.967C339.987 440.164 339.381 440.892 339.381 441.6C339.381 442.424 338.901 442.877 338.024 442.877C336.981 442.877 336.666 443.329 336.666 444.827C336.666 448.125 335.862 451.015 334.944 451.015C334.454 451.015 333.869 452.206 333.612 453.728C333.33 455.396 332.783 456.441 332.194 456.441C331.567 456.441 331.233 457.203 331.226 458.645C331.214 461.794 330.536 463.901 329.537 463.901C329.036 463.901 328.484 465.179 328.217 466.953C327.937 468.817 327.406 470.005 326.853 470.005C326.213 470.005 325.806 471.599 325.466 475.431C325.132 479.203 324.715 480.857 324.098 480.857C323.591 480.857 323.013 482.021 322.751 483.57C322.47 485.238 321.923 486.283 321.334 486.283C320.665 486.283 320.376 487.12 320.376 489.059C320.376 491.236 320.091 491.91 319.059 492.18C317.95 492.469 317.668 493.37 317.274 497.881C316.94 501.715 316.544 503.238 315.884 503.238C315.333 503.238 314.787 504.329 314.527 505.951C314.289 507.445 313.71 508.664 313.241 508.664C312.772 508.664 312.229 509.274 312.034 510.02C311.752 511.098 311.108 511.377 308.901 511.377C306.574 511.377 306.122 511.156 306.122 510.02C306.122 509.116 305.669 508.664 304.764 508.664C303.557 508.664 303.407 508.212 303.407 504.595C303.407 500.978 303.256 500.525 302.049 500.525C301.053 500.525 300.692 500.073 300.692 498.83C300.692 497.838 300.302 497.134 299.753 497.134C298.647 497.134 297.999 495.081 297.986 491.539C297.978 489.451 297.734 488.996 296.619 488.996C295.412 488.996 295.262 488.543 295.262 484.926C295.262 481.309 295.111 480.857 293.904 480.857C292.773 480.857 292.546 480.405 292.546 478.144C292.546 475.884 292.32 475.431 291.189 475.431C290.057 475.431 289.831 474.979 289.831 472.718V470.005H287.116C284.854 470.005 284.401 469.78 284.401 468.649C284.401 467.518 283.949 467.293 281.686 467.293C279.424 467.293 278.971 467.518 278.971 468.649C278.971 469.553 278.519 470.005 277.614 470.005C276.709 470.005 276.256 470.458 276.256 471.362C276.256 472.266 275.803 472.718 274.899 472.718C273.654 472.718 273.541 473.171 273.541 478.144C273.541 483.117 273.654 483.57 274.899 483.57C276.03 483.57 276.256 484.022 276.256 486.283C276.256 488.543 276.482 488.996 277.614 488.996C278.858 488.996 278.971 489.448 278.971 494.421C278.971 499.395 279.085 499.847 280.329 499.847C281.485 499.847 281.686 500.299 281.686 502.899C281.686 505.499 281.887 505.951 283.044 505.951C284.175 505.951 284.401 506.403 284.401 508.664C284.401 510.924 284.627 511.377 285.759 511.377C286.966 511.377 287.116 511.829 287.116 515.446C287.116 519.063 287.267 519.515 288.474 519.515C289.667 519.515 289.831 519.968 289.831 523.246C289.831 526.523 289.996 526.976 291.189 526.976C292.303 526.976 292.548 527.431 292.556 529.519C292.569 533.061 293.217 535.114 294.323 535.114C294.872 535.114 295.262 535.818 295.262 536.81C295.262 538.053 295.623 538.506 296.619 538.506C297.696 538.506 297.979 538.961 297.986 540.71C297.999 543.858 298.676 545.966 299.676 545.966C300.176 545.966 300.729 547.243 300.996 549.018C301.449 552.041 301.479 552.07 304.127 552.07C306.348 552.07 306.8 552.3 306.8 553.426C306.8 554.524 307.253 554.783 309.176 554.783C311.099 554.783 311.552 554.524 311.552 553.426C311.552 552.431 312.005 552.07 313.249 552.07C314.493 552.07 314.946 551.708 314.946 550.713C314.946 549.96 315.398 549.357 315.964 549.357C316.529 549.357 316.982 548.754 316.982 548.001C316.982 547.097 317.435 546.644 318.339 546.644C319.471 546.644 319.697 546.192 319.697 543.931C319.697 541.671 319.923 541.218 321.054 541.218C322.226 541.218 322.412 540.766 322.412 537.912C322.412 533.355 323.094 530.367 324.134 530.367C324.624 530.367 325.209 529.177 325.466 527.654C325.732 526.085 326.304 524.941 326.824 524.941C327.344 524.941 327.916 523.797 328.181 522.228C328.463 520.561 329.01 519.515 329.599 519.515C330.235 519.515 330.557 518.746 330.557 517.226C330.557 513.543 331.334 510.699 332.339 510.699C332.938 510.699 333.276 509.908 333.282 508.494C333.295 505.346 333.972 503.238 334.971 503.238C335.472 503.238 336.025 501.961 336.291 500.186C336.574 498.301 337.1 497.134 337.666 497.134C338.207 497.134 338.771 496.021 339.042 494.421C339.323 492.754 339.87 491.708 340.459 491.708C341.062 491.708 341.417 490.985 341.417 489.759C341.417 486.492 342.218 483.57 343.114 483.57C344.01 483.57 344.811 480.648 344.811 477.381C344.811 476.154 345.166 475.431 345.77 475.431C346.359 475.431 346.905 474.386 347.187 472.718C347.444 471.196 348.029 470.005 348.519 470.005C349.437 470.005 350.241 467.115 350.241 463.817C350.241 462.614 350.599 461.867 351.175 461.867C352.145 461.867 352.956 459.046 352.956 455.678C352.956 454.181 353.271 453.728 354.314 453.728C355.581 453.728 355.671 453.276 355.671 446.946C355.671 440.515 355.598 440.164 354.25 440.164C353.4 440.164 352.687 439.619 352.474 438.807C352.159 437.606 351.549 437.451 347.107 437.451C342.974 437.451 342.096 437.64 342.096 438.532Z" fill="black"/>
</svg>
