<svg width="967" height="699" viewBox="0 0 967 699" fill="none" xmlns="http://www.w3.org/2000/svg">
<path fill-rule="evenodd" clip-rule="evenodd" d="M884.137 1.38416C883.936 2.15029 883.193 2.76831 882.471 2.76831C881.755 2.76831 881.167 3.22161 881.167 3.77528C881.167 4.37254 880.208 4.96152 878.809 5.22451C877.306 5.50618 876.324 6.14565 876.105 6.98583C875.904 7.75335 875.154 8.30494 874.311 8.30494C873.503 8.30494 872.861 8.75132 872.861 9.3119C872.861 9.91401 871.889 10.5009 870.438 10.7729C869.051 11.0331 868.016 11.638 868.016 12.1882C868.016 12.7169 867.393 13.1495 866.631 13.1495C865.729 13.1495 865.247 13.6111 865.247 14.4727C865.247 15.4776 864.58 15.9088 862.478 16.2638C860.907 16.5296 859.709 17.1206 859.709 17.6321C859.709 18.1269 858.619 18.7366 857.287 18.9865C855.837 19.2585 854.864 19.8453 854.864 20.4474C854.864 21.008 854.222 21.4544 853.415 21.4544C852.548 21.4544 851.82 22.0102 851.604 22.8386C851.332 23.8788 850.66 24.2227 848.899 24.2227C847.019 24.2227 846.558 24.4954 846.558 25.6069C846.558 26.5294 846.096 26.9911 845.173 26.9911C844.412 26.9911 843.789 27.4236 843.789 27.9523C843.789 28.4963 842.772 29.104 841.442 29.3531C839.915 29.6397 838.971 30.2708 838.739 31.1608C838.526 31.9726 837.793 32.5277 836.932 32.5277C836.125 32.5277 835.482 32.9741 835.482 33.5347C835.482 34.1368 834.51 34.7236 833.06 34.9956C831.585 35.2724 830.637 35.8517 830.637 36.476C830.637 37.04 830.014 37.665 829.253 37.8636C828.491 38.0629 827.868 38.6567 827.868 39.1834C827.868 39.7094 827.245 40.1405 826.484 40.1405C825.561 40.1405 825.099 40.6022 825.099 41.5247C825.099 42.6521 824.638 42.9089 822.612 42.9089C820.707 42.9089 820.04 43.2327 819.763 44.293C819.562 45.0591 818.819 45.6772 818.097 45.6772C817.255 45.6772 816.793 46.1672 816.793 47.0613C816.793 48.1818 816.331 48.4455 814.37 48.4455C812.409 48.4455 811.948 48.7092 811.948 49.8296C811.948 50.7238 811.486 51.2138 810.644 51.2138C809.922 51.2138 809.179 51.8318 808.978 52.5979C808.701 53.6582 808.034 53.9821 806.129 53.9821C804.103 53.9821 803.641 54.2389 803.641 55.3663C803.641 56.2888 803.18 56.7504 802.257 56.7504C801.334 56.7504 800.873 57.212 800.873 58.1346C800.873 59.0571 800.411 59.5187 799.488 59.5187C798.727 59.5187 798.104 59.9513 798.104 60.48C798.104 61.0302 797.069 61.6351 795.681 61.8953C794.231 62.1673 793.258 62.7542 793.258 63.3563C793.258 63.9169 792.616 64.3633 791.809 64.3633C790.966 64.3633 790.215 64.9149 790.015 65.6824C789.795 66.5226 788.814 67.162 787.311 67.4437C785.911 67.7067 784.952 68.2957 784.952 68.8929C784.952 69.4466 784.365 69.8999 783.649 69.8999C782.927 69.8999 782.183 70.5179 781.982 71.2841C781.706 72.3443 781.038 72.6682 779.133 72.6682C777.107 72.6682 776.646 72.925 776.646 74.0524C776.646 74.9749 776.184 75.4365 775.261 75.4365C774.5 75.4365 773.877 75.8899 773.877 76.4435C773.877 77.0408 772.918 77.6297 771.518 77.8927C770.015 78.1744 769.034 78.8139 768.814 79.654C768.613 80.4216 767.863 80.9732 767.02 80.9732C766.223 80.9732 765.571 81.4043 765.571 81.9303C765.571 82.457 764.948 83.0508 764.186 83.2501C763.425 83.4487 762.802 84.0716 762.802 84.6342C762.802 85.1962 762.179 85.8191 761.417 86.0184C760.656 86.217 760.033 86.8766 760.033 87.4828C760.033 88.0898 759.566 88.586 758.995 88.586C758.418 88.586 757.956 89.2013 757.956 89.9702C757.956 90.8927 757.495 91.3543 756.572 91.3543C755.418 91.3543 755.188 91.8159 755.188 94.1226C755.188 96.4293 754.957 96.891 753.803 96.891C752.511 96.891 752.419 97.3526 752.419 103.812C752.419 109.243 752.625 110.733 753.376 110.733C754.467 110.733 755.164 112.809 755.178 116.096C755.185 117.881 755.473 118.345 756.572 118.345C757.495 118.345 757.956 118.807 757.956 119.73C757.956 120.652 758.418 121.114 759.341 121.114C760.263 121.114 760.725 121.575 760.725 122.498C760.725 123.267 761.187 123.882 761.763 123.882C762.334 123.882 762.802 124.334 762.802 124.886C762.802 125.599 764.004 126.025 766.955 126.36C769.783 126.679 771.108 127.132 771.108 127.778C771.108 128.502 772.417 128.727 776.646 128.727C780.883 128.727 782.183 128.503 782.183 127.775C782.183 126.836 785.029 125.958 788.073 125.958C789.054 125.958 789.771 125.443 789.998 124.574C790.197 123.813 790.856 123.19 791.463 123.19C792.07 123.19 792.566 122.75 792.566 122.213C792.566 121.612 793.633 121.055 795.335 120.768C796.906 120.502 798.104 119.911 798.104 119.399C798.104 118.905 799.194 118.295 800.526 118.045C801.977 117.773 802.949 117.186 802.949 116.584C802.949 115.972 803.627 115.577 804.68 115.577C805.948 115.577 806.41 115.208 806.41 114.193C806.41 113.27 806.872 112.809 807.795 112.809C808.556 112.809 809.179 112.355 809.179 111.802C809.179 111.205 810.138 110.616 811.538 110.353C813.041 110.071 814.022 109.431 814.242 108.591C814.431 107.866 815.083 107.272 815.69 107.272C816.297 107.272 816.793 106.805 816.793 106.234C816.793 105.642 817.415 105.196 818.243 105.196C819.104 105.196 819.837 104.641 820.049 103.829C820.282 102.939 821.226 102.308 822.753 102.021C824.083 101.772 825.099 101.165 825.099 100.621C825.099 100.092 825.722 99.6593 826.484 99.6593C827.38 99.6593 827.868 99.1977 827.868 98.3519C827.868 97.4066 828.538 96.9193 830.291 96.5906C831.741 96.3186 832.714 95.7317 832.714 95.1296C832.714 94.5171 833.391 94.1226 834.444 94.1226C835.713 94.1226 836.175 93.7538 836.175 92.7385C836.175 91.618 836.636 91.3543 838.597 91.3543C840.558 91.3543 841.02 91.0906 841.02 89.9702C841.02 89.0476 841.482 88.586 842.404 88.586C843.327 88.586 843.789 88.1244 843.789 87.2019C843.789 85.9921 844.247 85.8191 847.423 85.8274C853.208 85.8419 854.172 86.2973 854.172 89.013C854.172 90.6325 853.852 91.3543 853.133 91.3543C852.451 91.3543 852.095 92.0367 852.095 93.3441C852.095 96.7809 851.267 99.6593 850.278 99.6593C849.593 99.6593 849.324 100.676 849.317 103.293C849.305 107.896 848.733 110.04 847.515 110.04C846.806 110.04 846.558 111.119 846.558 114.193C846.558 117.884 846.404 118.345 845.173 118.345C844.019 118.345 843.789 118.807 843.789 121.114C843.789 123.42 843.558 123.882 842.404 123.882C841.188 123.882 841.02 124.344 841.02 127.688C841.02 130.457 840.76 131.495 840.068 131.495C839.079 131.495 838.251 134.373 838.251 137.81C838.251 139.062 837.889 139.8 837.274 139.8C836.673 139.8 836.116 140.866 835.829 142.568C835.541 144.27 834.984 145.336 834.383 145.336C833.816 145.336 833.406 146.026 833.406 146.98C833.406 149.995 832.55 152.949 831.677 152.949C831.203 152.949 830.615 154.195 830.371 155.718C830.085 157.509 829.565 158.486 828.898 158.486C828.225 158.486 827.868 159.175 827.868 160.476C827.868 163.913 827.04 166.791 826.051 166.791C825.42 166.791 825.099 167.629 825.099 169.278C825.099 171.183 824.776 171.85 823.715 172.127C822.529 172.438 822.331 173.071 822.331 176.561C822.331 179.662 822.091 180.632 821.324 180.632C820.721 180.632 820.134 181.605 819.862 183.055C819.534 184.808 819.046 185.477 818.101 185.477C817.037 185.477 816.793 185.993 816.793 188.245C816.793 190.235 816.503 191.014 815.763 191.014C815.097 191.014 814.577 191.991 814.29 193.782C814.04 195.345 813.46 196.55 812.958 196.55C812.461 196.55 811.863 197.769 811.602 199.319C811.336 200.89 810.745 202.087 810.233 202.087C809.738 202.087 809.128 203.177 808.879 204.509C808.607 205.959 808.019 206.931 807.417 206.931C806.704 206.931 806.41 207.738 806.41 209.7C806.41 212.006 806.18 212.468 805.026 212.468C803.927 212.468 803.639 212.932 803.632 214.717C803.618 217.92 802.928 220.081 801.918 220.081C801.44 220.081 800.85 221.325 800.607 222.849C800.32 224.64 799.8 225.618 799.134 225.618C798.568 225.618 798.104 226.204 798.104 226.921C798.104 227.643 797.486 228.386 796.719 228.587C795.659 228.863 795.335 229.531 795.335 231.435C795.335 233.15 795.022 233.922 794.328 233.922C793.731 233.922 793.141 234.882 792.878 236.281C792.597 237.784 791.957 238.765 791.117 238.984C790.349 239.185 789.797 239.935 789.797 240.778C789.797 241.575 789.358 242.227 788.82 242.227C788.219 242.227 787.662 243.294 787.375 244.996C787.109 246.567 786.518 247.764 786.006 247.764C785.511 247.764 784.902 248.854 784.652 250.186C784.38 251.636 783.793 252.609 783.19 252.609C782.637 252.609 782.183 253.231 782.183 253.993C782.183 254.915 781.722 255.377 780.799 255.377C779.645 255.377 779.414 255.838 779.414 258.145C779.414 260.452 779.184 260.913 778.03 260.913C776.909 260.913 776.646 261.375 776.646 263.336C776.646 265.296 776.382 265.758 775.261 265.758C774.246 265.758 773.877 266.22 773.877 267.488C773.877 268.541 773.482 269.218 772.87 269.218C772.268 269.218 771.681 270.191 771.408 271.641C771.159 272.973 770.549 274.063 770.054 274.063C769.542 274.063 768.951 275.26 768.685 276.831C768.33 278.932 767.899 279.6 766.894 279.6C766.032 279.6 765.571 280.082 765.571 280.984C765.571 281.745 765.131 282.368 764.593 282.368C763.992 282.368 763.435 283.434 763.148 285.136C762.882 286.707 762.291 287.905 761.779 287.905C761.284 287.905 760.675 288.995 760.425 290.327C760.153 291.777 759.566 292.749 758.963 292.749C758.41 292.749 757.956 293.372 757.956 294.133C757.956 295.056 757.495 295.517 756.572 295.517C755.649 295.517 755.188 295.979 755.188 296.902C755.188 297.824 754.726 298.286 753.803 298.286C752.649 298.286 752.419 298.747 752.419 301.054C752.419 303.053 752.13 303.822 751.38 303.822C750.809 303.822 750.342 304.319 750.342 304.926C750.342 305.532 749.748 306.184 749.023 306.373C748.182 306.593 747.543 307.574 747.261 309.077C747.014 310.394 746.401 311.435 745.873 311.435C745.312 311.435 744.74 312.536 744.47 314.136C744.157 315.986 743.593 316.946 742.679 317.185C741.944 317.377 741.344 318.031 741.344 318.637C741.344 319.244 740.876 319.74 740.305 319.74C739.729 319.74 739.267 320.355 739.267 321.124C739.267 322.047 738.805 322.508 737.883 322.508C736.96 322.508 736.498 322.97 736.498 323.893C736.498 324.815 736.037 325.277 735.114 325.277C733.96 325.277 733.729 325.738 733.729 328.045C733.729 330.352 733.499 330.813 732.345 330.813C731.422 330.813 730.961 331.275 730.961 332.198C730.961 333.12 730.499 333.582 729.576 333.582C728.654 333.582 728.192 334.043 728.192 334.966C728.192 335.727 727.738 336.35 727.185 336.35C726.583 336.35 725.995 337.322 725.723 338.772C725.395 340.525 724.907 341.195 723.962 341.195C723.116 341.195 722.654 341.683 722.654 342.579C722.654 343.348 722.193 343.963 721.616 343.963C721.039 343.963 720.578 344.578 720.578 345.347C720.578 346.243 720.116 346.731 719.27 346.731C718.332 346.731 717.839 347.394 717.523 349.077C717.236 350.604 716.605 351.548 715.715 351.781C714.963 351.977 714.348 352.635 714.348 353.241C714.348 353.848 713.881 354.344 713.31 354.344C712.733 354.344 712.271 354.959 712.271 355.728C712.271 356.651 711.81 357.112 710.887 357.112C709.943 357.112 709.503 357.574 709.503 358.562C709.503 359.428 708.947 360.155 708.118 360.372C707.352 360.573 706.734 361.316 706.734 362.038C706.734 362.879 706.244 363.341 705.349 363.341C704.58 363.341 703.965 363.803 703.965 364.379C703.965 364.95 703.498 365.417 702.927 365.417C702.35 365.417 701.888 366.033 701.888 366.801C701.888 367.703 701.427 368.186 700.565 368.186C699.56 368.186 699.129 368.853 698.773 370.954C698.418 373.055 697.987 373.722 696.982 373.722C696.12 373.722 695.659 374.205 695.659 375.106C695.659 375.875 695.197 376.491 694.62 376.491C694.049 376.491 693.582 376.958 693.582 377.529C693.582 378.105 692.967 378.567 692.198 378.567C691.275 378.567 690.813 379.028 690.813 379.951C690.813 380.873 690.351 381.335 689.429 381.335C688.506 381.335 688.044 381.797 688.044 382.719C688.044 383.642 687.583 384.103 686.66 384.103C685.737 384.103 685.276 384.565 685.276 385.488C685.276 386.41 684.814 386.872 683.891 386.872C682.968 386.872 682.507 387.333 682.507 388.256C682.507 389.178 682.045 389.64 681.122 389.64C680.2 389.64 679.738 390.102 679.738 391.024C679.738 391.793 679.276 392.408 678.7 392.408C678.123 392.408 677.661 393.024 677.661 393.793C677.661 394.688 677.2 395.177 676.354 395.177C675.408 395.177 674.921 395.846 674.592 397.599C674.305 399.128 673.743 400.021 673.066 400.021C672.476 400.021 671.831 400.644 671.632 401.405C671.433 402.167 670.81 402.79 670.248 402.79C669.685 402.79 669.062 403.412 668.864 404.174C668.664 404.935 668.07 405.558 667.544 405.558C667.018 405.558 666.586 406.181 666.586 406.942C666.586 407.865 666.125 408.326 665.202 408.326C664.279 408.326 663.817 408.788 663.817 409.71C663.817 410.633 663.356 411.094 662.433 411.094C661.51 411.094 661.049 411.556 661.049 412.479C661.049 413.401 660.587 413.863 659.664 413.863C658.742 413.863 658.28 414.324 658.28 415.247C658.28 416.169 657.818 416.631 656.895 416.631C655.973 416.631 655.511 417.093 655.511 418.015C655.511 418.938 655.049 419.399 654.127 419.399C653.204 419.399 652.742 419.861 652.742 420.784C652.742 421.706 652.281 422.168 651.358 422.168C650.589 422.168 649.974 422.629 649.974 423.206C649.974 423.777 649.506 424.244 648.935 424.244C648.359 424.244 647.897 424.859 647.897 425.628C647.897 426.551 647.435 427.012 646.513 427.012C645.59 427.012 645.128 427.474 645.128 428.396C645.128 429.319 644.666 429.781 643.744 429.781C642.821 429.781 642.359 430.242 642.359 431.165C642.359 432.087 641.898 432.549 640.975 432.549C640.052 432.549 639.591 433.011 639.591 433.933C639.591 434.856 639.129 435.317 638.206 435.317C637.283 435.317 636.822 435.779 636.822 436.701C636.822 437.822 636.36 438.086 634.399 438.086C632.438 438.086 631.976 438.349 631.976 439.47C631.976 440.365 631.515 440.854 630.669 440.854C629.725 440.854 629.237 441.521 628.912 443.25C628.526 445.308 628.125 445.709 626.066 446.095C624.337 446.42 623.67 446.908 623.67 447.851C623.67 448.67 623.183 449.159 622.367 449.159C621.645 449.159 620.901 449.777 620.7 450.543C620.502 451.304 619.842 451.927 619.236 451.927C618.629 451.927 618.132 452.394 618.132 452.965C618.132 453.542 617.517 454.003 616.748 454.003C615.852 454.003 615.364 454.465 615.364 455.311C615.364 456.256 614.694 456.743 612.941 457.072C611.491 457.344 610.518 457.931 610.518 458.533C610.518 459.087 609.895 459.54 609.134 459.54C608.211 459.54 607.749 460.002 607.749 460.924C607.749 461.818 607.288 462.308 606.446 462.308C605.724 462.308 604.981 462.926 604.78 463.692C604.563 464.521 603.836 465.077 602.969 465.077C602.162 465.077 601.52 465.523 601.52 466.084C601.52 466.681 600.561 467.27 599.162 467.532C597.161 467.908 596.738 468.327 596.367 470.306C595.994 472.293 595.576 472.703 593.533 473.086C592.165 473.343 591.137 473.948 591.137 474.496C591.137 475.025 590.514 475.458 589.752 475.458C588.83 475.458 588.368 475.919 588.368 476.842C588.368 477.764 587.906 478.226 586.984 478.226C586.061 478.226 585.599 478.688 585.599 479.61C585.599 480.731 585.137 480.994 583.176 480.994C581.215 480.994 580.754 481.258 580.754 482.379C580.754 483.394 580.292 483.763 579.023 483.763C577.754 483.763 577.293 484.132 577.293 485.147C577.293 485.916 576.831 486.531 576.254 486.531C575.683 486.531 575.216 486.97 575.216 487.508C575.216 488.109 574.149 488.666 572.447 488.953C570.346 489.308 569.679 489.739 569.679 490.744C569.679 491.606 569.196 492.068 568.294 492.068C567.525 492.068 566.91 492.529 566.91 493.106C566.91 493.677 566.414 494.144 565.806 494.144C565.2 494.144 564.548 494.738 564.358 495.463C564.139 496.303 563.157 496.943 561.655 497.224C560.255 497.487 559.296 498.076 559.296 498.674C559.296 499.234 558.653 499.68 557.846 499.68C556.98 499.68 556.252 500.236 556.035 501.065C555.836 501.826 555.242 502.449 554.715 502.449C554.189 502.449 553.758 503.072 553.758 503.833C553.758 504.848 553.296 505.217 552.028 505.217C550.975 505.217 550.297 505.612 550.297 506.224C550.297 506.826 549.325 507.413 547.874 507.685C546.121 508.014 545.452 508.501 545.452 509.446C545.452 510.479 544.943 510.754 543.029 510.754C541.274 510.754 540.606 511.058 540.606 511.857C540.606 512.463 540.012 513.115 539.286 513.305C538.559 513.494 537.81 514.244 537.62 514.97C537.419 515.739 536.669 516.29 535.826 516.29C535.019 516.29 534.377 516.737 534.377 517.297C534.377 517.899 533.404 518.486 531.954 518.758C530.566 519.019 529.531 519.623 529.531 520.174C529.531 520.702 528.908 521.135 528.147 521.135C527.224 521.135 526.762 521.597 526.762 522.519C526.762 523.646 526.301 523.903 524.275 523.903C522.37 523.903 521.702 524.227 521.425 525.287C521.225 526.054 520.481 526.672 519.759 526.672C519.043 526.672 518.456 527.125 518.456 527.678C518.456 528.281 517.483 528.868 516.033 529.14C514.28 529.468 513.611 529.955 513.611 530.901C513.611 531.834 513.115 532.208 511.88 532.208C510.868 532.208 510.15 532.605 510.15 533.165C510.15 534.256 508.073 534.953 504.785 534.967C503 534.974 502.535 535.262 502.535 536.361C502.535 537.283 502.074 537.745 501.151 537.745C500.39 537.745 499.767 538.177 499.767 538.706C499.767 539.25 498.75 539.858 497.42 540.107C495.893 540.393 494.949 541.025 494.716 541.915C494.444 542.955 493.766 543.281 491.871 543.281C490.19 543.281 489.384 543.598 489.384 544.259C489.384 544.859 488.317 545.416 486.615 545.704C484.913 545.991 483.846 546.548 483.846 547.149C483.846 547.686 483.223 548.126 482.462 548.126C481.539 548.126 481.077 548.588 481.077 549.51C481.077 550.727 480.616 550.894 477.27 550.894C473.925 550.894 473.463 551.062 473.463 552.278C473.463 553.432 473.001 553.663 470.694 553.663C468.387 553.663 467.926 553.893 467.926 555.047C467.926 555.969 467.464 556.431 466.541 556.431C465.78 556.431 465.157 556.87 465.157 557.408C465.157 558.009 464.09 558.566 462.388 558.853C460.787 559.124 459.619 559.707 459.619 560.237C459.619 560.767 458.451 561.351 456.85 561.621C455.279 561.887 454.082 562.478 454.082 562.99C454.082 563.485 452.991 564.094 451.659 564.344C450.326 564.594 449.236 565.212 449.236 565.717C449.236 566.253 448.084 566.82 446.467 567.078C444.676 567.364 443.699 567.884 443.699 568.551C443.699 569.29 442.92 569.58 440.93 569.58C438.623 569.58 438.161 569.811 438.161 570.965C438.161 572.118 437.699 572.349 435.392 572.349C433.085 572.349 432.623 572.579 432.623 573.733C432.623 574.887 432.162 575.117 429.855 575.117C427.548 575.117 427.086 575.347 427.086 576.501C427.086 577.655 426.624 577.885 424.317 577.885C422.327 577.885 421.548 578.175 421.548 578.915C421.548 579.582 420.571 580.101 418.78 580.388C417.255 580.631 416.011 581.221 416.011 581.699C416.011 582.709 413.85 583.399 410.646 583.412C408.861 583.42 408.397 583.708 408.397 584.806C408.397 585.927 407.935 586.19 405.974 586.19C404.328 586.19 403.551 586.509 403.551 587.186C403.551 587.835 402.468 588.344 400.436 588.649C398.467 588.944 397.321 589.469 397.321 590.076C397.321 590.715 396.493 591.035 394.834 591.035C392.929 591.035 392.261 591.359 391.985 592.419C391.758 593.288 391.04 593.803 390.059 593.803C387.015 593.803 384.17 594.681 384.17 595.62C384.17 596.312 383.131 596.571 380.363 596.571C377.017 596.571 376.555 596.739 376.555 597.956C376.555 599.109 376.094 599.34 373.787 599.34C371.899 599.34 371.018 599.643 371.018 600.291C371.018 601.28 368.139 602.108 364.702 602.108C363.474 602.108 362.712 602.473 362.712 603.06C362.712 604.049 359.833 604.876 356.395 604.876C355.168 604.876 354.405 605.241 354.405 605.828C354.405 606.777 351.553 607.645 348.435 607.645C347.46 607.645 346.791 608.053 346.791 608.648C346.791 609.362 345.589 609.788 342.638 610.122C339.81 610.442 338.485 610.895 338.485 611.54C338.485 612.199 337.56 612.489 335.456 612.489C331.05 612.489 328.102 613.217 328.102 614.306C328.102 614.983 327.129 615.258 324.727 615.258C319.995 615.258 317.026 615.958 317.026 617.074C317.026 617.764 316.001 618.026 313.3 618.026C310.156 618.026 309.518 618.242 309.212 619.41C308.89 620.641 308.267 620.794 303.594 620.794C298.799 620.794 298.337 620.916 298.337 622.178C298.337 623.439 297.875 623.562 293.146 623.562C289.202 623.562 287.954 623.792 287.954 624.514C287.954 625.503 285.075 626.331 281.638 626.331C280.411 626.331 279.648 626.696 279.648 627.282C279.648 628.399 276.68 629.099 271.947 629.099C269.545 629.099 268.573 629.373 268.573 630.051C268.573 631.167 265.605 631.867 260.872 631.867C258.334 631.867 257.497 632.125 257.497 632.906C257.497 633.537 256.853 633.944 255.854 633.944C252.735 633.944 249.883 634.812 249.883 635.76C249.883 636.403 249.017 636.712 247.216 636.712C241.414 636.712 236.039 637.592 236.039 638.54C236.039 639.267 234.51 639.482 229.29 639.488C220.963 639.498 217.35 640.046 217.35 641.301C217.35 642.045 215.732 642.249 209.817 642.249C202.865 642.249 202.255 642.356 201.921 643.633C201.585 644.917 200.977 645.017 193.534 645.017C187.203 645.017 185.509 645.217 185.509 645.964C185.509 647.377 181.73 647.769 168.031 647.778C158.173 647.784 155.744 647.97 155.744 648.721C155.744 650.099 147.767 650.545 123.038 650.549C104.581 650.553 101.753 650.691 101.753 651.592C101.753 652.482 99.6764 652.63 87.2169 652.63C74.7573 652.63 72.6807 652.482 72.6807 651.592C72.6807 650.738 71.45 650.554 65.7588 650.554C60.0675 650.554 58.8368 650.738 58.8368 651.592C58.8368 652.389 57.9522 652.63 55.0297 652.63C52.1072 652.63 51.2226 652.389 51.2226 651.592C51.2226 650.696 48.7999 650.554 33.5716 650.554C18.9718 650.554 15.9205 650.72 15.9205 651.515C15.9205 652.065 14.8857 652.67 13.4979 652.93C12.0477 653.202 11.0752 653.789 11.0752 654.391C11.0752 654.952 10.4328 655.398 9.6257 655.398C8.75907 655.398 8.03157 655.954 7.81492 656.782C7.61556 657.544 7.04935 658.166 6.55581 658.166C6.04912 658.166 5.4559 659.371 5.19148 660.935C4.90422 662.637 4.34699 663.703 3.74616 663.703C3.20833 663.703 2.76879 664.326 2.76879 665.087C2.76879 666.01 2.30709 666.471 1.3844 666.471C0.0920623 666.471 0 666.933 0 673.392C0 678.824 0.206272 680.313 0.957306 680.313C2.04821 680.313 2.74525 682.389 2.75909 685.677C2.76671 687.461 3.05467 687.926 4.15319 687.926C5.07588 687.926 5.53758 688.387 5.53758 689.31C5.53758 690.232 5.99928 690.694 6.92198 690.694C7.84467 690.694 8.30637 691.156 8.30637 692.078C8.30637 693.001 8.76807 693.462 9.69077 693.462C10.4522 693.462 11.0752 693.891 11.0752 694.414C11.0752 695.503 14.0232 696.231 18.4298 696.231C20.4987 696.231 21.4581 696.524 21.4581 697.158C21.4581 698.817 76.5806 699.547 125.807 698.54C143.763 698.173 148.13 697.902 148.13 697.157C148.13 696.431 150.057 696.231 157.02 696.231C172.001 696.231 182.74 695.464 182.74 694.394C182.74 693.719 183.857 693.462 186.792 693.462C193.871 693.462 199.353 692.664 199.353 691.634C199.353 690.917 200.729 690.694 205.15 690.694C212.192 690.694 215.273 690.141 215.273 688.877C215.273 688.119 217.086 687.926 224.191 687.926C232.527 687.926 233.133 687.835 233.471 686.542C233.801 685.279 234.415 685.157 240.474 685.157C245.647 685.157 247.115 684.947 247.115 684.206C247.115 682.997 250.153 682.389 256.2 682.389C259.776 682.389 260.958 682.152 260.958 681.438C260.958 680.271 263.964 679.621 269.351 679.621C272.332 679.621 273.418 679.368 273.418 678.673C273.418 677.633 276.832 676.873 281.551 676.86C283.604 676.855 284.493 676.56 284.493 675.886C284.493 675.181 285.988 674.788 290.031 674.43C294.074 674.072 295.568 673.679 295.568 672.974C295.568 672.371 296.317 672.008 297.558 672.008C300.996 672.008 303.875 671.18 303.875 670.191C303.875 669.534 304.785 669.238 306.817 669.233C312.413 669.222 317.026 668.399 317.026 667.413C317.026 666.837 317.8 666.471 319.017 666.471C322.454 666.471 325.333 665.644 325.333 664.655C325.333 663.932 326.581 663.703 330.524 663.703C335.254 663.703 335.716 663.58 335.716 662.319C335.716 661.088 336.178 660.935 339.869 660.935C342.944 660.935 344.022 660.686 344.022 659.978C344.022 658.896 346.094 658.19 349.306 658.176C350.888 658.169 351.573 657.792 351.837 656.782C352.124 655.683 352.781 655.398 355.032 655.398C357.014 655.398 357.866 655.104 357.866 654.419C357.866 653.705 359.273 653.308 363.058 652.954C366.508 652.63 368.249 652.175 368.249 651.597C368.249 650.718 371.195 649.861 374.219 649.861C375.174 649.861 375.863 649.452 375.863 648.884C375.863 648.284 376.93 647.726 378.632 647.439C380.334 647.152 381.401 646.595 381.401 645.994C381.401 645.379 382.139 645.017 383.391 645.017C386.828 645.017 389.707 644.189 389.707 643.2C389.707 642.552 390.588 642.249 392.476 642.249C394.783 642.249 395.245 642.018 395.245 640.864C395.245 639.648 395.707 639.48 399.052 639.48C402.397 639.48 402.859 639.313 402.859 638.096C402.859 636.942 403.321 636.712 405.628 636.712C407.515 636.712 408.397 636.41 408.397 635.76C408.397 634.771 411.275 633.944 414.713 633.944C415.993 633.944 416.703 633.585 416.703 632.937C416.703 632.335 417.675 631.748 419.126 631.476C420.458 631.226 421.548 630.616 421.548 630.121C421.548 629.61 422.746 629.019 424.317 628.753C425.871 628.491 427.086 627.894 427.086 627.395C427.086 626.459 430.036 625.639 433.402 625.639C434.638 625.639 435.392 625.275 435.392 624.677C435.392 624.127 436.427 623.522 437.815 623.262C439.265 622.99 440.238 622.403 440.238 621.801C440.238 621.088 441.045 620.794 443.006 620.794C445.314 620.794 445.775 620.564 445.775 619.41C445.775 618.256 446.237 618.026 448.544 618.026C450.851 618.026 451.313 617.795 451.313 616.642C451.313 615.488 451.775 615.258 454.082 615.258C456.072 615.258 456.85 614.968 456.85 614.228C456.85 613.561 457.828 613.042 459.619 612.755C461.276 612.49 462.388 611.934 462.388 611.371C462.388 610.808 463.5 610.252 465.157 609.987C466.68 609.743 467.926 609.155 467.926 608.681C467.926 607.808 470.88 606.953 473.896 606.953C474.895 606.953 475.54 606.546 475.54 605.914C475.54 605.338 476.155 604.876 476.924 604.876C477.847 604.876 478.309 604.415 478.309 603.492C478.309 602.339 478.77 602.108 481.077 602.108C483.384 602.108 483.846 601.878 483.846 600.724C483.846 599.626 484.311 599.338 486.096 599.33C489.384 599.316 491.46 598.619 491.46 597.529C491.46 597.003 492.083 596.571 492.845 596.571C493.767 596.571 494.229 596.11 494.229 595.187C494.229 594.034 494.691 593.803 496.998 593.803C499.305 593.803 499.767 593.573 499.767 592.419C499.767 591.265 500.228 591.035 502.535 591.035C504.843 591.035 505.304 590.804 505.304 589.651C505.304 588.539 505.766 588.266 507.646 588.266C509.406 588.266 510.078 587.923 510.35 586.882C510.567 586.054 511.295 585.498 512.161 585.498C512.959 585.498 513.611 585.066 513.611 584.537C513.611 583.987 514.645 583.382 516.033 583.122C517.399 582.866 518.456 582.254 518.456 581.721C518.456 581.157 519.573 580.587 521.225 580.308C522.927 580.02 523.994 579.463 523.994 578.863C523.994 578.325 524.617 577.885 525.378 577.885C526.301 577.885 526.762 577.424 526.762 576.501C526.762 575.374 527.224 575.117 529.25 575.117C531.155 575.117 531.822 574.793 532.099 573.733C532.371 572.693 533.043 572.349 534.804 572.349C536.684 572.349 537.145 572.076 537.145 570.965C537.145 569.949 537.607 569.58 538.876 569.58C539.929 569.58 540.606 569.186 540.606 568.573C540.606 567.971 541.579 567.384 543.029 567.112C544.782 566.784 545.452 566.297 545.452 565.351C545.452 564.287 545.967 564.044 548.22 564.044C550.528 564.044 550.989 563.813 550.989 562.66C550.989 561.737 551.451 561.275 552.374 561.275C553.135 561.275 553.758 560.843 553.758 560.314C553.758 559.764 554.793 559.159 556.181 558.899C557.631 558.627 558.603 558.04 558.603 557.438C558.603 556.877 559.246 556.431 560.053 556.431C560.896 556.431 561.646 555.879 561.847 555.112C562.067 554.272 563.048 553.632 564.551 553.35C565.95 553.087 566.91 552.498 566.91 551.901C566.91 551.348 567.533 550.894 568.294 550.894C569.217 550.894 569.679 550.433 569.679 549.51C569.679 548.588 570.14 548.126 571.063 548.126C571.824 548.126 572.447 547.673 572.447 547.119C572.447 546.522 573.407 545.933 574.806 545.67C576.309 545.388 577.291 544.749 577.51 543.908C577.711 543.141 578.461 542.589 579.304 542.589C580.111 542.589 580.754 542.143 580.754 541.582C580.754 540.98 581.726 540.393 583.176 540.121C584.509 539.872 585.599 539.262 585.599 538.767C585.599 538.256 586.797 537.665 588.368 537.399C590.469 537.044 591.137 536.613 591.137 535.608C591.137 534.88 591.604 534.284 592.175 534.284C592.746 534.284 593.213 533.817 593.213 533.246C593.213 532.654 593.836 532.208 594.663 532.208C595.529 532.208 596.257 531.652 596.474 530.824C596.674 530.058 597.418 529.44 598.14 529.44C598.981 529.44 599.443 528.95 599.443 528.056C599.443 526.935 599.905 526.672 601.866 526.672C603.827 526.672 604.288 526.408 604.288 525.287C604.288 524.365 604.75 523.903 605.673 523.903C606.478 523.903 607.057 523.442 607.057 522.8C607.057 522.194 607.68 521.534 608.442 521.336C609.203 521.136 609.826 520.513 609.826 519.951C609.826 519.389 610.449 518.766 611.21 518.567C611.972 518.368 612.595 517.802 612.595 517.308C612.595 516.802 613.799 516.209 615.364 515.944C616.928 515.68 618.132 515.087 618.132 514.58C618.132 514.087 618.755 513.521 619.517 513.321C620.278 513.123 620.901 512.498 620.901 511.934C620.901 511.309 621.849 510.73 623.324 510.453C624.854 510.166 625.747 509.604 625.747 508.927C625.747 508.338 626.37 507.693 627.131 507.494C627.892 507.295 628.515 506.701 628.515 506.174C628.515 505.648 629.138 505.217 629.9 505.217C630.822 505.217 631.284 504.755 631.284 503.833C631.284 502.91 631.746 502.449 632.669 502.449C633.591 502.449 634.053 501.987 634.053 501.065C634.053 500.142 634.515 499.68 635.437 499.68C636.206 499.68 636.822 499.219 636.822 498.642C636.822 498.066 637.437 497.604 638.206 497.604C639.129 497.604 639.591 497.143 639.591 496.22C639.591 495.298 640.052 494.836 640.975 494.836C641.898 494.836 642.359 494.374 642.359 493.452C642.359 492.647 642.821 492.068 643.463 492.068C644.069 492.068 644.721 491.474 644.911 490.749C645.127 489.919 646.104 489.27 647.538 489.001C649.008 488.726 649.949 488.086 650.178 487.206C650.375 486.454 651.033 485.839 651.639 485.839C652.246 485.839 652.742 485.372 652.742 484.801C652.742 484.224 653.358 483.763 654.127 483.763C655.049 483.763 655.511 483.301 655.511 482.379C655.511 481.456 655.973 480.994 656.895 480.994C657.818 480.994 658.28 480.533 658.28 479.61C658.28 478.688 658.742 478.226 659.664 478.226C660.587 478.226 661.049 477.764 661.049 476.842C661.049 475.919 661.51 475.458 662.433 475.458C663.202 475.458 663.817 474.996 663.817 474.42C663.817 473.849 664.314 473.382 664.921 473.382C665.527 473.382 666.187 472.759 666.385 471.997C666.585 471.236 667.208 470.613 667.77 470.613C668.333 470.613 668.954 469.998 669.15 469.246C669.38 468.366 670.321 467.727 671.79 467.451C673.224 467.182 674.201 466.533 674.418 465.704C674.607 464.978 675.223 464.384 675.786 464.384C676.348 464.384 676.971 463.762 677.17 463C677.369 462.239 678.028 461.616 678.635 461.616C679.242 461.616 679.738 461.149 679.738 460.578C679.738 460.002 680.353 459.54 681.122 459.54C682.045 459.54 682.507 459.078 682.507 458.156C682.507 457.233 682.968 456.772 683.891 456.772C685.004 456.772 685.276 456.31 685.276 454.426C685.276 452.308 685.503 452.039 687.622 451.641C689.149 451.355 690.093 450.724 690.326 449.834C690.522 449.082 691.143 448.467 691.706 448.467C692.268 448.467 692.891 447.844 693.091 447.083C693.289 446.321 693.912 445.698 694.475 445.698C695.037 445.698 695.66 445.076 695.859 444.314C696.058 443.553 696.681 442.93 697.244 442.93C697.806 442.93 698.429 442.307 698.628 441.546C698.827 440.785 699.45 440.162 700.012 440.162C700.575 440.162 701.198 439.539 701.397 438.778C701.596 438.016 702.255 437.393 702.862 437.393C703.469 437.393 703.965 436.926 703.965 436.355C703.965 435.779 704.58 435.317 705.349 435.317C706.272 435.317 706.734 434.856 706.734 433.933C706.734 433.011 707.195 432.549 708.118 432.549C709.041 432.549 709.503 432.087 709.503 431.165C709.503 430.242 709.964 429.781 710.887 429.781C711.81 429.781 712.271 429.319 712.271 428.396C712.271 427.635 712.703 427.012 713.229 427.012C713.755 427.012 714.349 426.389 714.549 425.628C714.747 424.867 715.37 424.244 715.933 424.244C716.495 424.244 717.118 423.621 717.317 422.86C717.516 422.099 718.141 421.476 718.705 421.476C719.33 421.476 719.909 420.528 720.186 419.053C720.458 417.603 721.045 416.631 721.647 416.631C722.201 416.631 722.654 416.008 722.654 415.247C722.654 414.324 723.116 413.863 724.039 413.863C724.961 413.863 725.423 413.401 725.423 412.479C725.423 411.556 725.885 411.094 726.807 411.094C727.73 411.094 728.192 410.633 728.192 409.71C728.192 408.788 728.654 408.326 729.576 408.326C730.499 408.326 730.961 407.865 730.961 406.942C730.961 406.019 731.422 405.558 732.345 405.558C733.268 405.558 733.729 405.096 733.729 404.174C733.729 403.412 734.183 402.79 734.737 402.79C735.339 402.79 735.926 401.817 736.198 400.367C736.527 398.614 737.014 397.945 737.959 397.945C738.805 397.945 739.267 397.456 739.267 396.561C739.267 395.792 739.729 395.177 740.305 395.177C740.882 395.177 741.344 394.561 741.344 393.793C741.344 392.87 741.805 392.408 742.728 392.408C743.651 392.408 744.112 391.947 744.112 391.024C744.112 390.102 744.574 389.64 745.497 389.64C746.419 389.64 746.881 389.178 746.881 388.256C746.881 387.333 747.343 386.872 748.266 386.872C749.386 386.872 749.65 386.41 749.65 384.449C749.65 382.489 749.914 382.027 751.034 382.027C752.05 382.027 752.419 381.566 752.419 380.297C752.419 379.028 752.788 378.567 753.803 378.567C754.726 378.567 755.188 378.105 755.188 377.183C755.188 376.421 755.641 375.798 756.195 375.798C756.797 375.798 757.384 374.826 757.656 373.376C757.985 371.623 758.472 370.954 759.418 370.954C760.263 370.954 760.725 370.465 760.725 369.57C760.725 368.801 761.187 368.186 761.763 368.186C762.34 368.186 762.802 367.57 762.802 366.801C762.802 365.879 763.263 365.417 764.186 365.417C765.109 365.417 765.571 364.956 765.571 364.033C765.571 363.111 766.032 362.649 766.955 362.649C768.082 362.649 768.339 362.187 768.339 360.162C768.339 358.257 768.663 357.59 769.724 357.313C770.49 357.112 771.108 356.369 771.108 355.647C771.108 354.806 771.598 354.344 772.492 354.344C773.613 354.344 773.877 353.882 773.877 351.922C773.877 349.961 774.141 349.5 775.261 349.5C776.184 349.5 776.646 349.038 776.646 348.115C776.646 347.193 777.107 346.731 778.03 346.731C778.953 346.731 779.414 346.27 779.414 345.347C779.414 344.586 779.847 343.963 780.376 343.963C780.92 343.963 781.528 342.946 781.777 341.617C782.063 340.09 782.695 339.146 783.585 338.913C784.397 338.701 784.952 337.968 784.952 337.107C784.952 336.28 785.398 335.658 785.99 335.658C786.561 335.658 787.029 335.162 787.029 334.555C787.029 333.949 787.652 333.289 788.413 333.09C789.179 332.89 789.797 332.146 789.797 331.424C789.797 330.609 790.286 330.121 791.105 330.121C792.051 330.121 792.538 329.452 792.867 327.699C793.139 326.249 793.726 325.277 794.328 325.277C794.882 325.277 795.335 324.654 795.335 323.893C795.335 322.97 795.797 322.508 796.719 322.508C797.873 322.508 798.104 322.047 798.104 319.74C798.104 317.433 798.334 316.972 799.488 316.972C800.6 316.972 800.873 316.51 800.873 314.631C800.873 312.871 801.217 312.199 802.257 311.927C803.018 311.728 803.641 311.105 803.641 310.542C803.641 309.98 804.264 309.358 805.026 309.158C805.854 308.942 806.41 308.214 806.41 307.348C806.41 306.551 806.843 305.899 807.372 305.899C807.922 305.899 808.527 304.864 808.787 303.476C809.043 302.111 809.655 301.054 810.188 301.054C810.752 301.054 811.323 299.937 811.602 298.286C811.889 296.584 812.446 295.517 813.047 295.517C813.585 295.517 814.024 294.895 814.024 294.133C814.024 293.211 814.486 292.749 815.409 292.749C816.536 292.749 816.793 292.287 816.793 290.262C816.793 288.398 817.123 287.689 818.112 287.43C818.953 287.21 819.592 286.229 819.874 284.727C820.137 283.327 820.726 282.368 821.324 282.368C821.877 282.368 822.331 281.745 822.331 280.984C822.331 280.222 822.77 279.6 823.308 279.6C823.909 279.6 824.466 278.533 824.753 276.831C825.039 275.142 825.599 274.063 826.19 274.063C826.786 274.063 827.33 272.996 827.602 271.295C827.861 269.678 828.428 268.526 828.963 268.526C829.469 268.526 830.087 267.436 830.337 266.104C830.587 264.772 831.196 263.682 831.691 263.682C832.203 263.682 832.794 262.485 833.06 260.913C833.347 259.212 833.904 258.145 834.505 258.145C835.043 258.145 835.482 257.493 835.482 256.696C835.482 255.829 836.038 255.102 836.867 254.885C837.805 254.64 838.254 253.937 838.261 252.701C838.275 249.813 839.023 247.764 840.063 247.764C840.623 247.764 841.02 247.046 841.02 246.034C841.02 244.765 841.389 244.304 842.404 244.304C843.558 244.304 843.789 243.842 843.789 241.535C843.789 239.546 844.079 238.767 844.819 238.767C845.485 238.767 846.005 237.79 846.292 235.999C846.535 234.474 847.125 233.23 847.604 233.23C848.564 233.23 849.302 231.102 849.317 228.294C849.324 227.058 849.772 226.355 850.711 226.109C851.539 225.892 852.095 225.165 852.095 224.298C852.095 223.471 852.541 222.849 853.133 222.849C853.842 222.849 854.175 222.134 854.182 220.6C854.195 217.369 854.888 215.236 855.922 215.236C856.429 215.236 857.022 214.032 857.287 212.468C857.557 210.867 858.141 209.7 858.671 209.7C859.201 209.7 859.785 208.532 860.055 206.931C860.343 205.23 860.9 204.163 861.501 204.163C862.161 204.163 862.478 203.357 862.478 201.676C862.478 199.771 862.802 199.104 863.863 198.827C864.912 198.552 865.247 197.883 865.247 196.059C865.247 194.235 865.582 193.565 866.631 193.291C867.8 192.985 868.016 192.347 868.016 189.202C868.016 185.939 868.187 185.477 869.4 185.477C870.554 185.477 870.785 185.015 870.785 182.709C870.785 180.821 871.088 179.94 871.736 179.94C872.685 179.94 873.553 177.089 873.553 173.971C873.553 173.017 873.963 172.327 874.531 172.327C875.132 172.327 875.689 171.261 875.976 169.559C876.24 167.996 876.834 166.791 877.34 166.791C877.95 166.791 878.391 165.136 878.723 161.6C879.077 157.816 879.474 156.41 880.188 156.41C880.873 156.41 881.167 155.558 881.167 153.576C881.167 151.326 881.452 150.669 882.552 150.382C883.601 150.107 883.936 149.438 883.936 147.613C883.936 145.789 884.271 145.119 885.321 144.845C886.452 144.549 886.706 143.896 886.715 141.276C886.727 137.081 887.333 134.955 888.517 134.955C889.225 134.955 889.474 133.877 889.474 130.803C889.474 127.112 889.628 126.65 890.858 126.65C892.089 126.65 892.243 126.189 892.243 122.498C892.243 119.416 892.49 118.345 893.204 118.345C893.748 118.345 894.356 117.329 894.605 115.999C895.077 113.484 896.254 112.836 900.376 112.818C902.167 112.811 902.626 113.09 902.626 114.193C902.626 115.115 903.087 115.577 904.01 115.577C905.073 115.577 905.394 116.039 905.394 117.567C905.394 121.004 906.222 123.882 907.211 123.882C907.906 123.882 908.163 124.93 908.163 127.753C908.163 131.042 908.372 131.679 909.548 131.986C910.774 132.307 910.932 132.93 910.932 137.459C910.932 142.107 911.057 142.568 912.316 142.568C913.47 142.568 913.701 143.03 913.701 145.336C913.701 147.232 914.003 148.105 914.658 148.105C915.74 148.105 916.446 150.176 916.46 153.387C916.467 154.969 916.844 155.654 917.854 155.918C919.03 156.226 919.238 156.862 919.238 160.151C919.238 163.561 919.403 164.023 920.623 164.023C921.777 164.023 922.007 164.484 922.007 166.791C922.007 168.752 922.301 169.559 923.014 169.559C923.616 169.559 924.204 170.532 924.476 171.981C924.736 173.369 925.341 174.404 925.891 174.404C926.42 174.404 926.853 175.056 926.853 175.853C926.853 176.719 927.408 177.447 928.237 177.663C928.998 177.863 929.621 178.429 929.621 178.922C929.621 179.429 930.826 180.022 932.39 180.286C934.092 180.574 935.159 181.131 935.159 181.731C935.159 182.525 936.917 182.709 944.504 182.709C952.09 182.709 953.848 182.525 953.848 181.731C953.848 181.131 954.915 180.574 956.617 180.286C958.719 179.931 959.386 179.5 959.386 178.495C959.386 177.634 959.868 177.172 960.77 177.172C961.882 177.172 962.155 176.71 962.155 174.831C962.155 173.071 962.499 172.399 963.539 172.127C964.368 171.91 964.923 171.183 964.923 170.316C964.923 169.489 965.369 168.867 965.962 168.867C966.821 168.867 967 167.56 967 161.254C967 154.949 966.821 153.641 965.962 153.641C965.279 153.641 964.923 152.959 964.923 151.652C964.923 148.215 964.096 145.336 963.106 145.336C962.404 145.336 962.155 144.246 962.155 141.184C962.155 137.493 962.001 137.031 960.77 137.031C959.539 137.031 959.386 136.57 959.386 132.879C959.386 129.188 959.232 128.727 958.001 128.727C956.771 128.727 956.617 128.265 956.617 124.574C956.617 121.5 956.368 120.422 955.66 120.422C954.569 120.422 953.872 118.345 953.858 115.058C953.852 113.609 953.508 112.809 952.891 112.809C951.763 112.809 951.102 110.713 951.089 107.099C951.082 105.355 950.765 104.504 950.122 104.504C949.031 104.504 948.334 102.428 948.32 99.1402C948.314 97.6979 947.969 96.891 947.359 96.891C946.41 96.891 945.542 94.0396 945.542 90.9218C945.542 89.9819 945.131 89.2781 944.582 89.2781C943.975 89.2781 943.451 88.1327 943.155 86.1637C942.851 84.1325 942.342 83.0494 941.693 83.0494C941.057 83.0494 940.696 82.3289 940.696 81.0597C940.696 77.6228 939.869 74.7444 938.879 74.7444C938.187 74.7444 937.928 73.7063 937.928 70.938C937.928 67.5932 937.76 67.1316 936.543 67.1316C935.284 67.1316 935.159 66.67 935.159 62.022C935.159 57.4937 935.001 56.8709 933.775 56.5497C932.598 56.2424 932.39 55.6057 932.39 52.317C932.39 49.4933 932.133 48.4455 931.438 48.4455C930.322 48.4455 929.621 45.4778 929.621 40.7461C929.621 38.3349 929.348 37.3722 928.664 37.3722C927.573 37.3722 926.876 35.296 926.862 32.0086C926.856 30.5663 926.511 29.7594 925.901 29.7594C924.912 29.7594 924.084 26.881 924.084 23.4442C924.084 22.2171 923.719 21.4544 923.132 21.4544C922.183 21.4544 921.315 18.6031 921.315 15.4853C921.315 14.4859 920.908 13.8416 920.277 13.8416C919.7 13.8416 919.238 13.2263 919.238 12.4574C919.238 11.5349 918.777 11.0733 917.854 11.0733C916.911 11.0733 916.47 10.6116 916.47 9.62404C916.47 8.75756 915.914 8.03019 915.085 7.81357C914.319 7.61287 913.701 6.86957 913.701 6.14773C913.701 5.43143 913.234 4.84455 912.662 4.84455C912.091 4.84455 911.624 4.37739 911.624 3.80643C911.624 3.16072 910.971 2.76831 909.894 2.76831C908.625 2.76831 908.163 2.39944 908.163 1.38416C908.163 0.0539821 907.702 0 896.331 0C885.081 0 884.481 0.0678237 884.137 1.38416ZM521.225 138.416C521.225 139.529 520.763 139.8 518.863 139.8C516.647 139.8 516.472 139.971 516.033 142.568C515.767 144.139 515.176 145.336 514.665 145.336C514.17 145.336 513.56 146.426 513.31 147.759C513.038 149.209 512.451 150.181 511.849 150.181C511.236 150.181 510.842 150.859 510.842 151.911C510.842 153.18 510.473 153.641 509.457 153.641C508.337 153.641 508.073 154.103 508.073 156.064C508.073 158.024 507.809 158.486 506.689 158.486C505.535 158.486 505.304 158.948 505.304 161.254C505.304 163.561 505.074 164.023 503.92 164.023C502.997 164.023 502.535 164.484 502.535 165.407C502.535 166.329 502.074 166.791 501.151 166.791C499.997 166.791 499.767 167.252 499.767 169.559C499.767 171.866 499.536 172.327 498.382 172.327C497.262 172.327 496.998 172.789 496.998 174.75C496.998 176.375 496.676 177.172 496.02 177.172C495.42 177.172 494.862 178.239 494.575 179.94C494.288 181.642 493.731 182.709 493.13 182.709C492.592 182.709 492.152 183.332 492.152 184.093C492.152 184.995 491.691 185.477 490.829 185.477C489.824 185.477 489.393 186.144 489.038 188.245C488.772 189.816 488.181 191.014 487.669 191.014C487.174 191.014 486.564 192.104 486.314 193.436C486.042 194.886 485.455 195.858 484.853 195.858C484.241 195.858 483.846 196.536 483.846 197.588C483.846 198.857 483.477 199.319 482.462 199.319C481.334 199.319 481.077 199.78 481.077 201.806C481.077 203.71 480.753 204.378 479.693 204.654C478.653 204.926 478.309 205.598 478.309 207.358C478.309 208.946 477.985 209.7 477.301 209.7C476.704 209.7 476.115 210.659 475.852 212.058C475.57 213.561 474.931 214.542 474.09 214.762C473.111 215.018 472.771 215.728 472.771 217.513C472.771 219.338 472.436 220.007 471.387 220.282C470.625 220.48 470.002 221.14 470.002 221.746C470.002 222.353 469.563 222.849 469.025 222.849C468.424 222.849 467.867 223.916 467.579 225.618C467.292 227.319 466.735 228.386 466.134 228.386C465.596 228.386 465.157 229.009 465.157 229.77C465.157 230.693 464.695 231.154 463.772 231.154C462.618 231.154 462.388 231.616 462.388 233.922C462.388 236.175 462.144 236.691 461.08 236.691C460.135 236.691 459.648 237.36 459.319 239.113C459.047 240.563 458.46 241.535 457.858 241.535C457.245 241.535 456.85 242.213 456.85 243.265C456.85 244.534 456.481 244.996 455.466 244.996C454.312 244.996 454.082 245.457 454.082 247.764C454.082 249.725 453.788 250.532 453.074 250.532C452.472 250.532 451.885 251.505 451.613 252.955C451.284 254.708 450.797 255.377 449.852 255.377C449.006 255.377 448.544 255.865 448.544 256.761C448.544 257.522 448.104 258.145 447.567 258.145C446.966 258.145 446.409 259.212 446.121 260.913C445.856 262.485 445.264 263.682 444.753 263.682C444.258 263.682 443.648 264.772 443.398 266.104C443.126 267.554 442.539 268.526 441.937 268.526C441.383 268.526 440.93 269.149 440.93 269.911C440.93 270.802 440.468 271.295 439.634 271.295C438.657 271.295 438.229 271.976 437.895 274.063C437.609 275.854 437.089 276.831 436.422 276.831C435.854 276.831 435.392 277.451 435.392 278.215C435.392 279.138 434.931 279.6 434.008 279.6C432.896 279.6 432.623 280.061 432.623 281.941C432.623 283.701 432.279 284.373 431.239 284.645C430.19 284.919 429.855 285.589 429.855 287.413C429.855 289.237 429.52 289.907 428.47 290.181C427.41 290.458 427.086 291.125 427.086 293.03C427.086 295.056 426.829 295.517 425.702 295.517C424.779 295.517 424.317 295.979 424.317 296.902C424.317 297.67 423.855 298.286 423.279 298.286C422.702 298.286 422.241 298.901 422.241 299.67C422.241 300.592 421.779 301.054 420.856 301.054C419.729 301.054 419.472 301.516 419.472 303.541C419.472 305.405 419.142 306.114 418.152 306.373C417.312 306.593 416.672 307.574 416.391 309.077C416.128 310.476 415.539 311.435 414.941 311.435C414.381 311.435 413.934 312.077 413.934 312.884C413.934 313.751 413.378 314.478 412.55 314.695C411.509 314.967 411.165 315.639 411.165 317.399C411.165 319.279 410.893 319.74 409.781 319.74C408.627 319.74 408.397 320.202 408.397 322.508C408.397 324.815 408.166 325.277 407.012 325.277C406.089 325.277 405.628 325.738 405.628 326.661C405.628 327.422 405.174 328.045 404.621 328.045C404.018 328.045 403.431 329.017 403.159 330.467C402.91 331.8 402.3 332.89 401.805 332.89C401.293 332.89 400.702 334.087 400.436 335.658C400.149 337.36 399.592 338.426 398.991 338.426C398.453 338.426 398.014 339.049 398.014 339.81C398.014 340.733 397.552 341.195 396.629 341.195C395.475 341.195 395.245 341.656 395.245 343.963C395.245 346.27 395.014 346.731 393.86 346.731C392.707 346.731 392.476 347.193 392.476 349.5C392.476 351.806 392.246 352.268 391.092 352.268C389.971 352.268 389.707 352.729 389.707 354.69C389.707 356.651 389.443 357.112 388.323 357.112C387.307 357.112 386.938 357.574 386.938 358.843C386.938 359.913 386.546 360.573 385.908 360.573C385.242 360.573 384.722 361.55 384.435 363.341C384.177 364.958 383.61 366.109 383.075 366.109C382.569 366.109 381.951 367.199 381.701 368.532C381.441 369.919 380.836 370.954 380.286 370.954C379.757 370.954 379.324 371.577 379.324 372.338C379.324 373.24 378.863 373.722 378.001 373.722C376.996 373.722 376.564 374.389 376.209 376.491C375.922 378.192 375.365 379.259 374.764 379.259C374.109 379.259 373.787 380.056 373.787 381.681C373.787 383.642 373.523 384.103 372.402 384.103C371.459 384.103 371.018 384.565 371.018 385.553C371.018 386.419 370.462 387.146 369.633 387.363C368.593 387.635 368.249 388.307 368.249 390.067C368.249 391.947 367.976 392.408 366.865 392.408C365.711 392.408 365.48 392.87 365.48 395.177C365.48 397.483 365.25 397.945 364.096 397.945C362.984 397.945 362.712 398.407 362.712 400.286C362.712 402.046 362.367 402.718 361.327 402.99C360.566 403.189 359.943 403.848 359.943 404.455C359.943 405.28 359.246 405.558 357.174 405.558C355.174 405.558 354.405 405.269 354.405 404.52C354.405 403.943 353.79 403.482 353.021 403.482C352.098 403.482 351.636 403.02 351.636 402.097C351.636 401.336 351.197 400.713 350.659 400.713C350.058 400.713 349.501 399.647 349.214 397.945C348.926 396.243 348.369 395.177 347.768 395.177C347.231 395.177 346.791 394.554 346.791 393.793C346.791 392.891 346.329 392.408 345.468 392.408C344.462 392.408 344.031 391.741 343.676 389.64C343.389 387.938 342.832 386.872 342.231 386.872C341.693 386.872 341.253 386.249 341.253 385.488C341.253 384.724 340.792 384.103 340.223 384.103C339.557 384.103 339.037 383.126 338.75 381.335C338.485 379.679 337.929 378.567 337.366 378.567C336.803 378.567 336.247 377.455 335.982 375.798C335.723 374.182 335.157 373.03 334.621 373.03C334.115 373.03 333.497 371.94 333.247 370.608C332.998 369.276 332.388 368.186 331.893 368.186C331.381 368.186 330.79 366.988 330.524 365.417C330.26 363.853 329.667 362.649 329.16 362.649C328.666 362.649 328.1 362.026 327.901 361.265C327.702 360.504 327.043 359.881 326.436 359.881C325.631 359.881 325.333 359.208 325.333 357.393C325.333 355.53 325.003 354.82 324.014 354.561C323.173 354.342 322.534 353.361 322.252 351.858C322.005 350.541 321.392 349.5 320.863 349.5C320.299 349.5 319.728 348.382 319.449 346.731C319.162 345.029 318.605 343.963 318.004 343.963C317.466 343.963 317.026 343.34 317.026 342.579C317.026 341.656 316.565 341.195 315.642 341.195C314.53 341.195 314.258 340.733 314.258 338.853C314.258 337.093 313.914 336.421 312.873 336.149C311.813 335.873 311.489 335.205 311.489 333.301C311.489 331.275 311.232 330.813 310.105 330.813C308.951 330.813 308.72 330.352 308.72 328.045C308.72 325.738 308.49 325.277 307.336 325.277C306.413 325.277 305.951 324.815 305.951 323.893C305.951 323.131 305.512 322.508 304.974 322.508C304.373 322.508 303.816 321.442 303.529 319.74C303.263 318.169 302.672 316.972 302.16 316.972C301.665 316.972 301.055 315.882 300.806 314.55C300.556 313.217 299.937 312.127 299.432 312.127C298.896 312.127 298.33 310.976 298.071 309.359C297.785 307.568 297.265 306.591 296.598 306.591C296.03 306.591 295.568 305.971 295.568 305.207C295.568 304.284 295.107 303.822 294.184 303.822C293.03 303.822 292.8 303.361 292.8 301.054C292.8 298.747 292.569 298.286 291.415 298.286C290.261 298.286 290.031 297.824 290.031 295.517C290.031 293.556 289.737 292.749 289.024 292.749C288.426 292.749 287.837 291.79 287.574 290.39C287.292 288.888 286.653 287.907 285.813 287.687C285.045 287.487 284.493 286.736 284.493 285.893C284.493 285.086 284.047 284.444 283.486 284.444C282.884 284.444 282.297 283.472 282.025 282.022C281.775 280.69 281.165 279.6 280.67 279.6C280.159 279.6 279.568 278.402 279.302 276.831C279.036 275.26 278.445 274.063 277.933 274.063C277.438 274.063 276.828 272.973 276.579 271.641C276.329 270.308 275.711 269.218 275.205 269.218C274.67 269.218 274.103 268.067 273.844 266.45C273.558 264.659 273.038 263.682 272.371 263.682C271.803 263.682 271.341 263.062 271.341 262.298C271.341 261.375 270.88 260.913 269.957 260.913C268.803 260.913 268.573 260.452 268.573 258.145C268.573 256.223 268.274 255.377 267.595 255.377C266.994 255.377 266.437 254.31 266.15 252.609C265.795 250.507 265.364 249.84 264.359 249.84C263.316 249.84 263.035 249.343 263.035 247.499C263.035 245.739 262.691 245.067 261.651 244.795C260.822 244.578 260.266 243.851 260.266 242.985C260.266 242.187 259.834 241.535 259.305 241.535C258.755 241.535 258.15 240.501 257.889 239.113C257.639 237.781 257.021 236.691 256.516 236.691C255.98 236.691 255.413 235.539 255.155 233.922C254.869 232.131 254.349 231.154 253.682 231.154C253.114 231.154 252.652 230.534 252.652 229.77C252.652 228.847 252.19 228.386 251.268 228.386C250.345 228.386 249.883 227.924 249.883 227.002C249.883 226.079 249.422 225.618 248.499 225.618C247.738 225.618 247.115 225.189 247.115 224.666C247.115 223.589 244.157 222.844 239.933 222.859C236.134 222.871 233.963 223.504 233.963 224.599C233.963 225.106 232.758 225.699 231.194 225.964C229.492 226.251 228.425 226.808 228.425 227.409C228.425 227.946 227.802 228.386 227.041 228.386C226.118 228.386 225.656 228.847 225.656 229.77C225.656 230.693 225.195 231.154 224.272 231.154C223.349 231.154 222.888 231.616 222.888 232.538C222.888 233.461 222.426 233.922 221.503 233.922C220.581 233.922 220.119 234.384 220.119 235.307C220.119 236.229 219.657 236.691 218.734 236.691C217.965 236.691 217.35 237.152 217.35 237.729C217.35 238.3 216.854 238.767 216.247 238.767C215.64 238.767 214.981 239.39 214.782 240.151C214.583 240.912 213.96 241.535 213.398 241.535C212.835 241.535 212.212 242.158 212.013 242.919C211.814 243.681 211.22 244.304 210.693 244.304C210.167 244.304 209.736 244.926 209.736 245.688C209.736 246.61 209.274 247.072 208.351 247.072C207.429 247.072 206.967 247.534 206.967 248.456C206.967 249.379 206.505 249.84 205.583 249.84C204.66 249.84 204.198 250.302 204.198 251.224C204.198 252.147 203.737 252.609 202.814 252.609C201.891 252.609 201.429 253.07 201.429 253.993C201.429 254.915 200.968 255.377 200.045 255.377C199.122 255.377 198.661 255.838 198.661 256.761C198.661 257.684 198.199 258.145 197.276 258.145C196.507 258.145 195.892 258.607 195.892 259.183C195.892 259.754 195.396 260.221 194.789 260.221C194.182 260.221 193.523 260.844 193.324 261.606C193.124 262.367 192.502 262.99 191.939 262.99C191.377 262.99 190.754 263.613 190.555 264.374C190.356 265.135 189.733 265.758 189.171 265.758C188.608 265.758 187.985 266.381 187.786 267.142C187.587 267.903 186.964 268.526 186.402 268.526C185.839 268.526 185.216 269.149 185.017 269.911C184.818 270.672 184.224 271.295 183.697 271.295C183.171 271.295 182.74 271.918 182.74 272.679C182.74 273.601 182.278 274.063 181.356 274.063C180.433 274.063 179.971 274.525 179.971 275.447C179.971 276.37 179.51 276.831 178.587 276.831C177.826 276.831 177.203 277.285 177.203 277.838C177.203 278.44 176.23 279.027 174.78 279.299C173.027 279.628 172.357 280.115 172.357 281.061C172.357 281.906 171.869 282.368 170.973 282.368C170.05 282.368 169.588 282.83 169.588 283.752C169.588 284.675 169.127 285.136 168.204 285.136C167.281 285.136 166.82 285.598 166.82 286.52C166.82 287.443 166.358 287.905 165.435 287.905C164.63 287.905 164.051 288.366 164.051 289.008C164.051 289.614 163.428 290.274 162.666 290.472C161.905 290.671 161.282 291.265 161.282 291.792C161.282 292.318 160.659 292.749 159.898 292.749C158.975 292.749 158.513 293.211 158.513 294.133C158.513 295.056 158.052 295.517 157.129 295.517C156.206 295.517 155.744 295.979 155.744 296.902C155.744 297.824 155.283 298.286 154.36 298.286C153.437 298.286 152.976 298.747 152.976 299.67C152.976 300.592 152.514 301.054 151.591 301.054C150.669 301.054 150.207 301.516 150.207 302.438C150.207 303.361 149.745 303.822 148.822 303.822C148.061 303.822 147.438 304.254 147.438 304.779C147.438 305.306 146.815 305.9 146.054 306.099C145.292 306.298 144.669 306.921 144.669 307.483C144.669 308.045 144.046 308.668 143.285 308.868C142.523 309.066 141.901 309.689 141.901 310.252C141.901 310.814 141.278 311.437 140.516 311.636C139.755 311.835 139.132 312.48 139.132 313.069C139.132 313.746 138.239 314.308 136.709 314.595C134.956 314.924 134.286 315.411 134.286 316.357C134.286 317.202 133.798 317.664 132.902 317.664C132.133 317.664 131.518 318.126 131.518 318.702C131.518 319.273 131.05 319.74 130.479 319.74C129.903 319.74 129.441 320.355 129.441 321.124C129.441 322.047 128.979 322.508 128.057 322.508C127.134 322.508 126.672 322.97 126.672 323.893C126.672 324.815 126.21 325.277 125.288 325.277C124.365 325.277 123.903 325.738 123.903 326.661C123.903 327.583 123.442 328.045 122.519 328.045C121.596 328.045 121.135 328.507 121.135 329.429C121.135 330.352 120.673 330.813 119.75 330.813C118.827 330.813 118.366 331.275 118.366 332.198C118.366 333.12 117.904 333.582 116.981 333.582C116.176 333.582 115.597 334.043 115.597 334.685C115.597 335.291 114.974 335.951 114.213 336.149C113.451 336.349 112.828 336.906 112.828 337.388C112.828 337.871 112.205 338.428 111.444 338.627C110.682 338.826 110.059 339.448 110.059 340.011C110.059 340.573 109.436 341.196 108.675 341.395C107.914 341.594 107.291 342.253 107.291 342.86C107.291 343.467 106.823 343.963 106.252 343.963C105.681 343.963 105.214 344.459 105.214 345.066C105.214 345.672 104.591 346.332 103.83 346.531C103.063 346.731 102.445 347.474 102.445 348.196C102.445 349.038 101.955 349.5 101.061 349.5C100.138 349.5 99.6764 349.961 99.6764 350.884C99.6764 351.806 99.2148 352.268 98.2921 352.268C97.487 352.268 96.9077 352.729 96.9077 353.371C96.9077 353.977 96.2847 354.637 95.5233 354.835C94.7618 355.035 94.1389 355.658 94.1389 356.22C94.1389 356.782 93.5159 357.405 92.7545 357.604C91.9931 357.803 91.3701 358.397 91.3701 358.924C91.3701 359.45 90.7471 359.881 89.9857 359.881C89.063 359.881 88.6013 360.342 88.6013 361.265C88.6013 362.187 88.1396 362.649 87.2169 362.649C86.3226 362.649 85.8325 363.111 85.8325 363.952C85.8325 364.674 85.2144 365.417 84.4481 365.618C83.6867 365.817 83.0637 366.476 83.0637 367.082C83.0637 367.724 82.4843 368.186 81.6793 368.186C80.7566 368.186 80.2949 368.647 80.2949 369.57C80.2949 370.492 79.8332 370.954 78.9105 370.954C77.9878 370.954 77.5261 371.416 77.5261 372.338C77.5261 373.107 77.0644 373.722 76.4878 373.722C75.9168 373.722 75.4495 374.218 75.4495 374.825C75.4495 375.432 74.8266 376.091 74.0651 376.29C73.3037 376.489 72.6807 377.083 72.6807 377.61C72.6807 378.136 72.0578 378.567 71.2963 378.567C70.3736 378.567 69.912 379.028 69.912 379.951C69.912 380.873 69.4503 381.335 68.5276 381.335C67.6049 381.335 67.1432 381.797 67.1432 382.719C67.1432 383.642 66.6815 384.103 65.7588 384.103C64.8361 384.103 64.3744 384.565 64.3744 385.488C64.3744 386.41 63.9127 386.872 62.99 386.872C62.0673 386.872 61.6056 387.333 61.6056 388.256C61.6056 389.178 61.1439 389.64 60.2212 389.64C59.2985 389.64 58.8368 390.102 58.8368 391.024C58.8368 391.947 58.3751 392.408 57.4524 392.408C56.5297 392.408 56.068 392.87 56.068 393.793C56.068 394.905 55.6063 395.177 53.7221 395.177C51.604 395.177 51.3341 395.404 50.9367 397.523C50.6502 399.05 50.0189 399.994 49.1287 400.226C48.377 400.423 47.7616 401.066 47.7616 401.655C47.7616 402.332 46.8687 402.894 45.3389 403.181C43.5856 403.51 42.9162 403.997 42.9162 404.943C42.9162 405.788 42.4276 406.25 41.5319 406.25C40.7704 406.25 40.1475 406.681 40.1475 407.207C40.1475 407.734 39.5245 408.328 38.7631 408.527C38.0016 408.726 37.3787 409.348 37.3787 409.911C37.3787 410.473 36.7557 411.096 35.9943 411.295C35.2329 411.494 34.6099 412.153 34.6099 412.76C34.6099 413.367 34.1426 413.863 33.5716 413.863C33.0005 413.863 32.5333 414.359 32.5333 414.966C32.5333 415.572 31.9103 416.232 31.1489 416.43C30.3826 416.631 29.7645 417.374 29.7645 418.096C29.7645 418.938 29.2744 419.399 28.3801 419.399C27.4574 419.399 26.9957 419.861 26.9957 420.784C26.9957 421.706 26.534 422.168 25.6113 422.168C24.6886 422.168 24.2269 422.629 24.2269 423.552C24.2269 424.474 23.7652 424.936 22.8425 424.936C21.9198 424.936 21.4581 425.398 21.4581 426.32C21.4581 427.081 21.0047 427.704 20.451 427.704C19.8488 427.704 19.2618 428.677 18.9897 430.127C18.7295 431.514 18.1245 432.549 17.5742 432.549C16.8606 432.549 16.6127 433.62 16.6127 436.701C16.6127 439.931 16.8432 440.854 17.651 440.854C18.3765 440.854 18.6893 441.585 18.6893 443.276C18.6893 445.237 18.9531 445.698 20.0737 445.698C20.9757 445.698 21.4581 446.16 21.4581 447.022C21.4581 448.027 22.1254 448.458 24.2269 448.813C25.929 449.1 26.9957 449.657 26.9957 450.258C26.9957 450.981 27.9855 451.235 30.8028 451.235C33.7252 451.235 34.6099 450.994 34.6099 450.197C34.6099 449.604 35.2322 449.159 36.0593 449.159C36.9204 449.159 37.6535 448.604 37.866 447.792C38.0986 446.902 39.0427 446.271 40.5697 445.984C42.2531 445.669 42.9162 445.175 42.9162 444.237C42.9162 443.392 43.4049 442.93 44.3006 442.93C45.2233 442.93 45.685 442.468 45.685 441.546C45.685 440.777 46.1467 440.162 46.7233 440.162C47.2944 440.162 47.7616 439.666 47.7616 439.059C47.7616 438.452 48.3846 437.793 49.146 437.594C49.9074 437.395 50.5304 436.801 50.5304 436.274C50.5304 435.748 51.1534 435.317 51.9148 435.317C52.8375 435.317 53.2992 434.856 53.2992 433.933C53.2992 433.038 53.7609 432.549 54.6068 432.549C55.5523 432.549 56.0396 431.88 56.3684 430.127C56.6404 428.677 57.2274 427.704 57.8297 427.704C58.3834 427.704 58.8368 427.081 58.8368 426.32C58.8368 425.377 59.2985 424.936 60.2863 424.936C61.1529 424.936 61.8804 424.38 62.097 423.552C62.2964 422.791 62.8903 422.168 63.4171 422.168C63.9431 422.168 64.3744 421.545 64.3744 420.784C64.3744 419.861 64.8361 419.399 65.7588 419.399C66.6815 419.399 67.1432 418.938 67.1432 418.015C67.1432 417.093 67.6049 416.631 68.5276 416.631C69.4503 416.631 69.912 416.169 69.912 415.247C69.912 414.324 70.3736 413.863 71.2963 413.863C72.219 413.863 72.6807 413.401 72.6807 412.479C72.6807 411.717 73.112 411.094 73.6381 411.094C74.1648 411.094 74.7587 410.472 74.9581 409.71C75.1747 408.882 75.9022 408.326 76.7689 408.326C77.5663 408.326 78.2183 407.895 78.2183 407.369C78.2183 406.842 78.8413 406.249 79.6027 406.049C80.3641 405.851 80.9871 405.191 80.9871 404.585C80.9871 403.978 81.4543 403.482 82.0254 403.482C82.602 403.482 83.0637 402.866 83.0637 402.097C83.0637 401.175 83.5254 400.713 84.4481 400.713C85.3708 400.713 85.8325 400.252 85.8325 399.329C85.8325 398.407 86.2942 397.945 87.2169 397.945C88.1396 397.945 88.6013 397.483 88.6013 396.561C88.6013 395.638 89.063 395.177 89.9857 395.177C90.9084 395.177 91.3701 394.715 91.3701 393.793C91.3701 392.87 91.8318 392.408 92.7545 392.408C93.6772 392.408 94.1389 391.947 94.1389 391.024C94.1389 389.912 94.6006 389.64 96.4847 389.64C98.6029 389.64 98.8728 389.412 99.2701 387.294C99.5567 385.767 100.188 384.823 101.078 384.591C101.83 384.394 102.445 383.751 102.445 383.162C102.445 382.49 103.326 381.925 104.803 381.648C106.804 381.272 107.227 380.853 107.598 378.874C107.971 376.887 108.388 376.477 110.432 376.094C111.75 375.847 112.828 375.248 112.828 374.764C112.828 374.28 113.451 373.721 114.213 373.522C114.974 373.323 115.597 372.663 115.597 372.057C115.597 371.416 116.176 370.954 116.981 370.954C117.904 370.954 118.366 370.492 118.366 369.57C118.366 368.647 118.827 368.186 119.75 368.186C120.673 368.186 121.135 367.724 121.135 366.801C121.135 365.879 121.596 365.417 122.519 365.417C123.442 365.417 123.903 364.956 123.903 364.033C123.903 363.111 124.365 362.649 125.288 362.649C126.049 362.649 126.672 362.218 126.672 361.692C126.672 361.165 127.295 360.571 128.057 360.372C128.818 360.173 129.441 359.551 129.441 358.988C129.441 358.426 130.064 357.803 130.825 357.604C131.587 357.405 132.21 356.746 132.21 356.139C132.21 355.532 132.677 355.036 133.248 355.036C133.825 355.036 134.286 354.421 134.286 353.652C134.286 352.729 134.748 352.268 135.671 352.268C136.593 352.268 137.055 351.806 137.055 350.884C137.055 349.961 137.517 349.5 138.44 349.5C139.362 349.5 139.824 349.038 139.824 348.115C139.824 347.193 140.286 346.731 141.208 346.731C142.131 346.731 142.593 346.27 142.593 345.347C142.593 344.227 143.054 343.963 145.015 343.963C146.976 343.963 147.438 343.699 147.438 342.579C147.438 341.683 147.9 341.195 148.746 341.195C149.689 341.195 150.178 340.527 150.502 338.799C150.889 336.74 151.289 336.34 153.348 335.953C155.077 335.629 155.744 335.14 155.744 334.197C155.744 333.351 156.233 332.89 157.129 332.89C158.052 332.89 158.513 332.428 158.513 331.505C158.513 330.583 158.975 330.121 159.898 330.121C160.82 330.121 161.282 329.66 161.282 328.737C161.282 327.976 161.735 327.353 162.289 327.353C162.891 327.353 163.478 326.381 163.75 324.931C164.079 323.178 164.567 322.508 165.512 322.508C166.231 322.508 166.82 322.041 166.82 321.47C166.82 320.899 167.316 320.432 167.923 320.432C168.529 320.432 169.189 319.809 169.388 319.048C169.587 318.287 170.21 317.664 170.772 317.664C171.335 317.664 171.958 317.041 172.156 316.28C172.356 315.518 172.979 314.896 173.541 314.896C174.104 314.896 174.724 314.28 174.921 313.529C175.154 312.639 176.098 312.008 177.625 311.721C179.308 311.405 179.971 310.912 179.971 309.974C179.971 309.255 180.403 308.667 180.929 308.667C181.455 308.667 182.049 308.044 182.249 307.283C182.447 306.521 183.07 305.899 183.633 305.899C184.195 305.899 184.818 305.276 185.017 304.514C185.216 303.753 185.876 303.13 186.482 303.13C187.089 303.13 187.586 302.663 187.586 302.092C187.586 301.516 188.201 301.054 188.97 301.054C189.893 301.054 190.354 300.592 190.354 299.67C190.354 298.747 190.816 298.286 191.739 298.286C192.661 298.286 193.123 297.824 193.123 296.902C193.123 295.979 193.585 295.517 194.508 295.517C195.43 295.517 195.892 295.056 195.892 294.133C195.892 293.211 196.354 292.749 197.276 292.749C198.199 292.749 198.661 292.287 198.661 291.365C198.661 290.442 199.122 289.981 200.045 289.981C200.814 289.981 201.429 289.519 201.429 288.943C201.429 288.366 202.045 287.905 202.814 287.905C203.737 287.905 204.198 287.443 204.198 286.52C204.198 285.598 204.66 285.136 205.583 285.136C206.505 285.136 206.967 284.675 206.967 283.752C206.967 282.83 207.429 282.368 208.351 282.368C209.274 282.368 209.736 281.906 209.736 280.984C209.736 280.061 210.198 279.6 211.12 279.6C212.043 279.6 212.505 279.138 212.505 278.215C212.505 277.103 212.966 276.831 214.85 276.831C216.983 276.831 217.237 276.611 217.65 274.409C217.938 272.88 218.5 271.987 219.177 271.987C219.766 271.987 220.41 271.372 220.606 270.62C220.839 269.73 221.783 269.099 223.31 268.812C224.993 268.497 225.656 268.003 225.656 267.065C225.656 266.346 226.11 265.758 226.664 265.758C227.266 265.758 227.853 264.786 228.125 263.336C228.454 261.583 228.941 260.913 229.886 260.913C230.732 260.913 231.194 260.425 231.194 259.529C231.194 258.299 231.656 258.145 235.347 258.145C238.578 258.145 239.5 258.376 239.5 259.183C239.5 259.754 239.94 260.221 240.478 260.221C241.079 260.221 241.636 261.288 241.923 262.99C242.185 264.539 242.782 265.758 243.28 265.758C243.782 265.758 244.362 266.964 244.612 268.526C244.898 270.317 245.418 271.295 246.085 271.295C246.653 271.295 247.115 271.915 247.115 272.679C247.115 273.601 247.576 274.063 248.499 274.063C249.653 274.063 249.883 274.525 249.883 276.831C249.883 279.138 250.114 279.6 251.268 279.6C252.422 279.6 252.652 280.061 252.652 282.368C252.652 284.675 252.883 285.136 254.037 285.136C255.148 285.136 255.421 285.598 255.421 287.478C255.421 289.237 255.765 289.909 256.805 290.181C257.634 290.398 258.19 291.125 258.19 291.992C258.19 292.789 258.621 293.441 259.147 293.441C260.196 293.441 260.934 295.495 260.949 298.459C260.955 299.685 261.328 300.362 261.997 300.362C262.589 300.362 263.035 300.984 263.035 301.811C263.035 302.654 263.587 303.404 264.354 303.605C265.195 303.824 265.834 304.806 266.116 306.308C266.36 307.605 266.972 308.667 267.478 308.667C268.013 308.667 268.58 309.819 268.838 311.435C269.125 313.226 269.645 314.204 270.311 314.204C271.051 314.204 271.341 314.982 271.341 316.972C271.341 319.279 271.572 319.74 272.726 319.74C273.649 319.74 274.11 320.202 274.11 321.124C274.11 322.047 274.572 322.508 275.495 322.508C276.606 322.508 276.879 322.97 276.879 324.85C276.879 326.61 277.223 327.282 278.263 327.554C279.324 327.831 279.648 328.498 279.648 330.402C279.648 332.428 279.905 332.89 281.032 332.89C281.955 332.89 282.417 333.351 282.417 334.274C282.417 335.035 282.856 335.658 283.394 335.658C283.995 335.658 284.552 336.724 284.839 338.426C285.11 340.027 285.693 341.195 286.224 341.195C286.754 341.195 287.337 342.362 287.608 343.963C287.873 345.527 288.466 346.731 288.972 346.731C289.466 346.731 290.032 347.354 290.232 348.115C290.43 348.877 291.055 349.5 291.619 349.5C292.244 349.5 292.823 350.447 293.1 351.922C293.372 353.372 293.959 354.344 294.561 354.344C295.269 354.344 295.568 355.141 295.568 357.031C295.568 359.137 295.868 359.798 296.953 360.081C298.013 360.358 298.337 361.025 298.337 362.93C298.337 364.956 298.594 365.417 299.722 365.417C300.875 365.417 301.106 365.879 301.106 368.186C301.106 370.147 301.399 370.954 302.113 370.954C302.71 370.954 303.3 371.913 303.563 373.313C303.844 374.815 304.484 375.796 305.324 376.016C306.092 376.216 306.644 376.967 306.644 377.81C306.644 378.617 307.09 379.259 307.651 379.259C308.253 379.259 308.84 380.231 309.112 381.681C309.362 383.013 309.972 384.103 310.467 384.103C310.978 384.103 311.569 385.301 311.835 386.872C312.101 388.443 312.692 389.64 313.203 389.64C313.698 389.64 314.308 390.73 314.558 392.062C314.83 393.512 315.417 394.485 316.019 394.485C316.632 394.485 317.026 395.162 317.026 396.215C317.026 397.483 317.395 397.945 318.411 397.945C319.532 397.945 319.795 398.407 319.795 400.367C319.795 402.328 320.059 402.79 321.18 402.79C322.334 402.79 322.564 403.251 322.564 405.558C322.564 407.865 322.795 408.326 323.948 408.326C324.871 408.326 325.333 408.788 325.333 409.71C325.333 410.472 325.772 411.094 326.31 411.094C326.911 411.094 327.468 412.161 327.756 413.863C328.041 415.552 328.601 416.631 329.193 416.631C329.788 416.631 330.333 417.698 330.605 419.399C330.85 420.932 331.437 422.168 331.921 422.168C332.4 422.168 332.998 423.258 333.247 424.59C333.504 425.955 334.115 427.012 334.648 427.012C335.213 427.012 335.783 428.129 336.062 429.781C336.328 431.352 336.919 432.549 337.43 432.549C337.925 432.549 338.535 433.639 338.785 434.971C339.057 436.421 339.644 437.393 340.246 437.393C340.859 437.393 341.253 438.071 341.253 439.124C341.253 440.392 341.622 440.854 342.638 440.854C343.56 440.854 344.022 441.315 344.022 442.238C344.022 442.999 344.453 443.622 344.979 443.622C345.506 443.622 346.1 444.245 346.3 445.006C346.516 445.835 347.244 446.39 348.11 446.39C348.937 446.39 349.56 446.836 349.56 447.429C349.56 448.278 350.752 448.467 356.136 448.467C362.25 448.467 362.712 448.37 362.712 447.083C362.712 446.16 363.173 445.698 364.096 445.698C365.019 445.698 365.48 445.237 365.48 444.314C365.48 443.392 365.942 442.93 366.865 442.93C367.787 442.93 368.249 442.468 368.249 441.546C368.249 440.785 368.703 440.162 369.256 440.162C369.858 440.162 370.445 439.189 370.717 437.739C370.967 436.407 371.577 435.317 372.072 435.317C372.584 435.317 373.175 434.12 373.441 432.549C373.728 430.847 374.285 429.781 374.886 429.781C375.424 429.781 375.863 429.284 375.863 428.677C375.863 428.071 376.486 427.412 377.248 427.213C378.332 426.929 378.632 426.269 378.632 424.163C378.632 421.937 378.869 421.476 380.016 421.476C381.137 421.476 381.401 421.014 381.401 419.053C381.401 417.093 381.665 416.631 382.785 416.631C383.939 416.631 384.17 416.169 384.17 413.863C384.17 411.556 384.4 411.094 385.554 411.094C386.477 411.094 386.938 410.633 386.938 409.71C386.938 408.946 387.4 408.326 387.968 408.326C388.635 408.326 389.155 407.349 389.441 405.558C389.7 403.941 390.267 402.79 390.802 402.79C391.308 402.79 391.926 401.7 392.176 400.367C392.425 399.035 393.035 397.945 393.53 397.945C394.042 397.945 394.633 396.748 394.899 395.177C395.186 393.475 395.743 392.408 396.344 392.408C396.882 392.408 397.321 391.785 397.321 391.024C397.321 390.102 397.783 389.64 398.706 389.64C399.833 389.64 400.09 389.178 400.09 387.153C400.09 385.289 400.42 384.58 401.41 384.321C402.25 384.101 402.889 383.12 403.171 381.617C403.434 380.218 404.023 379.259 404.621 379.259C405.233 379.259 405.628 378.581 405.628 377.529C405.628 376.26 405.997 375.798 407.012 375.798C408.133 375.798 408.397 375.337 408.397 373.376C408.397 371.416 408.66 370.954 409.781 370.954C410.935 370.954 411.165 370.492 411.165 368.186C411.165 365.879 411.396 365.417 412.55 365.417C413.472 365.417 413.934 364.956 413.934 364.033C413.934 363.272 414.374 362.649 414.912 362.649C415.512 362.649 416.07 361.583 416.357 359.881C416.621 358.317 417.214 357.112 417.721 357.112C418.215 357.112 418.781 356.489 418.98 355.728C419.179 354.967 419.804 354.344 420.368 354.344C420.992 354.344 421.572 353.397 421.849 351.922C422.105 350.556 422.716 349.5 423.249 349.5C423.814 349.5 424.384 348.382 424.663 346.731C424.95 345.029 425.508 343.963 426.109 343.963C426.646 343.963 427.086 343.34 427.086 342.579C427.086 341.656 427.548 341.195 428.47 341.195C429.624 341.195 429.855 340.733 429.855 338.426C429.855 336.12 430.085 335.658 431.239 335.658C432.36 335.658 432.623 335.196 432.623 333.236C432.623 331.275 432.887 330.813 434.008 330.813C434.931 330.813 435.392 330.352 435.392 329.429C435.392 328.668 435.832 328.045 436.37 328.045C436.97 328.045 437.528 326.979 437.815 325.277C438.079 323.713 438.673 322.508 439.179 322.508C439.673 322.508 440.239 321.886 440.438 321.124C440.637 320.363 441.269 319.74 441.842 319.74C442.519 319.74 443.049 318.768 443.353 316.972C443.618 315.401 444.209 314.204 444.721 314.204C445.216 314.204 445.826 313.113 446.076 311.781C446.348 310.331 446.935 309.359 447.537 309.359C448.098 309.359 448.544 308.717 448.544 307.91C448.544 307.043 449.1 306.316 449.928 306.099C450.969 305.827 451.313 305.155 451.313 303.395C451.313 301.516 451.586 301.054 452.697 301.054C453.851 301.054 454.082 300.592 454.082 298.286C454.082 295.979 454.312 295.517 455.466 295.517C456.578 295.517 456.85 295.056 456.85 293.176C456.85 291.416 457.194 290.744 458.235 290.472C459.063 290.256 459.619 289.528 459.619 288.662C459.619 287.855 460.066 287.212 460.626 287.212C461.229 287.212 461.816 286.24 462.088 284.79C462.337 283.458 462.947 282.368 463.442 282.368C463.954 282.368 464.545 281.171 464.811 279.6C465.098 277.898 465.655 276.831 466.256 276.831C466.794 276.831 467.233 276.208 467.233 275.447C467.233 274.545 467.695 274.063 468.557 274.063C469.562 274.063 469.993 273.396 470.348 271.295C470.614 269.724 471.205 268.526 471.717 268.526C472.212 268.526 472.821 267.436 473.071 266.104C473.343 264.654 473.93 263.682 474.533 263.682C475.145 263.682 475.54 263.004 475.54 261.952C475.54 260.683 475.909 260.221 476.924 260.221C478.045 260.221 478.309 259.76 478.309 257.799C478.309 255.838 478.572 255.377 479.693 255.377C480.616 255.377 481.077 254.915 481.077 253.993C481.077 253.231 481.517 252.609 482.055 252.609C482.656 252.609 483.213 251.542 483.5 249.84C483.766 248.269 484.357 247.072 484.868 247.072C485.363 247.072 485.973 245.982 486.223 244.65C486.495 243.2 487.082 242.227 487.684 242.227C488.245 242.227 488.691 241.585 488.691 240.778C488.691 239.912 489.247 239.184 490.076 238.968C491.116 238.696 491.46 238.024 491.46 236.264C491.46 234.384 491.733 233.922 492.845 233.922C493.767 233.922 494.229 233.461 494.229 232.538C494.229 231.616 494.691 231.154 495.613 231.154C496.767 231.154 496.998 230.693 496.998 228.386C496.998 226.079 497.228 225.618 498.382 225.618C499.305 225.618 499.767 225.156 499.767 224.233C499.767 223.469 500.228 222.849 500.797 222.849C501.463 222.849 501.983 221.872 502.27 220.081C502.603 217.994 503.032 217.313 504.008 217.313C505.028 217.313 505.304 216.796 505.304 214.89C505.304 212.93 505.568 212.468 506.689 212.468C507.611 212.468 508.073 212.006 508.073 211.084C508.073 210.323 508.513 209.7 509.05 209.7C509.651 209.7 510.208 208.633 510.496 206.931C510.762 205.36 511.353 204.163 511.864 204.163C512.359 204.163 512.969 203.073 513.219 201.741C513.491 200.291 514.078 199.319 514.68 199.319C515.241 199.319 515.687 198.676 515.687 197.869C515.687 197.003 516.243 196.275 517.072 196.059C518.121 195.784 518.456 195.115 518.456 193.291C518.456 191.466 518.791 190.796 519.84 190.522C520.881 190.25 521.225 189.578 521.225 187.818C521.225 185.939 521.497 185.477 522.609 185.477C523.532 185.477 523.994 185.015 523.994 184.093C523.994 182.972 524.455 182.709 526.416 182.709C528.377 182.709 528.839 182.972 528.839 184.093C528.839 184.985 529.301 185.477 530.137 185.477C531.441 185.477 532.3 187.815 532.3 191.365C532.3 192.347 532.816 193.064 533.684 193.291C534.734 193.565 535.069 194.235 535.069 196.059C535.069 197.883 535.404 198.552 536.453 198.827C537.215 199.026 537.838 199.685 537.838 200.292C537.838 200.899 538.305 201.395 538.876 201.395C539.625 201.395 539.914 202.164 539.914 204.163C539.914 206.47 540.145 206.931 541.298 206.931C542.397 206.931 542.685 207.396 542.693 209.181C542.706 212.468 543.403 214.544 544.494 214.544C545.054 214.544 545.452 215.263 545.452 216.274C545.452 217.543 545.821 218.005 546.836 218.005C547.957 218.005 548.22 218.466 548.22 220.427C548.22 222.388 548.484 222.849 549.605 222.849C550.836 222.849 550.989 223.311 550.989 227.002C550.989 230.693 551.143 231.154 552.374 231.154C553.296 231.154 553.758 231.616 553.758 232.538C553.758 233.302 554.22 233.922 554.788 233.922C555.455 233.922 555.974 234.9 556.261 236.691C556.505 238.213 557.092 239.459 557.567 239.459C558.44 239.459 559.296 242.413 559.296 245.428C559.296 246.428 559.703 247.072 560.334 247.072C560.926 247.072 561.372 247.694 561.372 248.521C561.372 249.382 561.927 250.115 562.739 250.327C563.629 250.56 564.261 251.504 564.547 253.031C564.797 254.36 565.404 255.377 565.948 255.377C566.609 255.377 566.91 256.245 566.91 258.145C566.91 260.452 567.14 260.913 568.294 260.913C569.448 260.913 569.679 261.375 569.679 263.682C569.679 265.643 569.972 266.45 570.686 266.45C571.288 266.45 571.875 267.422 572.147 268.872C572.397 270.205 573.007 271.295 573.502 271.295C574.013 271.295 574.604 272.492 574.87 274.063C575.155 275.752 575.716 276.831 576.307 276.831C576.902 276.831 577.447 277.898 577.719 279.6C578.053 281.686 578.481 282.368 579.458 282.368C580.292 282.368 580.754 282.861 580.754 283.752C580.754 284.521 581.215 285.136 581.792 285.136C582.423 285.136 582.83 285.781 582.83 286.78C582.83 289.829 583.689 292.749 584.586 292.749C585.086 292.749 585.683 293.964 585.945 295.517C586.232 297.219 586.79 298.286 587.391 298.286C588.051 298.286 588.368 299.092 588.368 300.773C588.368 302.678 588.692 303.345 589.752 303.622C590.78 303.891 591.137 304.566 591.137 306.245C591.137 307.924 591.493 308.598 592.521 308.868C593.621 309.155 593.906 309.812 593.906 312.062C593.906 314.434 594.131 314.896 595.29 314.896C596.411 314.896 596.674 315.357 596.674 317.318C596.674 319.279 596.938 319.74 598.059 319.74C598.981 319.74 599.443 320.202 599.443 321.124C599.443 322.047 599.905 322.508 600.827 322.508C601.75 322.508 602.212 322.97 602.212 323.893C602.212 324.815 602.674 325.277 603.596 325.277C604.365 325.277 604.981 325.738 604.981 326.315C604.981 327.112 605.865 327.353 608.788 327.353C611.71 327.353 612.595 327.112 612.595 326.315C612.595 325.565 613.364 325.277 615.364 325.277C617.671 325.277 618.132 325.046 618.132 323.893C618.132 322.97 618.594 322.508 619.517 322.508C620.44 322.508 620.901 322.047 620.901 321.124C620.901 320.202 621.363 319.74 622.286 319.74C623.208 319.74 623.67 319.279 623.67 318.356C623.67 317.433 624.132 316.972 625.054 316.972C625.977 316.972 626.439 316.51 626.439 315.588C626.439 314.819 626.9 314.204 627.477 314.204C628.048 314.204 628.515 313.707 628.515 313.1C628.515 312.494 629.138 311.835 629.9 311.636C630.661 311.437 631.284 310.814 631.284 310.252C631.284 309.689 631.907 309.066 632.669 308.868C633.435 308.667 634.053 307.924 634.053 307.202C634.053 306.36 634.543 305.899 635.437 305.899C636.206 305.899 636.822 305.437 636.822 304.86C636.822 304.284 637.437 303.822 638.206 303.822C639.1 303.822 639.591 303.361 639.591 302.519C639.591 301.797 640.209 301.054 640.975 300.853C641.736 300.655 642.359 299.995 642.359 299.389C642.359 298.782 642.827 298.286 643.398 298.286C643.974 298.286 644.436 297.67 644.436 296.902C644.436 295.979 644.898 295.517 645.82 295.517C646.743 295.517 647.205 295.056 647.205 294.133C647.205 293.238 647.666 292.749 648.512 292.749C649.458 292.749 649.945 292.08 650.274 290.327C650.546 288.877 651.133 287.905 651.735 287.905C652.289 287.905 652.742 287.282 652.742 286.52C652.742 285.577 653.204 285.136 654.192 285.136C655.058 285.136 655.786 284.58 656.003 283.752C656.202 282.991 656.796 282.368 657.323 282.368C657.849 282.368 658.28 281.745 658.28 280.984C658.28 280.061 658.742 279.6 659.664 279.6C660.587 279.6 661.049 279.138 661.049 278.215C661.049 277.293 661.51 276.831 662.433 276.831C663.356 276.831 663.817 276.37 663.817 275.447C663.817 274.686 664.249 274.063 664.775 274.063C665.302 274.063 665.895 273.44 666.095 272.679C666.293 271.918 666.916 271.295 667.479 271.295C668.041 271.295 668.664 270.672 668.864 269.911C669.062 269.149 669.722 268.526 670.328 268.526C670.97 268.526 671.432 267.947 671.432 267.142C671.432 266.247 671.893 265.758 672.739 265.758C673.685 265.758 674.172 265.089 674.501 263.336C674.773 261.886 675.36 260.913 675.962 260.913C676.516 260.913 676.969 260.291 676.969 259.529C676.969 258.607 677.431 258.145 678.354 258.145C679.276 258.145 679.738 257.684 679.738 256.761C679.738 255.838 680.2 255.377 681.122 255.377C682.045 255.377 682.507 254.915 682.507 253.993C682.507 253.07 682.968 252.609 683.891 252.609C684.814 252.609 685.276 252.147 685.276 251.224C685.276 250.302 685.737 249.84 686.66 249.84C687.583 249.84 688.044 249.379 688.044 248.456C688.044 247.695 688.476 247.072 689.002 247.072C689.528 247.072 690.122 246.449 690.322 245.688C690.538 244.859 691.266 244.304 692.132 244.304C693.12 244.304 693.582 243.863 693.582 242.919C693.582 242.151 694.044 241.535 694.62 241.535C695.191 241.535 695.659 241.068 695.659 240.497C695.659 239.921 696.274 239.459 697.043 239.459C697.966 239.459 698.427 238.997 698.427 238.075C698.427 237.152 698.889 236.691 699.812 236.691C700.734 236.691 701.196 236.229 701.196 235.307C701.196 234.384 701.658 233.922 702.581 233.922C703.503 233.922 703.965 233.461 703.965 232.538C703.965 231.616 704.427 231.154 705.349 231.154C706.272 231.154 706.734 230.693 706.734 229.77C706.734 228.847 707.195 228.386 708.118 228.386C709.041 228.386 709.503 227.924 709.503 227.002C709.503 226.079 709.964 225.618 710.887 225.618C711.81 225.618 712.271 225.156 712.271 224.233C712.271 223.311 712.733 222.849 713.656 222.849C714.578 222.849 715.04 222.388 715.04 221.465C715.04 220.542 715.502 220.081 716.424 220.081C717.194 220.081 717.809 219.619 717.809 219.043C717.809 218.472 718.276 218.005 718.847 218.005C719.44 218.005 719.885 217.382 719.885 216.555C719.885 215.712 720.437 214.962 721.205 214.762C722.045 214.542 722.685 213.561 722.966 212.058C723.212 210.754 723.828 209.7 724.347 209.7C725.466 209.7 725.923 205.387 725.533 198.497C725.303 194.431 725.087 193.782 723.96 193.782C723.136 193.782 722.654 193.294 722.654 192.459C722.654 191.454 721.987 191.023 719.885 190.668C718.183 190.38 717.117 189.823 717.117 189.222C717.117 188.499 716.127 188.245 713.31 188.245C709.964 188.245 709.503 188.413 709.503 189.629C709.503 190.552 709.041 191.014 708.118 191.014C707.357 191.014 706.734 191.453 706.734 191.991C706.734 192.592 705.667 193.149 703.965 193.436C701.863 193.791 701.196 194.222 701.196 195.227C701.196 195.955 700.765 196.55 700.239 196.55C699.712 196.55 699.118 197.173 698.919 197.934C698.72 198.696 698.097 199.319 697.534 199.319C696.972 199.319 696.349 199.941 696.15 200.703C695.951 201.464 695.306 202.087 694.716 202.087C694.04 202.087 693.477 202.98 693.19 204.509C692.93 205.897 692.325 206.931 691.775 206.931C691.246 206.931 690.813 207.554 690.813 208.316C690.813 209.21 690.351 209.7 689.51 209.7C688.788 209.7 688.044 210.318 687.844 211.084C687.645 211.845 686.985 212.468 686.379 212.468C685.737 212.468 685.276 213.047 685.276 213.852C685.276 214.775 684.814 215.236 683.891 215.236C682.968 215.236 682.507 215.698 682.507 216.62C682.507 217.543 682.045 218.005 681.122 218.005C680.2 218.005 679.738 218.466 679.738 219.389C679.738 220.15 679.307 220.773 678.781 220.773C678.254 220.773 677.66 221.396 677.461 222.157C677.262 222.918 676.639 223.541 676.076 223.541C675.514 223.541 674.891 224.164 674.692 224.925C674.493 225.687 673.87 226.31 673.307 226.31C672.745 226.31 672.122 226.932 671.923 227.694C671.724 228.455 671.079 229.078 670.49 229.078C669.813 229.078 669.25 229.971 668.963 231.5C668.634 233.253 668.147 233.922 667.202 233.922C666.482 233.922 665.894 234.39 665.894 234.961C665.894 235.532 665.427 235.999 664.856 235.999C664.285 235.999 663.817 236.587 663.817 237.306C663.817 238.249 663.15 238.738 661.421 239.063C659.362 239.449 658.962 239.849 658.575 241.908C658.251 243.636 657.762 244.304 656.819 244.304C655.973 244.304 655.511 244.792 655.511 245.688C655.511 246.61 655.049 247.072 654.127 247.072C653.204 247.072 652.742 247.534 652.742 248.456C652.742 249.379 652.281 249.84 651.358 249.84C650.435 249.84 649.974 250.302 649.974 251.224C649.974 252.147 649.512 252.609 648.589 252.609C647.828 252.609 647.205 253.062 647.205 253.616C647.205 254.218 646.232 254.805 644.782 255.076C642.579 255.49 642.359 255.744 642.359 257.876C642.359 259.76 642.087 260.221 640.975 260.221C640.052 260.221 639.591 260.683 639.591 261.606C639.591 262.528 639.129 262.99 638.206 262.99C637.312 262.99 636.822 263.451 636.822 264.293C636.822 265.015 636.204 265.758 635.437 265.959C634.676 266.157 634.053 266.78 634.053 267.343C634.053 267.905 633.43 268.528 632.669 268.727C631.907 268.926 631.284 269.549 631.284 270.111C631.284 270.673 630.661 271.296 629.9 271.495C629.138 271.694 628.515 272.354 628.515 272.96C628.515 273.567 628.048 274.063 627.477 274.063C626.9 274.063 626.439 274.678 626.439 275.447C626.439 276.37 625.977 276.831 625.054 276.831C624.132 276.831 623.67 277.293 623.67 278.215C623.67 279.138 623.208 279.6 622.286 279.6C621.165 279.6 620.901 280.061 620.901 282.022C620.901 283.983 620.637 284.444 619.517 284.444C618.625 284.444 618.132 284.906 618.132 285.742C618.132 287.266 615.113 288.097 611.903 287.455C610.482 287.17 609.826 286.63 609.826 285.742C609.826 285.028 609.359 284.444 608.788 284.444C608.217 284.444 607.749 283.948 607.749 283.341C607.749 282.735 607.16 282.084 606.439 281.896C605.143 281.557 604.288 279.097 604.288 275.707C604.288 274.525 603.9 274.063 602.904 274.063C601.783 274.063 601.52 273.601 601.52 271.641C601.52 270.049 601.194 269.218 600.57 269.218C599.997 269.218 599.444 268.12 599.177 266.45C598.912 264.794 598.356 263.682 597.793 263.682C597.229 263.682 596.674 262.57 596.408 260.913C596.136 259.212 595.592 258.145 594.996 258.145C594.405 258.145 593.845 257.066 593.559 255.377C593.272 253.675 592.715 252.609 592.114 252.609C591.435 252.609 591.137 251.763 591.137 249.84C591.137 247.534 590.906 247.072 589.752 247.072C588.598 247.072 588.368 246.61 588.368 244.304C588.368 241.997 588.137 241.535 586.984 241.535C585.863 241.535 585.599 241.074 585.599 239.113C585.599 237.488 585.277 236.691 584.622 236.691C584.021 236.691 583.464 235.624 583.176 233.922C582.906 232.322 582.322 231.154 581.792 231.154C581.262 231.154 580.678 229.987 580.408 228.386C580.137 226.785 579.553 225.618 579.023 225.618C578.493 225.618 577.91 224.45 577.639 222.849C577.36 221.198 576.79 220.081 576.225 220.081C575.692 220.081 575.08 219.024 574.824 217.659C574.564 216.271 573.959 215.236 573.409 215.236C572.88 215.236 572.447 214.613 572.447 213.852C572.447 212.93 571.986 212.468 571.063 212.468C569.909 212.468 569.679 212.006 569.679 209.7C569.679 207.71 569.389 206.931 568.649 206.931C567.982 206.931 567.462 205.954 567.176 204.163C566.911 202.507 566.355 201.395 565.791 201.395C565.228 201.395 564.672 200.283 564.407 198.626C564.163 197.102 563.573 195.858 563.095 195.858C562.085 195.858 561.395 193.697 561.382 190.495C561.375 188.961 561.042 188.245 560.334 188.245C559.757 188.245 559.296 187.63 559.296 186.861C559.296 185.969 558.834 185.477 557.998 185.477C556.683 185.477 555.835 183.136 555.835 179.508C555.835 178.533 555.426 177.864 554.831 177.864C554.117 177.864 553.691 176.662 553.357 173.712C553.037 170.884 552.584 169.559 551.938 169.559C551.416 169.559 550.989 168.907 550.989 168.11C550.989 167.243 550.433 166.516 549.605 166.299C548.736 166.072 548.22 165.355 548.22 164.374C548.22 161.331 547.343 158.486 546.403 158.486C545.755 158.486 545.452 157.605 545.452 155.718C545.452 153.411 545.221 152.949 544.067 152.949C542.956 152.949 542.683 152.488 542.683 150.608C542.683 148.848 542.339 148.176 541.298 147.904C540.238 147.627 539.914 146.96 539.914 145.055C539.914 143.03 539.657 142.568 538.53 142.568C537.607 142.568 537.145 142.106 537.145 141.184C537.145 140.423 536.714 139.8 536.188 139.8C535.661 139.8 535.067 139.177 534.868 138.416C534.538 137.153 533.924 137.031 527.866 137.031C521.686 137.031 521.225 137.128 521.225 138.416Z" fill="black"/>
</svg>
