<svg width="910" height="748" viewBox="0 0 910 748" fill="none" xmlns="http://www.w3.org/2000/svg">
<path fill-rule="evenodd" clip-rule="evenodd" d="M809.815 3.51919C777.776 21.7079 653.695 157.359 603.84 228.702L592.318 245.189L557.39 208.796C515.322 164.963 501.712 154.473 486.934 154.473C471.694 154.473 454.567 171.55 454.567 186.745C454.567 198.192 456.556 200.971 500.386 250.784C512.613 264.679 533.568 289.84 546.956 306.696C572.648 339.041 578.553 343.938 591.879 343.938C607.03 343.938 617.709 335.005 637.944 305.407C685.137 236.366 739.378 169.343 809.344 93.6101C850.026 49.5751 852.445 46.2342 852.445 34.0863C852.445 23.6594 850.405 19.1754 841.708 10.4789C830.533 -0.696415 820.933 -2.79318 809.815 3.51919ZM749.467 217.565C740.969 220.997 737.878 229.015 742.046 236.802C744.708 241.775 748.772 242.89 764.274 242.89H783.242L782.32 481.348L781.395 719.81L697.714 718.97L614.034 718.133V556.784C614.034 424.67 613.247 394.488 609.701 390.212C604.26 383.657 598.532 383.571 592.154 389.95C587.774 394.333 587.193 413.744 587.193 555.733V716.554H549.802H512.411L510.399 651.89C509.291 616.324 509.288 537.815 510.39 477.423C512.148 380.935 511.804 367.135 507.544 363.605C501.867 358.9 361.523 354.17 336.978 357.855C310.551 361.824 312.344 348.277 312.527 542.366L312.692 714.975L281.502 715.869L250.313 716.763L248.362 660.523C247.291 629.59 247.253 582.293 248.283 555.423C250.064 508.811 249.849 506.295 243.635 500.747C237.515 495.284 232.204 495.069 156.383 497.235C103.55 498.748 73.9113 500.813 70.6304 503.21C66.2127 506.44 65.6632 519.324 65.9853 611.717L66.3516 716.554H39.2075C24.2807 716.554 9.31611 718.026 5.95625 719.823C-1.20555 723.656 -2.1213 736.249 4.3679 741.636C7.77513 744.466 55.792 745.167 199.36 744.485C304.122 743.989 504.298 744.785 644.2 746.253C881.329 748.741 898.93 748.561 903.926 743.566C906.872 740.619 909.284 735.75 909.284 732.75C909.284 721.288 902.972 719.712 856.998 719.712H812.287L810.052 681.459C808.82 660.422 808.836 549.104 810.086 434.093L812.357 224.976L804.857 219.722C796.694 214.006 761.653 212.642 749.467 217.565ZM484.152 413.409C483.921 428.172 483.4 502.445 482.993 578.462L482.248 716.674L412.357 715.825L342.466 714.975L341.648 549.922L340.83 384.869L412.698 385.719L484.565 386.568L484.152 413.409ZM220.251 620.243L220.586 716.554H155.565H90.5432L92.5357 699.976C93.6315 690.86 94.5409 648.299 94.5535 605.401L94.582 527.404L112.739 526.264C122.724 525.639 150.926 524.856 175.408 524.528L219.92 523.931L220.251 620.243Z" fill="black"/>
</svg>
