<svg width="778" height="555" viewBox="0 0 778 555" fill="none" xmlns="http://www.w3.org/2000/svg">
<path fill-rule="evenodd" clip-rule="evenodd" d="M649.164 2.83997C602.79 15.6752 571.745 71.8236 584.421 119.944C593.543 154.572 605.222 169.868 632.684 183.162C675.628 203.951 715.721 195.504 747.866 158.892C765.9 138.352 776.315 106.089 770.118 89.9425C764.182 74.4711 756.659 81.0021 752.827 104.943C750.145 121.713 742.781 134.775 727.258 150.297C707.303 170.253 702.875 172.084 675.028 171.914C629.991 171.631 602.076 143.818 602.076 99.2288C602.076 49.6001 641.142 14.9325 690.754 20.5224C709.542 22.6427 715.461 21.3955 715.461 15.3237C715.461 10.93 712.275 6.36058 708.374 5.17003C689.019 -0.743008 665.469 -1.67276 649.164 2.83997ZM719.321 58.5121L674.994 109.246L657.793 89.6477C625.081 52.395 618.76 73.7568 650.893 112.971C664.001 128.97 673.928 136.442 678.503 133.766C689.41 127.382 777.823 20.4657 777.823 13.6626C777.823 -1.72378 760.044 11.9051 719.321 58.5121ZM364.052 96.9837C364.142 142.066 369.245 159.51 380.339 152.65C384.16 150.292 386.644 129.899 386.644 100.901C386.644 56.8284 385.748 53.0469 375.305 53.0469C364.936 53.0469 363.972 56.8 364.052 96.9837ZM214.372 80.3558C210.188 87.1249 232.695 155.462 242.582 166.024C256.863 181.263 257.124 159.89 243.166 118.521C230.518 81.0134 221.419 68.9549 214.372 80.3558ZM503.221 105.488C499.059 115.619 493.832 132.439 491.604 142.865C488.146 159.068 489.008 161.528 497.546 159.873C503.033 158.801 510.749 148.999 514.684 138.086C529.764 96.2864 519.265 66.4321 503.221 105.488ZM46.4879 161.421C46.4879 172.254 87.1535 223.743 93.9283 221.486C104.263 218.039 101.514 208.702 82.0399 181.07C65.0435 156.959 46.4879 146.703 46.4879 161.421ZM305.522 206.644C260.588 213.215 186.445 239.475 140.875 264.958C96.145 289.977 23.6635 347.083 9.81349 368.218L0 383.196L30.3306 413.952C87.8962 472.323 166.931 519.854 243.16 541.947C281.422 553.036 300.516 554.777 383.809 554.777C495.08 554.777 535.955 547.078 612.53 511.685C697.359 472.47 784.58 399.41 772.811 377.419C762.714 358.558 704.927 308.288 660.599 279.817C557.096 213.323 433.715 187.902 305.522 206.644ZM460.1 244.487C536.941 283.247 560.917 379.199 513.833 459.544C485.442 507.982 419.026 539.94 362.368 532.423C267.997 519.905 213.862 430.427 241.868 333.267C249.629 306.344 257.577 293.803 281.825 270.191C332.967 220.404 394.705 211.497 460.1 244.487ZM539.714 244.322C588.696 260.321 663.156 303.095 706.152 339.923C729.98 360.338 749.476 380.379 749.476 384.461C749.476 395.017 710.109 429.208 661.166 461.16C621.13 487.295 568.882 510.239 519.871 523.204C479.166 533.97 475.345 531.051 500.454 508.362C513.176 496.871 530.405 474.545 538.733 458.756C552.22 433.194 553.881 423.856 553.881 373.36C553.887 321.912 552.464 314.247 538.512 290.515C530.059 276.132 513.913 256.262 502.631 246.357C482.159 228.38 482.154 228.357 498.164 232.173C506.985 234.271 525.682 239.741 539.714 244.322ZM263.048 255.723C219.599 301.786 202.103 371.399 219.202 430.212C229.815 466.71 255.859 508.617 273.956 518.3C294.495 529.293 280.708 530.586 247.123 520.823C197.619 506.435 132.201 471.365 85.5491 434.208C22.9265 384.33 23.5388 385.623 49.8385 358.501C93.0893 313.884 162.373 271.62 233.783 246.278C280.912 229.559 286.133 231.249 263.048 255.723ZM344.124 293.441C322.808 302.846 310.137 316.934 298.986 343.619C287.381 371.404 287.993 389.2 301.474 415.63C317.62 447.276 342.622 463.031 381.11 465.814C444.895 470.429 486.593 424.389 474.931 362.22C470.758 340.002 463.74 337.349 447.645 351.913C437.928 360.712 435.428 360.831 421.691 353.149C404.91 343.778 398.419 318.465 409.4 305.233C413.011 300.884 414.321 294.659 412.308 291.405C407.2 283.14 364.568 284.415 344.124 293.441Z" fill="black"/>
</svg>
