<svg width="838" height="716" viewBox="0 0 838 716" fill="none" xmlns="http://www.w3.org/2000/svg">
<path fill-rule="evenodd" clip-rule="evenodd" d="M5.75 0.404451C4.787 0.682451 4 1.57045 4 2.37845C4 3.18645 3.1 4.81346 2 5.99346C0.00800002 8.13246 0 9.52246 0 358.452C0 591.326 0.335 708.763 1 708.763C1.55 708.763 2 709.233 2 709.808C2 710.383 3.118 711.972 4.485 713.339L6.96899 715.823L419.545 715.779L832.12 715.734L834.56 713.294C838.032 709.822 837.951 703.623 834.387 700.06C829.52 695.192 873.049 695.573 395.51 696.22C106.031 696.611 26.922 696.456 24.72 695.49C23.181 694.815 21.711 693.363 21.455 692.263C21.198 691.163 20.878 536.343 20.744 348.218L20.5 6.17245L17.693 3.36545C14.91 0.58245 9.648 -0.722549 5.75 0.404451ZM655.75 48.6934C650.777 53.8174 650.807 56.8054 655.882 61.8814L659.765 65.7635H689.371C715.187 65.7635 719.219 65.9704 720.865 67.3794C722.706 68.9564 722.719 72.7635 720.883 72.7635C720.398 72.7635 720 73.2454 720 73.8344C720 75.0034 717.537 77.7635 716.494 77.7635C715.456 77.7635 690 103.743 690 104.803C690 105.331 689.518 105.763 688.929 105.763C687.544 105.763 685 108.307 685 109.692C685 110.281 684.518 110.763 683.929 110.763C682.778 110.763 680 113.219 680 114.237C680 115.272 675.161 119.763 674.045 119.763C673.47 119.763 673 120.235 673 120.812C673 122.167 661.388 133.763 660.031 133.763C659.464 133.763 659 134.233 659 134.808C659 136.166 654.403 140.763 653.045 140.763C652.47 140.763 652 141.245 652 141.834C652 143.219 649.456 145.763 648.071 145.763C647.482 145.763 647 146.227 647 146.794C647 147.887 635.533 159.763 634.478 159.763C633.66 159.763 631 162.44 631 163.263C631 164.301 628.237 166.763 627.071 166.763C626.482 166.763 626 167.233 626 167.808C626 169.166 621.403 173.763 620.045 173.763C619.47 173.763 619 174.245 619 174.834C619 176 616.538 178.763 615.5 178.763C614.678 178.763 612 181.423 612 182.239C612 182.58 609.75 185.108 607 187.858C604.25 190.608 602 193.287 602 193.811C602 194.334 601.1 194.763 600 194.763C598.9 194.763 598 195.344 598 196.055C598 196.765 596.425 199.016 594.5 201.057C592.575 203.098 591 205.217 591 205.765C591 206.314 590.53 206.763 589.955 206.763C588.043 206.763 577 217.806 577 219.718C577 220.293 576.325 220.763 575.5 220.763C574.675 220.763 574 221.183 574 221.696C574 222.209 573.1 222.914 572 223.263C570.9 223.612 570 224.767 570 225.83C570 227.225 569.304 227.763 567.5 227.763C565.5 227.763 565 228.263 565 230.263C565 231.638 564.53 232.763 563.955 232.763C562.597 232.763 558 237.36 558 238.718C558 239.293 557.13 239.763 556.067 239.763C555.004 239.763 553.856 240.64 553.516 241.712C553.176 242.784 552.021 243.939 550.949 244.279C549.877 244.619 549 245.293 549 245.775C549 246.903 539.007 256.763 537.864 256.763C537.389 256.763 537 257.663 537 258.763C537 259.863 536.55 260.763 536 260.763C535.173 260.763 531.493 264.075 521.788 273.551C521.232 274.095 518.555 276.84 515.84 279.651C513.126 282.463 510.507 284.763 510.02 284.763C509.533 284.763 508.849 285.663 508.5 286.763C508.151 287.863 506.996 288.763 505.933 288.763C504.667 288.763 504 289.453 504 290.763C504 291.863 503.616 292.763 503.146 292.763C501.925 292.763 497 297.479 497 298.648C497 299.187 496.123 299.907 495.051 300.247C493.979 300.587 492.831 301.719 492.5 302.763C492.169 303.807 491.044 304.932 490 305.263C488.956 305.594 487.831 306.719 487.5 307.763C487.169 308.807 486.121 309.907 485.172 310.208C484.223 310.51 482.784 311.72 481.973 312.897C481.163 314.075 479.487 316.081 478.25 317.356C477.013 318.63 476 320.143 476 320.718C476 321.293 475.518 321.763 474.929 321.763C473.778 321.763 471 324.219 471 325.237C471 326.272 466.161 330.763 465.045 330.763C464.47 330.763 464 331.438 464 332.263C464 333.088 463.363 333.763 462.583 333.763C461.804 333.763 460.94 334.326 460.662 335.013C460.259 336.013 460.142 336.013 460.079 335.013C460.035 334.321 458.716 333.763 457.122 333.763C455.54 333.763 453.685 333.088 453 332.263C452.315 331.438 450.91 330.763 449.878 330.763C448.845 330.763 448 330.313 448 329.763C448 329.213 447.325 328.763 446.5 328.763C445.675 328.763 445 328.313 445 327.763C445 327.213 443.061 326.763 440.691 326.763C438.321 326.763 435.509 326.102 434.441 325.295C432.106 323.528 418.56 323.266 412.5 324.869C410.3 325.451 407.263 326.167 405.75 326.459C404.237 326.751 403 327.389 403 327.876C403 328.364 402.1 328.763 401 328.763C399.9 328.763 399 329.164 399 329.655C399 330.145 397.875 330.829 396.5 331.174C395.125 331.519 394 332.243 394 332.782C394 333.322 393.325 333.763 392.5 333.763C391.675 333.763 391 334.213 391 334.763C391 335.313 389.65 335.763 388 335.763C386.35 335.763 385 335.313 385 334.763C385 334.213 384.325 333.763 383.5 333.763C382.675 333.763 382 333.343 382 332.83C382 332.317 381.123 331.619 380.051 331.279C378.979 330.939 377.824 329.784 377.484 328.712C377.144 327.64 376.004 326.763 374.952 326.763C373.745 326.763 372.806 325.84 372.411 324.263C372.066 322.888 371.138 321.763 370.35 321.763C369.562 321.763 364.198 317.038 358.43 311.263C352.662 305.488 347.506 300.763 346.971 300.763C346.437 300.763 346 300.343 346 299.83C346 299.317 345.1 298.612 344 298.263C342.9 297.914 342 297.038 342 296.316C342 295.059 334.583 286.763 333.459 286.763C332.507 286.763 327.233 281.947 324.25 278.353C323.563 277.525 323 274.686 323 272.045C323 268.308 323.555 266.644 325.5 264.546C327.48 262.411 328 260.801 328 256.807C328 254.033 328.45 251.763 329 251.763C329.588 251.763 330 248.263 330 243.263C330 238.263 329.588 234.763 329 234.763C328.444 234.763 328 232.096 328 228.763C328 225.463 327.637 222.763 327.192 222.763C326.31 222.763 323 215.796 323 213.938C323 212.669 320.954 209.904 316.75 205.494C315.238 203.907 314 201.969 314 201.186C314 200.403 313.53 199.763 312.955 199.763C312.38 199.763 310.826 198.751 309.503 197.513C305.491 193.762 304.132 192.763 303.042 192.763C302.469 192.763 301.997 192.426 301.994 192.013C301.983 190.741 295.975 187.763 293.419 187.763C292.089 187.763 291 187.313 291 186.763C291 186.213 290.363 185.763 289.583 185.763C288.804 185.763 287.99 185.234 287.775 184.588C287.176 182.791 259.711 182.861 254.25 184.673C251.913 185.449 250 186.461 250 186.923C250 187.385 247.975 187.763 245.5 187.763C243.025 187.763 241 188.178 241 188.685C241 189.193 239.473 190.112 237.606 190.728C235.739 191.344 232.927 192.953 231.356 194.304C229.785 195.655 228.163 196.761 227.75 196.762C227.337 196.762 227 197.251 227 197.846C227 198.442 225.425 200.459 223.5 202.329C221.575 204.198 220 206.411 220 207.245C220 208.08 219.55 208.763 219 208.763C218.45 208.763 218 209.245 218 209.834C218 210.424 217.325 211.581 216.5 212.406C215.675 213.231 215 214.999 215 216.334C215 217.67 214.605 218.763 214.121 218.763C213.638 218.763 212.63 220.225 211.88 222.013C210.05 226.379 209.967 257.919 211.784 258.524C212.453 258.747 213 260.242 213 261.846C213 263.451 213.348 264.763 213.773 264.763C214.198 264.763 215.118 266.9 215.818 269.513C218.4 279.156 218.409 279.066 214.582 283.243C212.612 285.394 211 287.516 211 287.958C211 288.401 210.567 288.763 210.038 288.763C209.002 288.763 187 310.284 187 311.297C187 312.105 184.317 314.763 183.5 314.763C182.666 314.763 180 317.429 180 318.263C180 319.097 177.334 321.763 176.5 321.763C175.666 321.763 173 324.429 173 325.263C173 325.617 172.357 326.549 171.571 327.334C170.786 328.12 169.854 328.763 169.5 328.763C168.462 328.763 166 331.526 166 332.692C166 333.281 165.53 333.763 164.955 333.763C163.839 333.763 159 338.254 159 339.289C159 340.091 156.326 342.763 155.524 342.763C154.462 342.763 145 352.611 145 353.715C145 354.292 144.53 354.763 143.955 354.763C142.839 354.763 138 359.254 138 360.289C138 361.307 135.222 363.763 134.071 363.763C133.482 363.763 133 364.233 133 364.808C133 366.166 128.403 370.763 127.045 370.763C126.47 370.763 126 371.235 126 371.812C126 372.389 123.3 375.553 120 378.843C116.7 382.133 114 385.23 114 385.726C114 386.222 113.123 386.907 112.051 387.247C110.979 387.587 109.831 388.719 109.5 389.763C109.169 390.807 108.021 391.939 106.949 392.279C105.877 392.619 105 393.767 105 394.83C105 396.074 104.311 396.763 103.067 396.763C102.004 396.763 100.849 397.663 100.5 398.763C100.151 399.863 99.446 400.763 98.933 400.763C98.42 400.763 98 401.438 98 402.263C98 403.092 97.113 403.763 96.019 403.763C94.74 403.763 93.816 404.649 93.411 406.263C93.028 407.787 92.071 408.763 90.959 408.763C89.956 408.763 88.882 409.551 88.573 410.513C87.796 412.937 83.509 417.763 82.134 417.763C81.51 417.763 81 418.183 81 418.696C81 419.209 80.213 419.883 79.25 420.195C77.055 420.905 73 427.893 73.001 430.961C73.004 436.801 83.165 442.18 89.352 439.617C92.469 438.326 103 428.408 103 426.764C103 426.288 103.803 425.643 104.784 425.332C105.765 425.02 107.387 423.378 108.389 421.681C110.442 418.206 138.698 389.763 140.097 389.763C140.594 389.763 141 389.369 141 388.887C141 388.405 150.225 378.712 161.5 367.348C172.775 355.983 182 346.253 182 345.724C182 345.195 182.675 344.763 183.5 344.763C184.333 344.763 185 343.874 185 342.763C185 341.43 185.667 340.763 187 340.763C188.1 340.763 189 340.108 189 339.308C189 337.729 193.536 332.763 194.978 332.763C195.466 332.763 196.151 331.863 196.5 330.763C196.849 329.663 198.004 328.763 199.067 328.763C200.362 328.763 201 328.072 201 326.669C201 325.417 201.803 324.366 203 324.053C204.1 323.765 205 323.202 205 322.802C205 321.534 209.514 316.763 210.714 316.763C211.347 316.763 212.144 315.886 212.484 314.814C212.824 313.742 213.956 312.594 215 312.263C216.044 311.932 217.169 310.807 217.5 309.763C217.831 308.719 218.979 307.587 220.051 307.247C221.123 306.907 222 306.229 222 305.741C222 304.588 226.825 299.763 227.978 299.763C228.466 299.763 229.151 298.863 229.5 297.763C229.849 296.663 231.004 295.763 232.067 295.763C233.13 295.763 234 295.313 234 294.763C234 294.213 235.125 293.763 236.5 293.763C237.875 293.763 239 294.213 239 294.763C239 295.313 240.125 295.763 241.5 295.763C242.875 295.763 244 296.158 244 296.642C244 297.746 248.349 299.482 253.25 300.334C255.313 300.692 257 301.386 257 301.874C257 302.363 261.95 302.763 268 302.763C274.667 302.763 279 302.369 279 301.763C279 301.213 280.177 300.763 281.616 300.763C284.612 300.763 294.334 297.637 294.833 296.513C295.017 296.1 296.089 295.763 297.216 295.763C298.343 295.763 299.993 294.927 300.883 293.906C303.28 291.154 306.518 290.424 308.323 292.229C309.167 293.073 310.339 293.763 310.929 293.763C311.518 293.763 312 294.213 312 294.763C312 295.313 312.664 295.763 313.476 295.763C314.287 295.763 325.994 306.788 339.49 320.263C352.986 333.738 364.472 344.763 365.014 344.763C365.556 344.763 366 345.339 366 346.042C366 346.746 366.9 347.97 368 348.763C369.662 349.961 370 351.352 370 356.984C370 360.712 369.66 363.763 369.244 363.763C368.828 363.763 367.898 365.096 367.177 366.726C365.469 370.585 365.208 397.999 366.874 398.554C367.493 398.761 368 400.467 368 402.346C368 404.225 368.401 405.763 368.892 405.763C369.382 405.763 370.087 406.973 370.458 408.452C370.829 409.931 372.003 412.363 373.066 413.856C374.13 415.35 375 416.859 375 417.21C375 417.912 376.332 419.61 379.75 423.266C380.987 424.589 382 425.95 382 426.289C382 426.628 382.643 427.549 383.429 428.334C384.214 429.12 385.135 429.763 385.474 429.763C385.813 429.763 387.174 430.776 388.497 432.013C392.509 435.764 393.868 436.763 394.958 436.763C395.531 436.763 396 437.213 396 437.763C396 438.313 397.013 438.779 398.25 438.798C399.487 438.818 401.625 439.477 403 440.263C404.375 441.049 406.513 441.708 407.75 441.728C408.987 441.747 410 442.213 410 442.763C410 443.313 412.025 443.763 414.5 443.763C416.975 443.763 419 444.213 419 444.763C419 445.334 422 445.763 426 445.763C430 445.763 433 445.334 433 444.763C433 444.213 435.25 443.763 438 443.763C440.75 443.763 443 443.363 443 442.874C443 442.386 444.575 441.69 446.5 441.329C448.425 440.968 450 440.243 450 439.718C450 439.193 451.026 438.763 452.279 438.763C453.533 438.763 455.207 437.863 456 436.763C456.793 435.663 457.997 434.763 458.675 434.763C459.354 434.763 461.034 433.638 462.409 432.263C463.784 430.888 465.134 429.763 465.409 429.763C466.312 429.763 471 424.694 471 423.718C471 423.193 471.379 422.763 471.843 422.763C472.306 422.763 473.533 421.188 474.57 419.263C475.607 417.338 476.802 415.763 477.227 415.763C477.652 415.763 478 414.638 478 413.263C478 411.888 478.45 410.763 479 410.763C479.55 410.763 480.014 409.975 480.032 409.013C480.049 408.051 480.724 406.389 481.532 405.322C482.339 404.254 483 401.442 483 399.072C483 396.702 483.45 394.763 484 394.763C484.606 394.763 485 390.43 485 383.763C485 377.096 484.606 372.763 484 372.763C483.45 372.763 483 370.77 483 368.334C483 365.731 482.382 363.288 481.5 362.406C480.675 361.581 480 360.424 480 359.834C480 359.245 479.55 358.763 479 358.763C478.436 358.763 478 355.936 478 352.282C478 346.203 478.155 345.762 480.5 345.174C481.992 344.799 483 343.831 483 342.771C483 341.795 483.896 340.762 484.992 340.475C486.087 340.189 487.774 338.56 488.742 336.856C489.709 335.152 491.264 333.511 492.199 333.209C493.133 332.908 494.176 331.784 494.516 330.712C494.856 329.64 496.004 328.763 497.067 328.763C498.13 328.763 499 328.281 499 327.692C499 326.566 501.447 323.763 502.43 323.763C503.575 323.763 511 315.486 511 314.21C511 313.488 511.9 312.612 513 312.263C514.1 311.914 515 311.209 515 310.696C515 310.183 515.48 309.763 516.067 309.763C517.252 309.763 529 297.741 529 296.528C529 296.107 529.675 295.763 530.5 295.763C531.325 295.763 532.001 295.426 532.001 295.013C532.003 293.834 536.625 288.763 537.697 288.763C538.228 288.763 539.264 287.638 540 286.263C540.736 284.888 541.937 283.763 542.669 283.763C543.401 283.763 544 282.863 544 281.763C544 280.663 544.563 279.756 545.25 279.747C546.614 279.73 553 274.426 553 273.31C553 272.44 555.641 269.763 556.5 269.763C557.462 269.763 559.531 267.508 560.877 264.992C561.533 263.766 562.73 262.763 563.535 262.763C564.341 262.763 565 262.048 565 261.173C565 259.406 568.804 255.848 570.75 255.796C571.438 255.778 572 254.893 572 253.83C572 252.767 572.9 251.612 574 251.263C575.1 250.914 576 250.231 576 249.745C576 249.259 578.7 246.153 582 242.843C585.3 239.533 588 236.361 588 235.794C588 235.227 588.422 234.763 588.937 234.763C589.452 234.763 596.463 228.238 604.517 220.263C612.571 212.288 619.544 205.763 620.013 205.763C620.482 205.763 621.151 204.863 621.5 203.763C621.849 202.663 623.004 201.763 624.067 201.763C625.13 201.763 626 201.129 626 200.354C626 199.579 631.175 193.698 637.5 187.284C643.825 180.871 649 175.205 649 174.693C649 174.182 649.482 173.763 650.071 173.763C651.456 173.763 654 171.219 654 169.834C654 169.245 654.482 168.763 655.071 168.763C656.222 168.763 659 166.307 659 165.289C659 164.254 663.839 159.763 664.955 159.763C665.53 159.763 666 159.293 666 158.718C666 157.36 670.597 152.763 671.955 152.763C672.53 152.763 673 152.293 673 151.718C673 150.821 675.241 148.064 679.059 144.263C679.612 143.713 681.062 142.253 682.282 141.019C683.502 139.784 689.9 133.372 696.5 126.768C722.795 100.461 734 88.9485 734 88.2385C734 86.8425 736.71 85.0714 739.786 84.4564C745.076 83.3984 745.458 85.6725 744.119 110.263C742.646 137.33 742.687 140.947 744.519 145.493C746.394 150.149 752.801 153.453 756.364 151.602C759.566 149.938 761.588 147.523 762.542 144.223C763.013 142.595 763.504 121.853 763.632 98.1305C763.857 56.7015 763.79 54.9154 761.933 52.9224C760.87 51.7804 760 50.4544 760 49.9744C760 49.4944 758.875 48.4995 757.5 47.7635C756.125 47.0275 755 46.0514 755 45.5944C755 45.1374 748.25 44.7635 740 44.7635C730.667 44.7635 725 45.1415 725 45.7635C725 46.3135 723.875 46.7635 722.5 46.7635C721.125 46.7635 720 46.3135 720 45.7635C720 45.1185 709.272 44.7754 689.75 44.7974L659.5 44.8305L655.75 48.6934ZM147 104.763C147 105.313 145.659 105.763 144.019 105.763C141.673 105.763 140.904 106.296 140.411 108.263C140.066 109.638 139.382 110.763 138.892 110.763C138.401 110.763 138 111.888 138 113.263C138 114.638 138.45 115.763 139 115.763C139.55 115.763 140 116.663 140 117.763C140 118.863 140.51 119.763 141.133 119.763C141.756 119.763 143.097 120.722 144.113 121.893L145.961 124.024L242.398 124.272L338.834 124.52L347 132.642C351.49 137.108 355.547 140.763 356.014 140.763C356.482 140.763 357.847 142.144 359.049 143.832C360.251 145.52 376.245 161.945 394.591 180.332L427.948 213.763H433.402C438.505 213.763 439.161 213.472 443.554 209.263C446.137 206.788 448.644 204.763 449.125 204.763C449.606 204.763 450 204.088 450 203.263C450 202.438 450.47 201.763 451.045 201.763C452.131 201.763 457 197.284 457 196.286C457 195.974 461.931 190.666 467.958 184.491C481.467 170.65 483 168.941 483 167.728C483 167.197 483.568 166.763 484.263 166.763C484.957 166.763 486.42 165.564 487.513 164.098C489.807 161.021 504.855 145.763 505.595 145.763C506.428 145.763 511 140.909 511 140.024C511 139.568 512.462 138.335 514.25 137.285C518.709 134.665 519.516 133.744 521.036 129.541C522.068 126.687 522.105 125.056 521.205 122.054C520.197 118.687 519.498 118.051 515.512 116.875C509.116 114.986 506.238 116.433 496.25 126.561C491.712 131.162 488 135.147 488 135.416C488 136.333 485.147 138.763 484.071 138.763C483.482 138.763 483 139.438 483 140.263C483 141.088 482.58 141.763 482.067 141.763C481.554 141.763 480.849 142.663 480.5 143.763C480.151 144.863 478.996 145.763 477.933 145.763C476.87 145.763 476 146.245 476 146.834C476 148.219 473.456 150.763 472.071 150.763C471.482 150.763 471 151.663 471 152.763C471 153.863 470.57 154.763 470.045 154.763C469.52 154.763 467.966 155.888 466.591 157.263C465.216 158.638 463.869 159.763 463.597 159.763C463.326 159.763 456.82 166.063 449.14 173.763C438.722 184.208 434.55 187.763 432.709 187.763C430.364 187.763 422 180.867 422 178.933C422 178.475 420.875 177.499 419.5 176.763C418.125 176.027 417 174.601 417 173.594C417 172.486 416.277 171.763 415.169 171.763C414.162 171.763 412.736 170.638 412 169.263C411.264 167.888 410.248 166.763 409.741 166.763C408.503 166.763 405.075 162.577 405.033 161.013C405.015 160.326 404.368 159.763 403.596 159.763C402.824 159.763 398.588 156.163 394.182 151.763C389.776 147.363 385.683 143.763 385.086 143.763C384.489 143.763 384 143.253 384 142.63C384 142.007 383.171 140.77 382.157 139.88C381.143 138.991 379.777 137.251 379.122 136.013C378.466 134.775 377.436 133.763 376.832 133.763C375.376 133.763 372 129.813 372 128.11C372 127.369 371.1 126.763 370 126.763C368.9 126.763 368 126.113 368 125.319C368 123.017 350.403 105.763 348.055 105.763C346.925 105.763 346 105.313 346 104.763C346 104.113 331.667 103.763 305 103.763C278.333 103.763 264 104.113 264 104.763C264 105.413 250.167 105.763 224.5 105.763C198.833 105.763 185 105.413 185 104.763C185 104.131 178 103.763 166 103.763C154 103.763 147 104.131 147 104.763ZM284 204.492C290.83 207.366 291.689 207.885 295.641 211.513C296.988 212.751 298.328 213.763 298.617 213.763C299.362 213.763 302 216.492 302 217.263C302 217.617 302.675 218.581 303.5 219.406C304.325 220.231 305 221.774 305 222.834C305 223.895 305.45 224.763 306 224.763C306.55 224.763 307 225.438 307 226.263C307 227.088 307.45 227.763 308 227.763C308.617 227.763 309 232.944 309 241.305C309 253.464 308.796 255.066 307 256.993C305.9 258.174 305 259.9 305 260.829C305 261.758 304.325 263.078 303.5 263.763C302.675 264.448 302 265.435 302 265.957C302 267.242 299.398 269.763 298.071 269.763C297.482 269.763 297 270.438 297 271.263C297 272.088 296.13 272.763 295.067 272.763C294.004 272.763 292.849 273.663 292.5 274.763C292.151 275.863 291.082 276.763 290.124 276.763C289.166 276.763 287.509 277.424 286.441 278.231C285.374 279.039 283.712 279.714 282.75 279.731C281.788 279.749 281 280.213 281 280.763C281 281.378 276 281.763 268 281.763C260.781 281.763 255 281.355 255 280.846C255 280.341 252.987 279.16 250.528 278.22C248.065 277.28 245.788 275.67 245.46 274.638C245.133 273.607 243.996 272.763 242.933 272.763C241.87 272.763 241 272.281 241 271.692C241 271.102 240.438 269.993 239.75 269.226C236.782 265.917 236 264.786 236 263.805C236 263.232 235.55 262.763 235 262.763C234.45 262.763 234 261.638 234 260.263C234 258.888 233.55 257.763 233 257.763C232.45 257.763 232 256.89 232 255.822C232 254.754 231.55 253.603 231 253.263C228.625 251.795 230.538 230.763 233.047 230.763C233.571 230.763 234 229.188 234 227.263C234 225.338 234.45 223.763 235 223.763C235.55 223.763 236 223.281 236 222.692C236 222.102 236.563 220.993 237.25 220.226C240.218 216.917 241 215.786 241 214.805C241 214.232 241.567 213.763 242.26 213.763C242.953 213.763 244.734 212.638 246.217 211.263C247.699 209.888 249.382 208.763 249.956 208.763C250.53 208.763 251 208.313 251 207.763C251 207.213 251.788 206.736 252.75 206.704C253.712 206.672 256.525 205.594 259 204.31C265.721 200.823 275.449 200.894 284 204.492ZM692.75 266.971C691.237 267.498 690 268.293 690 268.738C690 269.182 688.875 269.829 687.5 270.174C686.125 270.519 685 271.243 685 271.782C685 272.322 683.974 272.763 682.721 272.763C681.467 272.763 679.793 273.663 679 274.763C678.207 275.863 677.003 276.763 676.325 276.763C675.646 276.763 673.966 277.888 672.591 279.263C671.216 280.638 669.377 281.763 668.504 281.763C667.631 281.763 665.923 282.694 664.708 283.832C663.494 284.969 661.263 286.151 659.75 286.457C658.237 286.763 657 287.407 657 287.888C657 288.369 655.875 288.763 654.5 288.763C653.125 288.763 651.997 289.1 651.994 289.513C651.985 290.54 646.186 293.763 644.348 293.763C643.528 293.763 642.168 294.452 641.326 295.294C640.484 296.137 637.816 297.355 635.397 298.002C632.979 298.649 631 299.534 631 299.97C631 300.406 629.875 300.763 628.5 300.763C627.125 300.763 626 301.213 626 301.763C626 302.313 624.425 302.763 622.5 302.763C620.575 302.763 619 303.198 619 303.729C619 304.26 616.75 304.993 614 305.357C611.25 305.722 609 306.413 609 306.892C609 307.371 607.65 307.763 606 307.763C604.35 307.763 603 308.213 603 308.763C603 309.317 600.361 309.763 597.083 309.763C593.829 309.763 591.017 310.206 590.833 310.748C590.351 312.173 581.71 313.95 572.75 314.468C568.487 314.714 565 315.331 565 315.839C565 316.347 564.137 316.763 563.082 316.763C557.659 316.763 558 311.595 558 393.787C558 435.482 558.337 469.746 558.75 469.93C560.13 470.543 563 480.482 563 484.647C563 486.911 563.45 488.763 564 488.763C564.55 488.763 565 490.338 565 492.263C565 494.188 565.45 495.763 566 495.763C566.55 495.763 567 496.577 567 497.572C567 498.567 567.661 500.254 568.468 501.322C569.276 502.389 569.951 504.725 569.968 506.513C569.986 508.301 570.45 509.763 571 509.763C571.55 509.763 572 510.663 572 511.763C572 512.863 572.45 513.763 573 513.763C573.55 513.763 574 514.706 574 515.859C574 518.175 576.98 523.763 578.216 523.763C578.647 523.763 579 524.888 579 526.263C579 527.638 579.337 528.766 579.75 528.769C580.756 528.778 584 534.56 584 536.344C584 537.124 584.45 537.763 585 537.763C585.55 537.763 586 538.6 586 539.623C586 540.646 587.125 542.328 588.5 543.36C589.875 544.393 591 545.814 591 546.518C591 547.222 592.575 549.328 594.5 551.197C596.425 553.067 598 554.879 598 555.225C598 555.571 599.125 556.979 600.5 558.354C601.875 559.729 603 561.319 603 561.888C603 562.457 605.7 565.623 609 568.923C612.3 572.223 615 575.307 615 575.776C615 576.245 615.9 576.914 617 577.263C618.1 577.612 619 578.507 619 579.251C619 580.719 627.614 589.763 629.012 589.763C629.481 589.763 630.151 590.663 630.5 591.763C630.849 592.863 631.674 593.763 632.333 593.763C632.991 593.763 636.368 596.463 639.836 599.763C643.304 603.063 646.785 605.763 647.571 605.763C648.357 605.763 649 606.213 649 606.763C649 607.313 649.675 607.763 650.5 607.763C651.325 607.763 652 608.438 652 609.263C652 610.088 652.675 610.763 653.5 610.763C654.325 610.763 655 611.213 655 611.763C655 612.313 655.695 612.763 656.545 612.763C657.395 612.763 659.216 613.888 660.591 615.263C661.966 616.638 663.745 617.763 664.545 617.763C665.345 617.763 666 618.213 666 618.763C666 619.313 666.675 619.763 667.5 619.763C668.325 619.763 669 620.213 669 620.763C669 621.313 669.707 621.763 670.571 621.763C671.436 621.763 672.77 622.326 673.537 623.013C676.846 625.981 677.977 626.763 678.958 626.763C679.531 626.763 680 627.213 680 627.763C680 628.313 680.639 628.763 681.419 628.763C683.203 628.763 688.985 632.007 688.994 633.013C688.997 633.426 692.102 633.763 695.893 633.763C700.906 633.763 702.934 633.378 703.328 632.351C703.626 631.575 705.474 630.36 707.435 629.65C709.396 628.941 711 628.002 711 627.562C711 627.123 711.9 626.763 713 626.763C714.1 626.763 715 626.384 715 625.92C715 625.457 716.575 624.23 718.5 623.193C720.425 622.156 722 620.961 722 620.536C722 620.111 722.469 619.763 723.042 619.763C724.023 619.763 725.154 618.981 728.463 616.013C729.23 615.325 730.135 614.763 730.474 614.763C730.813 614.763 732.216 613.638 733.591 612.263C734.966 610.888 736.646 609.763 737.325 609.763C738.003 609.763 739.207 608.863 740 607.763C740.793 606.663 742.212 605.763 743.153 605.763C744.095 605.763 745.151 604.863 745.5 603.763C745.849 602.663 746.554 601.763 747.067 601.763C747.58 601.763 749.8 599.963 752 597.763C754.2 595.563 756.245 593.763 756.545 593.763C757.073 593.763 761.432 589.888 765.639 585.679C770.496 580.82 771.923 579.397 772.938 578.402C773.576 577.775 775.057 576.25 776.229 575.013C777.402 573.776 778.955 572.763 779.68 572.763C780.406 572.763 781 572.08 781 571.245C781 570.411 782.575 568.198 784.5 566.329C786.425 564.459 788 562.635 788 562.275C788 561.227 790.756 558.763 791.929 558.763C792.518 558.763 793 558.088 793 557.263C793 556.438 793.45 555.763 794 555.763C794.55 555.763 795 555.058 795 554.196C795 553.334 796.575 551.143 798.5 549.328C800.425 547.512 802 545.733 802 545.373C802 544.427 807.362 536.324 808.25 535.93C808.663 535.746 809 534.509 809 533.18C809 531.85 809.441 530.763 809.981 530.763C810.52 530.763 811.244 529.638 811.589 528.263C811.934 526.888 812.618 525.763 813.108 525.763C813.599 525.763 814 524.863 814 523.763C814 522.663 814.45 521.763 815 521.763C815.55 521.763 816 520.638 816 519.263C816 517.888 816.45 516.763 817 516.763C817.55 516.763 818 515.831 818 514.692C818 513.552 818.675 511.945 819.5 511.12C820.325 510.295 821 508.527 821 507.192C821 505.856 821.45 504.763 822 504.763C822.55 504.763 823 503.638 823 502.263C823 500.888 823.398 499.763 823.885 499.763C824.371 499.763 825.079 497.288 825.457 494.263C825.835 491.238 826.562 488.763 827.072 488.763C827.582 488.763 828 486.963 828 484.763C828 482.563 828.45 480.763 829 480.763C829.55 480.763 830 478.326 830 475.346C830 472.256 830.478 469.77 831.113 469.559C831.77 469.34 832.442 465.409 832.752 459.975C833.041 454.908 833.665 450.763 834.139 450.763C834.612 450.763 835 421.513 835 385.763C835 346.227 834.635 320.763 834.067 320.763C833.554 320.763 832.849 319.863 832.5 318.763C832.151 317.663 830.996 316.763 829.933 316.763C828.87 316.763 828 316.313 828 315.763C828 315.165 824.107 314.763 818.321 314.763C809.262 314.763 805.964 314.22 798.5 311.502C796.85 310.901 792.237 310.228 788.25 310.007C784.263 309.786 781 309.191 781 308.684C781 308.177 780.325 307.763 779.5 307.763C778.675 307.763 778 307.313 778 306.763C778 306.213 776.538 305.747 774.75 305.728C772.962 305.708 770.375 305.049 769 304.263C767.625 303.477 765.038 302.818 763.25 302.798C761.462 302.779 760 302.313 760 301.763C760 301.213 758.875 300.763 757.5 300.763C756.125 300.763 755 300.363 755 299.874C755 299.386 753.523 298.708 751.718 298.37C749.912 298.031 747.788 296.856 746.997 295.758C746.206 294.661 744.735 293.763 743.73 293.763C741.335 293.763 736 290.984 736 289.737C736 289.201 734.65 288.763 733 288.763C731.35 288.763 730 288.313 730 287.763C730 287.213 729.325 286.763 728.5 286.763C727.675 286.763 727 286.362 727 285.871C727 285.381 725.875 284.697 724.5 284.352C723.125 284.007 722 283.283 722 282.744C722 282.204 721.277 281.763 720.394 281.763C719.511 281.763 717.903 280.638 716.821 279.263C715.74 277.888 713.988 276.763 712.927 276.763C711.867 276.763 711 276.313 711 275.763C711 275.213 710.325 274.763 709.5 274.763C708.675 274.763 708 274.415 708 273.99C708 273.565 706.425 272.37 704.5 271.333C702.575 270.296 701 269.069 701 268.606C701 268.142 700.19 267.763 699.2 267.763C698.21 267.763 696.972 267.369 696.45 266.888C695.906 266.387 694.325 266.422 692.75 266.971ZM697.77 293.763C698.95 294.863 700.631 295.763 701.504 295.763C702.377 295.763 704.216 296.888 705.591 298.263C706.966 299.638 708.745 300.763 709.545 300.763C710.345 300.763 711 301.115 711 301.545C711 301.975 713.025 302.924 715.5 303.655C718.037 304.404 720 305.59 720 306.373C720 307.277 721.147 307.763 723.279 307.763C725.411 307.763 727.063 308.463 728 309.763C728.793 310.863 730.381 311.763 731.53 311.763C732.678 311.763 734.491 312.424 735.559 313.231C736.626 314.039 738.513 314.714 739.75 314.731C740.987 314.749 742 315.213 742 315.763C742 316.313 742.9 316.763 744 316.763C745.1 316.763 746 317.162 746 317.649C746 318.137 748.025 318.84 750.5 319.211C752.975 319.582 755 320.308 755 320.824C755 321.341 755.675 321.763 756.5 321.763C757.325 321.763 758 322.213 758 322.763C758 323.313 759.785 323.763 761.966 323.763C765.734 323.763 773.12 326.408 773.833 328.013C774.017 328.426 776.829 328.763 780.083 328.763C783.361 328.763 786 329.209 786 329.763C786 330.313 787.462 330.771 789.25 330.781C795.878 330.818 811.032 333.652 812.512 335.132C813.844 336.464 813.989 344.395 813.697 399.956C813.369 462.469 812.989 470.195 809.859 478.013C809.253 479.526 808.362 480.763 807.879 480.763C807.395 480.763 807 483.013 807 485.763C807 488.513 806.6 490.763 806.111 490.763C805.623 490.763 804.927 492.338 804.566 494.263C804.205 496.188 803.48 497.763 802.955 497.763C802.43 497.763 802 498.888 802 500.263C802 501.638 801.55 502.763 801 502.763C800.45 502.763 800 503.402 800 504.182C800 505.966 796.756 511.748 795.75 511.757C795.337 511.76 795 512.682 795 513.805C795 514.928 794.083 516.831 792.961 518.035C791.84 519.238 790.643 521.357 790.301 522.743C789.96 524.129 788.852 525.991 787.84 526.88C786.828 527.77 786 529.007 786 529.63C786 530.253 785.58 530.763 785.067 530.763C784.554 530.763 783.827 531.732 783.451 532.916C782.811 534.934 781.965 536.044 776.25 542.365C775.013 543.734 774 545.283 774 545.808C774 546.333 773.55 546.763 773 546.763C772.45 546.763 772 547.232 772 547.805C772 549.115 771.336 549.887 761.25 560.308C756.712 564.995 753 569.266 753 569.797C753 570.328 752.53 570.763 751.955 570.763C751.38 570.763 749.871 571.776 748.602 573.013C744.451 577.06 741.003 579.763 739.992 579.763C739.447 579.763 739 580.362 739 581.094C739 581.826 737.875 583.027 736.5 583.763C735.125 584.499 734 585.475 734 585.932C734 586.389 733.304 586.763 732.452 586.763C731.601 586.763 729.862 587.888 728.588 589.263C727.313 590.638 725.925 591.763 725.503 591.763C725.08 591.763 724.007 592.562 723.117 593.539C721.093 595.762 716.423 598.763 714.99 598.763C714.395 598.763 712.784 599.888 711.409 601.263C710.034 602.638 708.354 603.763 707.675 603.763C706.997 603.763 705.793 604.663 705 605.763C704.207 606.863 702.983 607.763 702.279 607.763C701.576 607.763 701 608.204 701 608.744C701 609.283 699.875 610.007 698.5 610.352C697.125 610.697 696 611.381 696 611.871C696 612.362 695.1 612.763 694 612.763C692.9 612.763 692 612.313 692 611.763C692 611.213 691.531 610.763 690.958 610.763C689.977 610.763 688.846 609.981 685.537 607.013C684.77 606.326 683.854 605.763 683.5 605.763C683.146 605.763 682.23 605.201 681.463 604.513C678.154 601.545 677.023 600.763 676.042 600.763C675.469 600.763 675 600.313 675 599.763C675 599.213 674.317 598.763 673.482 598.763C672.648 598.763 670.435 597.188 668.566 595.263C666.696 593.338 664.485 591.763 663.651 591.763C662.817 591.763 661.856 590.886 661.516 589.814C661.176 588.742 659.924 587.556 658.734 587.179C657.545 586.801 654.607 584.528 652.207 582.128C649.806 579.727 647.203 577.763 646.421 577.763C645.639 577.763 645 577.088 645 576.263C645 575.438 644.663 574.762 644.25 574.762C643.234 574.76 638 570.208 638 569.325C638 568.411 635.352 565.763 634.438 565.763C633.555 565.763 629.003 560.529 629.001 559.513C629.001 559.1 628.325 558.763 627.5 558.763C626.675 558.763 626 558.297 626 557.727C626 556.763 625.174 555.731 619.25 549.297C618.013 547.954 617 546.491 617 546.048C617 545.605 615.875 544.029 614.5 542.546C613.125 541.064 612 539.381 612 538.807C612 538.233 611.621 537.763 611.157 537.763C610.694 537.763 609.467 536.188 608.43 534.263C607.393 532.338 606.198 530.763 605.773 530.763C605.348 530.763 605 529.638 605 528.263C605 526.758 604.429 525.763 603.565 525.763C602.775 525.763 601.56 524.188 600.864 522.263C600.168 520.338 599.239 518.763 598.799 518.763C598.36 518.763 598 518.124 598 517.344C598 515.56 594.756 509.778 593.75 509.769C593.337 509.766 593 508.287 593 506.484C593 504.337 592.3 502.7 590.973 501.744C589.844 500.93 588.681 498.618 588.346 496.523C588.015 494.455 587.352 492.763 586.872 492.763C586.392 492.763 586 491.863 586 490.763C586 489.663 585.55 488.763 585 488.763C584.45 488.763 584 487.156 584 485.192C584 483.227 583.325 480.945 582.5 480.12C581.675 479.295 581 477.077 581 475.192C581 473.306 580.55 471.763 580 471.763C579.444 471.763 579 469.096 579 465.763C579 462.43 578.556 459.763 578 459.763C577.344 459.763 577 438.93 577 399.263C577 359.596 577.344 338.763 578 338.763C578.55 338.763 579 338.088 579 337.263C579 336.438 579.638 335.763 580.417 335.763C581.196 335.763 581.983 335.335 582.167 334.811C582.531 333.77 591.472 331.873 599.75 331.08C602.638 330.804 605 330.17 605 329.67C605 329.171 607.212 328.763 609.917 328.763C612.621 328.763 614.983 328.426 615.167 328.013C615.643 326.941 625.074 323.752 627.75 323.758C628.987 323.761 630 323.423 630 323.007C630 322.591 631.462 321.672 633.25 320.964C635.038 320.256 637.774 319.021 639.331 318.22C640.888 317.419 643.251 316.763 644.581 316.763C645.911 316.763 647 316.313 647 315.763C647 315.213 647.932 314.763 649.071 314.763C650.211 314.763 651.818 314.088 652.643 313.263C653.468 312.438 654.926 311.763 655.883 311.763C656.84 311.763 658.589 310.863 659.77 309.763C660.95 308.663 662.653 307.763 663.554 307.763C665.515 307.763 671 304.658 671 303.547C671 303.116 671.9 302.763 673 302.763C674.1 302.763 675.002 302.426 675.004 302.013C675.006 301.6 677.031 300.431 679.504 299.414C681.977 298.397 684 297.159 684 296.664C684 296.168 684.9 295.763 686 295.763C687.1 295.763 688 295.382 688 294.916C688 293.898 691.876 291.925 694.061 291.831C694.92 291.793 696.589 292.663 697.77 293.763ZM436 343.763C436 344.313 437.093 344.763 438.429 344.763C439.764 344.763 441.532 345.438 442.357 346.263C443.182 347.088 444.24 347.763 444.708 347.763C445.176 347.763 446.207 348.663 447 349.763C447.793 350.863 449.193 351.763 450.112 351.763C451.048 351.763 452.052 352.833 452.394 354.196C452.73 355.535 453.904 356.915 455.002 357.264C456.101 357.612 457 358.767 457 359.83C457 360.893 457.337 361.766 457.75 361.769C458.756 361.778 462 367.56 462 369.344C462 370.124 462.45 370.763 463 370.763C463.614 370.763 464 375.61 464 383.305C464 394.607 463.796 396.065 461.931 398.055C460.794 399.269 459.612 401.501 459.306 403.013C459 404.526 458.356 405.763 457.875 405.763C457.394 405.763 457 406.231 457 406.802C457 407.911 449.581 415.763 448.533 415.763C448.19 415.763 446.784 416.888 445.409 418.263C444.034 419.638 442.056 420.763 441.014 420.763C439.971 420.763 438.84 421.213 438.5 421.763C438.16 422.313 437.009 422.763 435.941 422.763C434.873 422.763 434 423.213 434 423.763C434 424.366 429.833 424.763 423.5 424.763C417.725 424.763 413 424.402 413 423.961C413 423.519 410.84 422.381 408.2 421.432C405.56 420.483 402.761 418.819 401.98 417.735C401.198 416.65 400.176 415.763 399.708 415.763C398.758 415.763 396 413.219 396 412.342C396 411.802 392.88 407.927 390.25 405.201C389.563 404.489 389 402.299 389 400.334C389 398.37 388.611 396.763 388.136 396.763C386.874 396.763 384 388.699 384 385.158C384 381.414 386.857 372.763 388.094 372.763C388.592 372.763 389 371.188 389 369.263C389 367.338 389.382 365.763 389.848 365.763C390.315 365.763 391.539 363.85 392.569 361.513C394.501 357.13 398.185 353.173 401.25 352.19C402.212 351.881 403 351.209 403 350.696C403 350.183 403.469 349.763 404.042 349.763C405.023 349.763 406.154 348.981 409.463 346.013C410.23 345.326 412.689 344.763 414.929 344.763C417.168 344.763 419 344.313 419 343.763C419 343.175 422.5 342.763 427.5 342.763C432.5 342.763 436 343.175 436 343.763ZM244 388.763C244 389.313 243.531 389.763 242.958 389.763C241.967 389.763 240.799 390.577 237.453 393.597C236.163 394.761 236.009 409.55 236.238 510.168C236.529 638.029 235.885 627.233 243.35 629.479C249.695 631.388 255 628.362 255 622.834C255 621.145 255.518 619.763 256.152 619.763C257.01 619.763 257.09 614.733 256.466 600.013C255.564 578.725 255.568 572.985 256.555 488.263C257.028 447.673 256.861 426.966 255.948 413.013C255.255 402.426 254.339 393.763 253.911 393.763C253.484 393.763 252.849 392.863 252.5 391.763C252.151 390.663 250.996 389.763 249.933 389.763C248.87 389.763 248 389.313 248 388.763C248 388.213 247.1 387.763 246 387.763C244.9 387.763 244 388.213 244 388.763ZM356.598 490.482C353.788 491.201 351.374 493.881 350.585 497.158C350.202 498.75 349.749 526.425 349.579 558.658C349.324 606.749 349.52 618.115 350.673 622.013C351.73 625.588 352.563 626.763 354.039 626.763C355.117 626.763 356 627.213 356 627.763C356 628.313 358.025 628.763 360.5 628.763C362.975 628.763 365 628.313 365 627.763C365 627.213 365.675 626.763 366.5 626.763C367.548 626.763 368 625.707 368 623.263C368 621.338 368.45 619.763 369 619.763C369.656 619.763 370 598.43 370 557.763C370 517.096 369.656 495.763 369 495.763C368.45 495.763 368 494.697 368 493.394C368 491.433 367.354 490.918 364.25 490.405C360.197 489.735 359.489 489.742 356.598 490.482ZM125.25 520.513L122 524.195L121.75 554.729C121.613 571.523 121.574 593.907 121.664 604.472C121.825 623.371 121.866 623.72 124.254 626.107C127.158 629.012 131.533 630.129 136.416 629.213C138.848 628.757 140 627.997 140 626.852C140 625.923 140.563 624.601 141.25 623.914C142.207 622.957 142.567 611.444 142.787 574.805C143.05 530.817 142.93 526.614 141.301 522.854C139.974 519.792 138.958 518.763 137.264 518.763C136.019 518.763 135 518.313 135 517.763C135 517.213 133.538 516.778 131.75 516.797C129.284 516.823 127.716 517.718 125.25 520.513ZM509 522.763C509 523.313 508.518 523.763 507.929 523.763C507.339 523.763 506.214 524.406 505.429 525.192C504.273 526.347 504 531.03 504 549.692C504 564.406 503.638 572.763 503 572.763C502.362 572.763 502 581.263 502 596.263C502 611.263 502.362 619.763 503 619.763C503.55 619.763 504 621.338 504 623.263C504 626.046 504.393 626.763 505.917 626.763C506.971 626.763 507.983 627.212 508.167 627.761C508.649 629.204 517.301 629.36 517.776 627.934C517.991 627.29 518.642 626.763 519.223 626.763C522.744 626.763 522.936 624.173 522.968 576.236C523.002 526.099 523.161 527.931 518.362 523.013C516.916 521.531 509 521.319 509 522.763Z" fill="black"/>
</svg>
