<svg width="879" height="1148" viewBox="0 0 879 1148" fill="none" xmlns="http://www.w3.org/2000/svg">
<path fill-rule="evenodd" clip-rule="evenodd" d="M330.466 4.90812C226.014 20.8964 109.344 65.3518 41.7294 114.928C29.3462 124.006 15.964 132.641 11.994 134.118C0.627182 138.331 -1.46202 177.691 0.822645 344.346C2.65559 478.063 4.18448 504.042 13.9225 567.361C29.7023 669.919 46.0294 730.084 80.3081 811.967C136.352 945.855 245.117 1062.04 373.21 1124.85C429.119 1152.26 449.859 1153.88 496.781 1134.5C643.608 1073.85 762.879 930.531 818.08 748.409C837.417 684.621 856.529 589.191 868.695 495.694C876.574 435.124 878.385 398.834 878.763 293.722C879.015 223.25 877.79 160.704 876.035 154.732C871.214 138.296 829.925 110.354 757.606 74.5903C641.97 17.3999 583.59 2.95356 457.907 0.438694C396.478 -0.790507 359.154 0.521217 330.466 4.90812ZM526.095 30.9124C635.355 45.3458 715.092 75.4069 814.519 139.651L849.709 162.389L852.676 218.281C859.791 352.437 838.686 547.607 800.754 698.46C768.421 827.043 700.868 948.226 622.19 1018.79C569.252 1066.26 476.497 1118.79 445.381 1118.93C428.784 1119 360.666 1086.42 314.525 1056.34C190.054 975.208 91.8486 812.979 53.8477 625.72C31.3268 514.744 21.3455 362.54 27.7391 227.667L30.975 159.44L55.4938 140.928C89.1036 115.554 161.952 79.2378 210.325 63.7403C317.166 29.5182 428.176 17.9776 526.095 30.9124ZM388.412 98.7791C303.176 104.048 201.573 130.069 130.023 164.965C102.13 178.564 101.804 178.933 98.4507 200.381C96.5873 212.304 94.7761 281.669 94.4243 354.531C93.7598 492.058 97.304 542.777 113.084 621.654C149.056 801.465 259.037 964.883 387.908 1030.03C428.15 1050.37 451.418 1050.48 492.777 1030.54C641.314 958.933 739.094 769.31 775.154 482.928C789.839 366.276 787.311 212.248 770.398 193.558C761.194 183.385 702.592 154.714 655.266 137.232C570.129 105.776 481.609 93.0196 388.412 98.7791ZM430.856 127.585C431.786 129.374 430 158.206 426.882 191.651C423.763 225.096 420.036 301.324 418.599 361.046L415.984 469.633L321.844 474.845C270.065 477.712 205.561 481.673 178.496 483.649C149.347 485.777 128.295 485.63 126.848 483.289C122.288 475.909 120.872 361.381 124.346 280.692L127.804 200.338L156.036 186.521C211.329 159.457 294.919 136.698 366.833 129.127C414.355 124.123 428.875 123.771 430.856 127.585ZM555.635 138.179C600.108 147.448 691.733 181.561 727.641 202.227C749.792 214.971 749.797 214.98 752.616 241.957C766.137 371.332 740.992 575.926 693.935 719.382C653.281 843.327 573.07 955.649 496.399 996.009C448.712 1021.11 453.351 1034.07 455.023 880.451L456.483 746.264L446.983 743.249C441.684 741.568 435.365 742.359 432.685 745.039C429.466 748.257 427.281 793.616 426.07 882.292C425.075 955.137 422.994 1014.74 421.448 1014.74C419.902 1014.74 403.345 1005.79 384.655 994.845C325.262 960.08 255.302 885.129 215.038 813.131C176.794 744.743 138.554 623.148 131.778 548.371L128.911 516.733L202.199 511.43C242.502 508.516 313.287 504.937 359.493 503.477C414.181 501.753 444.034 499.177 445.011 496.089C445.841 493.483 447.405 435.645 448.486 367.561C449.572 299.478 452.934 216.834 455.966 183.911L461.469 124.054L487.921 126.816C502.471 128.336 532.941 133.449 555.635 138.179ZM530.638 487.185C510.685 501.162 403.883 639.176 375.147 688.122L366.72 702.469L333.867 666.709C309.673 640.383 299.075 631.696 293.676 633.768C278.609 639.549 286.206 656.141 323.438 698.751C343.791 722.045 362.824 741.069 365.739 741.034C374.838 740.917 378.804 736.096 417.452 678.119C438.153 647.063 477.657 593.565 505.234 559.23C547.296 506.861 554.671 495.489 551.009 488.648C545.71 478.754 542.961 478.554 530.638 487.185Z" fill="black"/>
</svg>
